<?xml version="1.0" encoding="utf-8" standalone="no"?>
<!DOCTYPE svg PUBLIC "-//W3C//DTD SVG 1.1//EN"
  "http://www.w3.org/Graphics/SVG/1.1/DTD/svg11.dtd">
<!-- Created with matplotlib (https://matplotlib.org/) -->
<svg height="707.76pt" version="1.1" viewBox="0 0 1382.4 707.76" width="1382.4pt" xmlns="http://www.w3.org/2000/svg" xmlns:xlink="http://www.w3.org/1999/xlink">
 <defs>
  <style type="text/css">
*{stroke-linecap:butt;stroke-linejoin:round;}
  </style>
 </defs>
 <g id="figure_1">
  <g id="patch_1">
   <path d="M 0 707.76 
L 1382.4 707.76 
L 1382.4 0 
L 0 0 
z
" style="fill:#ffffff;"/>
  </g>
  <g id="axes_1">
   <g id="patch_2">
    <path d="M 172.8 629.9064 
L 1244.16 629.9064 
L 1244.16 84.9312 
L 172.8 84.9312 
z
" style="fill:#ffffff;"/>
   </g>
   <g id="matplotlib.axis_1">
    <g id="xtick_1">
     <g id="line2d_1">
      <path clip-path="url(#pefce156824)" d="M 221.498182 629.9064 
L 221.498182 84.9312 
" style="fill:none;stroke:#b0b0b0;stroke-linecap:square;stroke-width:0.8;"/>
     </g>
     <g id="line2d_2">
      <defs>
       <path d="M 0 0 
L 0 3.5 
" id="m835206b201" style="stroke:#000000;stroke-width:0.8;"/>
      </defs>
      <g>
       <use style="stroke:#000000;stroke-width:0.8;" x="221.498182" xlink:href="#m835206b201" y="629.9064"/>
      </g>
     </g>
     <g id="text_1">
      <!-- 0 -->
      <defs>
       <path d="M 31.78125 66.40625 
Q 24.171875 66.40625 20.328125 58.90625 
Q 16.5 51.421875 16.5 36.375 
Q 16.5 21.390625 20.328125 13.890625 
Q 24.171875 6.390625 31.78125 6.390625 
Q 39.453125 6.390625 43.28125 13.890625 
Q 47.125 21.390625 47.125 36.375 
Q 47.125 51.421875 43.28125 58.90625 
Q 39.453125 66.40625 31.78125 66.40625 
z
M 31.78125 74.21875 
Q 44.046875 74.21875 50.515625 64.515625 
Q 56.984375 54.828125 56.984375 36.375 
Q 56.984375 17.96875 50.515625 8.265625 
Q 44.046875 -1.421875 31.78125 -1.421875 
Q 19.53125 -1.421875 13.0625 8.265625 
Q 6.59375 17.96875 6.59375 36.375 
Q 6.59375 54.828125 13.0625 64.515625 
Q 19.53125 74.21875 31.78125 74.21875 
z
" id="DejaVuSans-48"/>
      </defs>
      <g transform="translate(218.316932 644.504838)scale(0.1 -0.1)">
       <use xlink:href="#DejaVuSans-48"/>
      </g>
     </g>
    </g>
    <g id="xtick_2">
     <g id="line2d_3">
      <path clip-path="url(#pefce156824)" d="M 401.772982 629.9064 
L 401.772982 84.9312 
" style="fill:none;stroke:#b0b0b0;stroke-linecap:square;stroke-width:0.8;"/>
     </g>
     <g id="line2d_4">
      <g>
       <use style="stroke:#000000;stroke-width:0.8;" x="401.772982" xlink:href="#m835206b201" y="629.9064"/>
      </g>
     </g>
     <g id="text_2">
      <!-- 100000 -->
      <defs>
       <path d="M 12.40625 8.296875 
L 28.515625 8.296875 
L 28.515625 63.921875 
L 10.984375 60.40625 
L 10.984375 69.390625 
L 28.421875 72.90625 
L 38.28125 72.90625 
L 38.28125 8.296875 
L 54.390625 8.296875 
L 54.390625 0 
L 12.40625 0 
z
" id="DejaVuSans-49"/>
      </defs>
      <g transform="translate(382.685482 644.504838)scale(0.1 -0.1)">
       <use xlink:href="#DejaVuSans-49"/>
       <use x="63.623047" xlink:href="#DejaVuSans-48"/>
       <use x="127.246094" xlink:href="#DejaVuSans-48"/>
       <use x="190.869141" xlink:href="#DejaVuSans-48"/>
       <use x="254.492188" xlink:href="#DejaVuSans-48"/>
       <use x="318.115234" xlink:href="#DejaVuSans-48"/>
      </g>
     </g>
    </g>
    <g id="xtick_3">
     <g id="line2d_5">
      <path clip-path="url(#pefce156824)" d="M 582.047781 629.9064 
L 582.047781 84.9312 
" style="fill:none;stroke:#b0b0b0;stroke-linecap:square;stroke-width:0.8;"/>
     </g>
     <g id="line2d_6">
      <g>
       <use style="stroke:#000000;stroke-width:0.8;" x="582.047781" xlink:href="#m835206b201" y="629.9064"/>
      </g>
     </g>
     <g id="text_3">
      <!-- 200000 -->
      <defs>
       <path d="M 19.1875 8.296875 
L 53.609375 8.296875 
L 53.609375 0 
L 7.328125 0 
L 7.328125 8.296875 
Q 12.9375 14.109375 22.625 23.890625 
Q 32.328125 33.6875 34.8125 36.53125 
Q 39.546875 41.84375 41.421875 45.53125 
Q 43.3125 49.21875 43.3125 52.78125 
Q 43.3125 58.59375 39.234375 62.25 
Q 35.15625 65.921875 28.609375 65.921875 
Q 23.96875 65.921875 18.8125 64.3125 
Q 13.671875 62.703125 7.8125 59.421875 
L 7.8125 69.390625 
Q 13.765625 71.78125 18.9375 73 
Q 24.125 74.21875 28.421875 74.21875 
Q 39.75 74.21875 46.484375 68.546875 
Q 53.21875 62.890625 53.21875 53.421875 
Q 53.21875 48.921875 51.53125 44.890625 
Q 49.859375 40.875 45.40625 35.40625 
Q 44.1875 33.984375 37.640625 27.21875 
Q 31.109375 20.453125 19.1875 8.296875 
z
" id="DejaVuSans-50"/>
      </defs>
      <g transform="translate(562.960281 644.504838)scale(0.1 -0.1)">
       <use xlink:href="#DejaVuSans-50"/>
       <use x="63.623047" xlink:href="#DejaVuSans-48"/>
       <use x="127.246094" xlink:href="#DejaVuSans-48"/>
       <use x="190.869141" xlink:href="#DejaVuSans-48"/>
       <use x="254.492188" xlink:href="#DejaVuSans-48"/>
       <use x="318.115234" xlink:href="#DejaVuSans-48"/>
      </g>
     </g>
    </g>
    <g id="xtick_4">
     <g id="line2d_7">
      <path clip-path="url(#pefce156824)" d="M 762.322581 629.9064 
L 762.322581 84.9312 
" style="fill:none;stroke:#b0b0b0;stroke-linecap:square;stroke-width:0.8;"/>
     </g>
     <g id="line2d_8">
      <g>
       <use style="stroke:#000000;stroke-width:0.8;" x="762.322581" xlink:href="#m835206b201" y="629.9064"/>
      </g>
     </g>
     <g id="text_4">
      <!-- 300000 -->
      <defs>
       <path d="M 40.578125 39.3125 
Q 47.65625 37.796875 51.625 33 
Q 55.609375 28.21875 55.609375 21.1875 
Q 55.609375 10.40625 48.1875 4.484375 
Q 40.765625 -1.421875 27.09375 -1.421875 
Q 22.515625 -1.421875 17.65625 -0.515625 
Q 12.796875 0.390625 7.625 2.203125 
L 7.625 11.71875 
Q 11.71875 9.328125 16.59375 8.109375 
Q 21.484375 6.890625 26.8125 6.890625 
Q 36.078125 6.890625 40.9375 10.546875 
Q 45.796875 14.203125 45.796875 21.1875 
Q 45.796875 27.640625 41.28125 31.265625 
Q 36.765625 34.90625 28.71875 34.90625 
L 20.21875 34.90625 
L 20.21875 43.015625 
L 29.109375 43.015625 
Q 36.375 43.015625 40.234375 45.921875 
Q 44.09375 48.828125 44.09375 54.296875 
Q 44.09375 59.90625 40.109375 62.90625 
Q 36.140625 65.921875 28.71875 65.921875 
Q 24.65625 65.921875 20.015625 65.03125 
Q 15.375 64.15625 9.8125 62.3125 
L 9.8125 71.09375 
Q 15.4375 72.65625 20.34375 73.4375 
Q 25.25 74.21875 29.59375 74.21875 
Q 40.828125 74.21875 47.359375 69.109375 
Q 53.90625 64.015625 53.90625 55.328125 
Q 53.90625 49.265625 50.4375 45.09375 
Q 46.96875 40.921875 40.578125 39.3125 
z
" id="DejaVuSans-51"/>
      </defs>
      <g transform="translate(743.235081 644.504838)scale(0.1 -0.1)">
       <use xlink:href="#DejaVuSans-51"/>
       <use x="63.623047" xlink:href="#DejaVuSans-48"/>
       <use x="127.246094" xlink:href="#DejaVuSans-48"/>
       <use x="190.869141" xlink:href="#DejaVuSans-48"/>
       <use x="254.492188" xlink:href="#DejaVuSans-48"/>
       <use x="318.115234" xlink:href="#DejaVuSans-48"/>
      </g>
     </g>
    </g>
    <g id="xtick_5">
     <g id="line2d_9">
      <path clip-path="url(#pefce156824)" d="M 942.597381 629.9064 
L 942.597381 84.9312 
" style="fill:none;stroke:#b0b0b0;stroke-linecap:square;stroke-width:0.8;"/>
     </g>
     <g id="line2d_10">
      <g>
       <use style="stroke:#000000;stroke-width:0.8;" x="942.597381" xlink:href="#m835206b201" y="629.9064"/>
      </g>
     </g>
     <g id="text_5">
      <!-- 400000 -->
      <defs>
       <path d="M 37.796875 64.3125 
L 12.890625 25.390625 
L 37.796875 25.390625 
z
M 35.203125 72.90625 
L 47.609375 72.90625 
L 47.609375 25.390625 
L 58.015625 25.390625 
L 58.015625 17.1875 
L 47.609375 17.1875 
L 47.609375 0 
L 37.796875 0 
L 37.796875 17.1875 
L 4.890625 17.1875 
L 4.890625 26.703125 
z
" id="DejaVuSans-52"/>
      </defs>
      <g transform="translate(923.509881 644.504838)scale(0.1 -0.1)">
       <use xlink:href="#DejaVuSans-52"/>
       <use x="63.623047" xlink:href="#DejaVuSans-48"/>
       <use x="127.246094" xlink:href="#DejaVuSans-48"/>
       <use x="190.869141" xlink:href="#DejaVuSans-48"/>
       <use x="254.492188" xlink:href="#DejaVuSans-48"/>
       <use x="318.115234" xlink:href="#DejaVuSans-48"/>
      </g>
     </g>
    </g>
    <g id="xtick_6">
     <g id="line2d_11">
      <path clip-path="url(#pefce156824)" d="M 1122.87218 629.9064 
L 1122.87218 84.9312 
" style="fill:none;stroke:#b0b0b0;stroke-linecap:square;stroke-width:0.8;"/>
     </g>
     <g id="line2d_12">
      <g>
       <use style="stroke:#000000;stroke-width:0.8;" x="1122.87218" xlink:href="#m835206b201" y="629.9064"/>
      </g>
     </g>
     <g id="text_6">
      <!-- 500000 -->
      <defs>
       <path d="M 10.796875 72.90625 
L 49.515625 72.90625 
L 49.515625 64.59375 
L 19.828125 64.59375 
L 19.828125 46.734375 
Q 21.96875 47.46875 24.109375 47.828125 
Q 26.265625 48.1875 28.421875 48.1875 
Q 40.625 48.1875 47.75 41.5 
Q 54.890625 34.8125 54.890625 23.390625 
Q 54.890625 11.625 47.5625 5.09375 
Q 40.234375 -1.421875 26.90625 -1.421875 
Q 22.3125 -1.421875 17.546875 -0.640625 
Q 12.796875 0.140625 7.71875 1.703125 
L 7.71875 11.625 
Q 12.109375 9.234375 16.796875 8.0625 
Q 21.484375 6.890625 26.703125 6.890625 
Q 35.15625 6.890625 40.078125 11.328125 
Q 45.015625 15.765625 45.015625 23.390625 
Q 45.015625 31 40.078125 35.4375 
Q 35.15625 39.890625 26.703125 39.890625 
Q 22.75 39.890625 18.8125 39.015625 
Q 14.890625 38.140625 10.796875 36.28125 
z
" id="DejaVuSans-53"/>
      </defs>
      <g transform="translate(1103.78468 644.504838)scale(0.1 -0.1)">
       <use xlink:href="#DejaVuSans-53"/>
       <use x="63.623047" xlink:href="#DejaVuSans-48"/>
       <use x="127.246094" xlink:href="#DejaVuSans-48"/>
       <use x="190.869141" xlink:href="#DejaVuSans-48"/>
       <use x="254.492188" xlink:href="#DejaVuSans-48"/>
       <use x="318.115234" xlink:href="#DejaVuSans-48"/>
      </g>
     </g>
    </g>
    <g id="text_7">
     <!-- $\omega^2$ [rad^2/s] -->
     <defs>
      <path d="M 21.390625 -1.421875 
Q 1.125 -1.421875 6.78125 27.59375 
Q 8.984375 39.0625 19.625 54.6875 
L 29.296875 54.6875 
Q 19.234375 39.0625 17 27.34375 
Q 12.796875 6.203125 23.734375 6.203125 
Q 33.84375 6.203125 38.71875 32.46875 
L 47.015625 32.46875 
Q 41.703125 6.0625 51.8125 6.203125 
Q 62.703125 6.296875 66.796875 27.34375 
Q 69.046875 39.0625 65.140625 54.6875 
L 74.8125 54.6875 
Q 79.296875 39.0625 77.09375 27.59375 
Q 71.53125 -1.46875 51.21875 -1.421875 
Q 37.9375 -1.375 39.109375 13.1875 
Q 34.28125 -1.421875 21.390625 -1.421875 
z
" id="DejaVuSans-Oblique-969"/>
      <path id="DejaVuSans-32"/>
      <path d="M 8.59375 75.984375 
L 29.296875 75.984375 
L 29.296875 69 
L 17.578125 69 
L 17.578125 -6.203125 
L 29.296875 -6.203125 
L 29.296875 -13.1875 
L 8.59375 -13.1875 
z
" id="DejaVuSans-91"/>
      <path d="M 41.109375 46.296875 
Q 39.59375 47.171875 37.8125 47.578125 
Q 36.03125 48 33.890625 48 
Q 26.265625 48 22.1875 43.046875 
Q 18.109375 38.09375 18.109375 28.8125 
L 18.109375 0 
L 9.078125 0 
L 9.078125 54.6875 
L 18.109375 54.6875 
L 18.109375 46.1875 
Q 20.953125 51.171875 25.484375 53.578125 
Q 30.03125 56 36.53125 56 
Q 37.453125 56 38.578125 55.875 
Q 39.703125 55.765625 41.0625 55.515625 
z
" id="DejaVuSans-114"/>
      <path d="M 34.28125 27.484375 
Q 23.390625 27.484375 19.1875 25 
Q 14.984375 22.515625 14.984375 16.5 
Q 14.984375 11.71875 18.140625 8.90625 
Q 21.296875 6.109375 26.703125 6.109375 
Q 34.1875 6.109375 38.703125 11.40625 
Q 43.21875 16.703125 43.21875 25.484375 
L 43.21875 27.484375 
z
M 52.203125 31.203125 
L 52.203125 0 
L 43.21875 0 
L 43.21875 8.296875 
Q 40.140625 3.328125 35.546875 0.953125 
Q 30.953125 -1.421875 24.3125 -1.421875 
Q 15.921875 -1.421875 10.953125 3.296875 
Q 6 8.015625 6 15.921875 
Q 6 25.140625 12.171875 29.828125 
Q 18.359375 34.515625 30.609375 34.515625 
L 43.21875 34.515625 
L 43.21875 35.40625 
Q 43.21875 41.609375 39.140625 45 
Q 35.0625 48.390625 27.6875 48.390625 
Q 23 48.390625 18.546875 47.265625 
Q 14.109375 46.140625 10.015625 43.890625 
L 10.015625 52.203125 
Q 14.9375 54.109375 19.578125 55.046875 
Q 24.21875 56 28.609375 56 
Q 40.484375 56 46.34375 49.84375 
Q 52.203125 43.703125 52.203125 31.203125 
z
" id="DejaVuSans-97"/>
      <path d="M 45.40625 46.390625 
L 45.40625 75.984375 
L 54.390625 75.984375 
L 54.390625 0 
L 45.40625 0 
L 45.40625 8.203125 
Q 42.578125 3.328125 38.25 0.953125 
Q 33.9375 -1.421875 27.875 -1.421875 
Q 17.96875 -1.421875 11.734375 6.484375 
Q 5.515625 14.40625 5.515625 27.296875 
Q 5.515625 40.1875 11.734375 48.09375 
Q 17.96875 56 27.875 56 
Q 33.9375 56 38.25 53.625 
Q 42.578125 51.265625 45.40625 46.390625 
z
M 14.796875 27.296875 
Q 14.796875 17.390625 18.875 11.75 
Q 22.953125 6.109375 30.078125 6.109375 
Q 37.203125 6.109375 41.296875 11.75 
Q 45.40625 17.390625 45.40625 27.296875 
Q 45.40625 37.203125 41.296875 42.84375 
Q 37.203125 48.484375 30.078125 48.484375 
Q 22.953125 48.484375 18.875 42.84375 
Q 14.796875 37.203125 14.796875 27.296875 
z
" id="DejaVuSans-100"/>
      <path d="M 46.6875 72.90625 
L 73.1875 45.703125 
L 63.375 45.703125 
L 41.890625 64.984375 
L 20.40625 45.703125 
L 10.59375 45.703125 
L 37.109375 72.90625 
z
" id="DejaVuSans-94"/>
      <path d="M 25.390625 72.90625 
L 33.6875 72.90625 
L 8.296875 -9.28125 
L 0 -9.28125 
z
" id="DejaVuSans-47"/>
      <path d="M 44.28125 53.078125 
L 44.28125 44.578125 
Q 40.484375 46.53125 36.375 47.5 
Q 32.28125 48.484375 27.875 48.484375 
Q 21.1875 48.484375 17.84375 46.4375 
Q 14.5 44.390625 14.5 40.28125 
Q 14.5 37.15625 16.890625 35.375 
Q 19.28125 33.59375 26.515625 31.984375 
L 29.59375 31.296875 
Q 39.15625 29.25 43.1875 25.515625 
Q 47.21875 21.78125 47.21875 15.09375 
Q 47.21875 7.46875 41.1875 3.015625 
Q 35.15625 -1.421875 24.609375 -1.421875 
Q 20.21875 -1.421875 15.453125 -0.5625 
Q 10.6875 0.296875 5.421875 2 
L 5.421875 11.28125 
Q 10.40625 8.6875 15.234375 7.390625 
Q 20.0625 6.109375 24.8125 6.109375 
Q 31.15625 6.109375 34.5625 8.28125 
Q 37.984375 10.453125 37.984375 14.40625 
Q 37.984375 18.0625 35.515625 20.015625 
Q 33.0625 21.96875 24.703125 23.78125 
L 21.578125 24.515625 
Q 13.234375 26.265625 9.515625 29.90625 
Q 5.8125 33.546875 5.8125 39.890625 
Q 5.8125 47.609375 11.28125 51.796875 
Q 16.75 56 26.8125 56 
Q 31.78125 56 36.171875 55.265625 
Q 40.578125 54.546875 44.28125 53.078125 
z
" id="DejaVuSans-115"/>
      <path d="M 30.421875 75.984375 
L 30.421875 -13.1875 
L 9.71875 -13.1875 
L 9.71875 -6.203125 
L 21.390625 -6.203125 
L 21.390625 69 
L 9.71875 69 
L 9.71875 75.984375 
z
" id="DejaVuSans-93"/>
     </defs>
     <g transform="translate(676.23 659.004838)scale(0.1 -0.1)">
      <use transform="translate(0 0.765625)" xlink:href="#DejaVuSans-Oblique-969"/>
      <use transform="translate(88.20638 39.046875)scale(0.7)" xlink:href="#DejaVuSans-50"/>
      <use transform="translate(135.476888 0.765625)" xlink:href="#DejaVuSans-32"/>
      <use transform="translate(167.263997 0.765625)" xlink:href="#DejaVuSans-91"/>
      <use transform="translate(206.277669 0.765625)" xlink:href="#DejaVuSans-114"/>
      <use transform="translate(247.390951 0.765625)" xlink:href="#DejaVuSans-97"/>
      <use transform="translate(308.670247 0.765625)" xlink:href="#DejaVuSans-100"/>
      <use transform="translate(372.14681 0.765625)" xlink:href="#DejaVuSans-94"/>
      <use transform="translate(455.935872 0.765625)" xlink:href="#DejaVuSans-50"/>
      <use transform="translate(519.558919 0.765625)" xlink:href="#DejaVuSans-47"/>
      <use transform="translate(553.250326 0.765625)" xlink:href="#DejaVuSans-115"/>
      <use transform="translate(605.349935 0.765625)" xlink:href="#DejaVuSans-93"/>
     </g>
    </g>
   </g>
   <g id="matplotlib.axis_2">
    <g id="ytick_1">
     <g id="line2d_13">
      <path clip-path="url(#pefce156824)" d="M 172.8 564.077232 
L 1244.16 564.077232 
" style="fill:none;stroke:#b0b0b0;stroke-linecap:square;stroke-width:0.8;"/>
     </g>
     <g id="line2d_14">
      <defs>
       <path d="M 0 0 
L -3.5 0 
" id="m2dcd62920c" style="stroke:#000000;stroke-width:0.8;"/>
      </defs>
      <g>
       <use style="stroke:#000000;stroke-width:0.8;" x="172.8" xlink:href="#m2dcd62920c" y="564.077232"/>
      </g>
     </g>
     <g id="text_8">
      <!-- −4 -->
      <defs>
       <path d="M 10.59375 35.5 
L 73.1875 35.5 
L 73.1875 27.203125 
L 10.59375 27.203125 
z
" id="DejaVuSans-8722"/>
      </defs>
      <g transform="translate(151.057812 567.876451)scale(0.1 -0.1)">
       <use xlink:href="#DejaVuSans-8722"/>
       <use x="83.789062" xlink:href="#DejaVuSans-52"/>
      </g>
     </g>
    </g>
    <g id="ytick_2">
     <g id="line2d_15">
      <path clip-path="url(#pefce156824)" d="M 172.8 494.005949 
L 1244.16 494.005949 
" style="fill:none;stroke:#b0b0b0;stroke-linecap:square;stroke-width:0.8;"/>
     </g>
     <g id="line2d_16">
      <g>
       <use style="stroke:#000000;stroke-width:0.8;" x="172.8" xlink:href="#m2dcd62920c" y="494.005949"/>
      </g>
     </g>
     <g id="text_9">
      <!-- −3 -->
      <g transform="translate(151.057812 497.805168)scale(0.1 -0.1)">
       <use xlink:href="#DejaVuSans-8722"/>
       <use x="83.789062" xlink:href="#DejaVuSans-51"/>
      </g>
     </g>
    </g>
    <g id="ytick_3">
     <g id="line2d_17">
      <path clip-path="url(#pefce156824)" d="M 172.8 423.934666 
L 1244.16 423.934666 
" style="fill:none;stroke:#b0b0b0;stroke-linecap:square;stroke-width:0.8;"/>
     </g>
     <g id="line2d_18">
      <g>
       <use style="stroke:#000000;stroke-width:0.8;" x="172.8" xlink:href="#m2dcd62920c" y="423.934666"/>
      </g>
     </g>
     <g id="text_10">
      <!-- −2 -->
      <g transform="translate(151.057812 427.733885)scale(0.1 -0.1)">
       <use xlink:href="#DejaVuSans-8722"/>
       <use x="83.789062" xlink:href="#DejaVuSans-50"/>
      </g>
     </g>
    </g>
    <g id="ytick_4">
     <g id="line2d_19">
      <path clip-path="url(#pefce156824)" d="M 172.8 353.863383 
L 1244.16 353.863383 
" style="fill:none;stroke:#b0b0b0;stroke-linecap:square;stroke-width:0.8;"/>
     </g>
     <g id="line2d_20">
      <g>
       <use style="stroke:#000000;stroke-width:0.8;" x="172.8" xlink:href="#m2dcd62920c" y="353.863383"/>
      </g>
     </g>
     <g id="text_11">
      <!-- −1 -->
      <g transform="translate(151.057812 357.662602)scale(0.1 -0.1)">
       <use xlink:href="#DejaVuSans-8722"/>
       <use x="83.789062" xlink:href="#DejaVuSans-49"/>
      </g>
     </g>
    </g>
    <g id="ytick_5">
     <g id="line2d_21">
      <path clip-path="url(#pefce156824)" d="M 172.8 283.7921 
L 1244.16 283.7921 
" style="fill:none;stroke:#b0b0b0;stroke-linecap:square;stroke-width:0.8;"/>
     </g>
     <g id="line2d_22">
      <g>
       <use style="stroke:#000000;stroke-width:0.8;" x="172.8" xlink:href="#m2dcd62920c" y="283.7921"/>
      </g>
     </g>
     <g id="text_12">
      <!-- 0 -->
      <g transform="translate(159.4375 287.591319)scale(0.1 -0.1)">
       <use xlink:href="#DejaVuSans-48"/>
      </g>
     </g>
    </g>
    <g id="ytick_6">
     <g id="line2d_23">
      <path clip-path="url(#pefce156824)" d="M 172.8 213.720817 
L 1244.16 213.720817 
" style="fill:none;stroke:#b0b0b0;stroke-linecap:square;stroke-width:0.8;"/>
     </g>
     <g id="line2d_24">
      <g>
       <use style="stroke:#000000;stroke-width:0.8;" x="172.8" xlink:href="#m2dcd62920c" y="213.720817"/>
      </g>
     </g>
     <g id="text_13">
      <!-- 1 -->
      <g transform="translate(159.4375 217.520036)scale(0.1 -0.1)">
       <use xlink:href="#DejaVuSans-49"/>
      </g>
     </g>
    </g>
    <g id="ytick_7">
     <g id="line2d_25">
      <path clip-path="url(#pefce156824)" d="M 172.8 143.649534 
L 1244.16 143.649534 
" style="fill:none;stroke:#b0b0b0;stroke-linecap:square;stroke-width:0.8;"/>
     </g>
     <g id="line2d_26">
      <g>
       <use style="stroke:#000000;stroke-width:0.8;" x="172.8" xlink:href="#m2dcd62920c" y="143.649534"/>
      </g>
     </g>
     <g id="text_14">
      <!-- 2 -->
      <g transform="translate(159.4375 147.448753)scale(0.1 -0.1)">
       <use xlink:href="#DejaVuSans-50"/>
      </g>
     </g>
    </g>
    <g id="text_15">
     <!-- $F$ [N] -->
     <defs>
      <path d="M 16.890625 72.90625 
L 58.6875 72.90625 
L 57.078125 64.59375 
L 25.09375 64.59375 
L 20.90625 43.109375 
L 49.8125 43.109375 
L 48.1875 34.8125 
L 19.28125 34.8125 
L 12.5 0 
L 2.6875 0 
z
" id="DejaVuSans-Oblique-70"/>
      <path d="M 9.8125 72.90625 
L 23.09375 72.90625 
L 55.421875 11.921875 
L 55.421875 72.90625 
L 64.984375 72.90625 
L 64.984375 0 
L 51.703125 0 
L 19.390625 60.984375 
L 19.390625 0 
L 9.8125 0 
z
" id="DejaVuSans-78"/>
     </defs>
     <g transform="translate(144.978125 369.5688)rotate(-90)scale(0.1 -0.1)">
      <use transform="translate(0 0.015625)" xlink:href="#DejaVuSans-Oblique-70"/>
      <use transform="translate(57.519531 0.015625)" xlink:href="#DejaVuSans-32"/>
      <use transform="translate(89.306641 0.015625)" xlink:href="#DejaVuSans-91"/>
      <use transform="translate(128.320312 0.015625)" xlink:href="#DejaVuSans-78"/>
      <use transform="translate(203.125 0.015625)" xlink:href="#DejaVuSans-93"/>
     </g>
    </g>
   </g>
   <g id="line2d_27">
    <defs>
     <path d="M 0 3 
C 0.795609 3 1.55874 2.683901 2.12132 2.12132 
C 2.683901 1.55874 3 0.795609 3 0 
C 3 -0.795609 2.683901 -1.55874 2.12132 -2.12132 
C 1.55874 -2.683901 0.795609 -3 0 -3 
C -0.795609 -3 -1.55874 -2.683901 -2.12132 -2.12132 
C -2.683901 -1.55874 -3 -0.795609 -3 0 
C -3 0.795609 -2.683901 1.55874 -2.12132 2.12132 
C -1.55874 2.683901 -0.795609 3 0 3 
z
" id="ma85d31b4cc" style="stroke:#1f77b4;"/>
    </defs>
    <g clip-path="url(#pefce156824)">
     <use style="fill:#1f77b4;stroke:#1f77b4;" x="221.498182" xlink:href="#ma85d31b4cc" y="283.7921"/>
     <use style="fill:#1f77b4;stroke:#1f77b4;" x="253.484664" xlink:href="#ma85d31b4cc" y="292.7374"/>
     <use style="fill:#1f77b4;stroke:#1f77b4;" x="253.736624" xlink:href="#ma85d31b4cc" y="292.7374"/>
     <use style="fill:#1f77b4;stroke:#1f77b4;" x="254.703088" xlink:href="#ma85d31b4cc" y="292.7374"/>
     <use style="fill:#1f77b4;stroke:#1f77b4;" x="270.600804" xlink:href="#ma85d31b4cc" y="296.866"/>
     <use style="fill:#1f77b4;stroke:#1f77b4;" x="288.9395" xlink:href="#ma85d31b4cc" y="302.3708"/>
     <use style="fill:#1f77b4;stroke:#1f77b4;" x="329.19279" xlink:href="#ma85d31b4cc" y="314.0685"/>
     <use style="fill:#1f77b4;stroke:#1f77b4;" x="411.359027" xlink:href="#ma85d31b4cc" y="341.5925"/>
     <use style="fill:#1f77b4;stroke:#1f77b4;" x="493.898865" xlink:href="#ma85d31b4cc" y="366.3641"/>
     <use style="fill:#1f77b4;stroke:#1f77b4;" x="571.725573" xlink:href="#ma85d31b4cc" y="389.0714"/>
     <use style="fill:#1f77b4;stroke:#1f77b4;" x="700.042829" xlink:href="#ma85d31b4cc" y="437.2384"/>
     <use style="fill:#1f77b4;stroke:#1f77b4;" x="845.012536" xlink:href="#ma85d31b4cc" y="482.653"/>
     <use style="fill:#1f77b4;stroke:#1f77b4;" x="1009.135415" xlink:href="#ma85d31b4cc" y="547.3344"/>
     <use style="fill:#1f77b4;stroke:#1f77b4;" x="1195.461818" xlink:href="#ma85d31b4cc" y="605.1348"/>
    </g>
   </g>
   <g id="line2d_28">
    <path clip-path="url(#pefce156824)" d="M 221.498182 283.7921 
L 231.336198 286.993046 
L 241.174215 290.193993 
L 251.012231 293.394939 
L 260.850248 296.595885 
L 270.688264 299.796832 
L 280.526281 302.997778 
L 290.364298 306.198724 
L 300.202314 309.39967 
L 310.040331 312.600617 
L 319.878347 315.801563 
L 329.716364 319.002509 
L 339.55438 322.203456 
L 349.392397 325.404402 
L 359.230413 328.605348 
L 369.06843 331.806295 
L 378.906446 335.007241 
L 388.744463 338.208187 
L 398.582479 341.409134 
L 408.420496 344.61008 
L 418.258512 347.811026 
L 428.096529 351.011973 
L 437.934545 354.212919 
L 447.772562 357.413865 
L 457.610579 360.614811 
L 467.448595 363.815758 
L 477.286612 367.016704 
L 487.124628 370.21765 
L 496.962645 373.418597 
L 506.800661 376.619543 
L 516.638678 379.820489 
L 526.476694 383.021436 
L 536.314711 386.222382 
L 546.152727 389.423328 
L 555.990744 392.624275 
L 565.82876 395.825221 
L 575.666777 399.026167 
L 585.504793 402.227113 
L 595.34281 405.42806 
L 605.180826 408.629006 
L 615.018843 411.829952 
L 624.85686 415.030899 
L 634.694876 418.231845 
L 644.532893 421.432791 
L 654.370909 424.633738 
L 664.208926 427.834684 
L 674.046942 431.03563 
L 683.884959 434.236577 
L 693.722975 437.437523 
L 703.560992 440.638469 
L 713.399008 443.839416 
L 723.237025 447.040362 
L 733.075041 450.241308 
L 742.913058 453.442254 
L 752.751074 456.643201 
L 762.589091 459.844147 
L 772.427107 463.045093 
L 782.265124 466.24604 
L 792.10314 469.446986 
L 801.941157 472.647932 
L 811.779174 475.848879 
L 821.61719 479.049825 
L 831.455207 482.250771 
L 841.293223 485.451718 
L 851.13124 488.652664 
L 860.969256 491.85361 
L 870.807273 495.054557 
L 880.645289 498.255503 
L 890.483306 501.456449 
L 900.321322 504.657395 
L 910.159339 507.858342 
L 919.997355 511.059288 
L 929.835372 514.260234 
L 939.673388 517.461181 
L 949.511405 520.662127 
L 959.349421 523.863073 
L 969.187438 527.06402 
L 979.025455 530.264966 
L 988.863471 533.465912 
L 998.701488 536.666859 
L 1008.539504 539.867805 
L 1018.377521 543.068751 
L 1028.215537 546.269697 
L 1038.053554 549.470644 
L 1047.89157 552.67159 
L 1057.729587 555.872536 
L 1067.567603 559.073483 
L 1077.40562 562.274429 
L 1087.243636 565.475375 
L 1097.081653 568.676322 
L 1106.919669 571.877268 
L 1116.757686 575.078214 
L 1126.595702 578.279161 
L 1136.433719 581.480107 
L 1146.271736 584.681053 
L 1156.109752 587.882 
L 1165.947769 591.082946 
L 1175.785785 594.283892 
L 1185.623802 597.484838 
L 1195.461818 600.685785 
" style="fill:none;stroke:#1f77b4;stroke-linecap:square;stroke-width:1.5;"/>
   </g>
   <g id="line2d_29">
    <defs>
     <path d="M 0 3 
C 0.795609 3 1.55874 2.683901 2.12132 2.12132 
C 2.683901 1.55874 3 0.795609 3 0 
C 3 -0.795609 2.683901 -1.55874 2.12132 -2.12132 
C 1.55874 -2.683901 0.795609 -3 0 -3 
C -0.795609 -3 -1.55874 -2.683901 -2.12132 -2.12132 
C -2.683901 -1.55874 -3 -0.795609 -3 0 
C -3 0.795609 -2.683901 1.55874 -2.12132 2.12132 
C -1.55874 2.683901 -0.795609 3 0 3 
z
" id="mfe7235a590" style="stroke:#ff7f0e;"/>
    </defs>
    <g clip-path="url(#pefce156824)">
     <use style="fill:#ff7f0e;stroke:#ff7f0e;" x="221.498182" xlink:href="#mfe7235a590" y="283.7921"/>
     <use style="fill:#ff7f0e;stroke:#ff7f0e;" x="253.283808" xlink:href="#mfe7235a590" y="276.9111"/>
     <use style="fill:#ff7f0e;stroke:#ff7f0e;" x="252.883992" xlink:href="#mfe7235a590" y="277.5992"/>
     <use style="fill:#ff7f0e;stroke:#ff7f0e;" x="254.396347" xlink:href="#mfe7235a590" y="276.9111"/>
     <use style="fill:#ff7f0e;stroke:#ff7f0e;" x="269.362452" xlink:href="#mfe7235a590" y="273.4706"/>
     <use style="fill:#ff7f0e;stroke:#ff7f0e;" x="287.920983" xlink:href="#mfe7235a590" y="270.0301"/>
     <use style="fill:#ff7f0e;stroke:#ff7f0e;" x="328.180066" xlink:href="#mfe7235a590" y="264.5253"/>
     <use style="fill:#ff7f0e;stroke:#ff7f0e;" x="405.885192" xlink:href="#mfe7235a590" y="250.7633"/>
     <use style="fill:#ff7f0e;stroke:#ff7f0e;" x="487.189387" xlink:href="#mfe7235a590" y="238.3775"/>
     <use style="fill:#ff7f0e;stroke:#ff7f0e;" x="566.585603" xlink:href="#mfe7235a590" y="223.9274"/>
     <use style="fill:#ff7f0e;stroke:#ff7f0e;" x="689.595838" xlink:href="#mfe7235a590" y="201.9082"/>
     <use style="fill:#ff7f0e;stroke:#ff7f0e;" x="814.962836" xlink:href="#mfe7235a590" y="174.3842"/>
     <use style="fill:#ff7f0e;stroke:#ff7f0e;" x="966.794541" xlink:href="#mfe7235a590" y="138.603"/>
     <use style="fill:#ff7f0e;stroke:#ff7f0e;" x="1145.067072" xlink:href="#mfe7235a590" y="109.7028"/>
    </g>
   </g>
   <g id="line2d_30">
    <path clip-path="url(#pefce156824)" d="M 221.498182 283.7921 
L 230.827161 282.051063 
L 240.156139 280.310027 
L 249.485118 278.56899 
L 258.814097 276.827953 
L 268.143075 275.086916 
L 277.472054 273.34588 
L 286.801033 271.604843 
L 296.130011 269.863806 
L 305.45899 268.12277 
L 314.787969 266.381733 
L 324.116947 264.640696 
L 333.445926 262.89966 
L 342.774905 261.158623 
L 352.103883 259.417586 
L 361.432862 257.676549 
L 370.761841 255.935513 
L 380.090819 254.194476 
L 389.419798 252.453439 
L 398.748777 250.712403 
L 408.077756 248.971366 
L 417.406734 247.230329 
L 426.735713 245.489293 
L 436.064692 243.748256 
L 445.39367 242.007219 
L 454.722649 240.266182 
L 464.051628 238.525146 
L 473.380606 236.784109 
L 482.709585 235.043072 
L 492.038564 233.302036 
L 501.367542 231.560999 
L 510.696521 229.819962 
L 520.0255 228.078926 
L 529.354478 226.337889 
L 538.683457 224.596852 
L 548.012436 222.855815 
L 557.341415 221.114779 
L 566.670393 219.373742 
L 575.999372 217.632705 
L 585.328351 215.891669 
L 594.657329 214.150632 
L 603.986308 212.409595 
L 613.315287 210.668558 
L 622.644265 208.927522 
L 631.973244 207.186485 
L 641.302223 205.445448 
L 650.631201 203.704412 
L 659.96018 201.963375 
L 669.289159 200.222338 
L 678.618137 198.481302 
L 687.947116 196.740265 
L 697.276095 194.999228 
L 706.605074 193.258191 
L 715.934052 191.517155 
L 725.263031 189.776118 
L 734.59201 188.035081 
L 743.920988 186.294045 
L 753.249967 184.553008 
L 762.578946 182.811971 
L 771.907924 181.070935 
L 781.236903 179.329898 
L 790.565882 177.588861 
L 799.89486 175.847824 
L 809.223839 174.106788 
L 818.552818 172.365751 
L 827.881796 170.624714 
L 837.210775 168.883678 
L 846.539754 167.142641 
L 855.868733 165.401604 
L 865.197711 163.660567 
L 874.52669 161.919531 
L 883.855669 160.178494 
L 893.184647 158.437457 
L 902.513626 156.696421 
L 911.842605 154.955384 
L 921.171583 153.214347 
L 930.500562 151.473311 
L 939.829541 149.732274 
L 949.158519 147.991237 
L 958.487498 146.2502 
L 967.816477 144.509164 
L 977.145455 142.768127 
L 986.474434 141.02709 
L 995.803413 139.286054 
L 1005.132391 137.545017 
L 1014.46137 135.80398 
L 1023.790349 134.062944 
L 1033.119328 132.321907 
L 1042.448306 130.58087 
L 1051.777285 128.839833 
L 1061.106264 127.098797 
L 1070.435242 125.35776 
L 1079.764221 123.616723 
L 1089.0932 121.875687 
L 1098.422178 120.13465 
L 1107.751157 118.393613 
L 1117.080136 116.652577 
L 1126.409114 114.91154 
L 1135.738093 113.170503 
L 1145.067072 111.429466 
" style="fill:none;stroke:#ff7f0e;stroke-linecap:square;stroke-width:1.5;"/>
   </g>
   <g id="patch_3">
    <path d="M 172.8 629.9064 
L 172.8 84.9312 
" style="fill:none;stroke:#000000;stroke-linecap:square;stroke-linejoin:miter;stroke-width:0.8;"/>
   </g>
   <g id="patch_4">
    <path d="M 1244.16 629.9064 
L 1244.16 84.9312 
" style="fill:none;stroke:#000000;stroke-linecap:square;stroke-linejoin:miter;stroke-width:0.8;"/>
   </g>
   <g id="patch_5">
    <path d="M 172.8 629.9064 
L 1244.16 629.9064 
" style="fill:none;stroke:#000000;stroke-linecap:square;stroke-linejoin:miter;stroke-width:0.8;"/>
   </g>
   <g id="patch_6">
    <path d="M 172.8 84.9312 
L 1244.16 84.9312 
" style="fill:none;stroke:#000000;stroke-linecap:square;stroke-linejoin:miter;stroke-width:0.8;"/>
   </g>
   <g id="legend_1">
    <g id="patch_7">
     <path d="M 179.8 151.6437 
L 390.579687 151.6437 
Q 392.579687 151.6437 392.579687 149.6437 
L 392.579687 91.9312 
Q 392.579687 89.9312 390.579687 89.9312 
L 179.8 89.9312 
Q 177.8 89.9312 177.8 91.9312 
L 177.8 149.6437 
Q 177.8 151.6437 179.8 151.6437 
z
" style="fill:#ffffff;opacity:0.8;stroke:#cccccc;stroke-linejoin:miter;"/>
    </g>
    <g id="line2d_31"/>
    <g id="line2d_32">
     <g>
      <use style="fill:#1f77b4;stroke:#1f77b4;" x="191.8" xlink:href="#ma85d31b4cc" y="98.029637"/>
     </g>
    </g>
    <g id="text_16">
     <!-- Positive rotation raw -->
     <defs>
      <path d="M 19.671875 64.796875 
L 19.671875 37.40625 
L 32.078125 37.40625 
Q 38.96875 37.40625 42.71875 40.96875 
Q 46.484375 44.53125 46.484375 51.125 
Q 46.484375 57.671875 42.71875 61.234375 
Q 38.96875 64.796875 32.078125 64.796875 
z
M 9.8125 72.90625 
L 32.078125 72.90625 
Q 44.34375 72.90625 50.609375 67.359375 
Q 56.890625 61.8125 56.890625 51.125 
Q 56.890625 40.328125 50.609375 34.8125 
Q 44.34375 29.296875 32.078125 29.296875 
L 19.671875 29.296875 
L 19.671875 0 
L 9.8125 0 
z
" id="DejaVuSans-80"/>
      <path d="M 30.609375 48.390625 
Q 23.390625 48.390625 19.1875 42.75 
Q 14.984375 37.109375 14.984375 27.296875 
Q 14.984375 17.484375 19.15625 11.84375 
Q 23.34375 6.203125 30.609375 6.203125 
Q 37.796875 6.203125 41.984375 11.859375 
Q 46.1875 17.53125 46.1875 27.296875 
Q 46.1875 37.015625 41.984375 42.703125 
Q 37.796875 48.390625 30.609375 48.390625 
z
M 30.609375 56 
Q 42.328125 56 49.015625 48.375 
Q 55.71875 40.765625 55.71875 27.296875 
Q 55.71875 13.875 49.015625 6.21875 
Q 42.328125 -1.421875 30.609375 -1.421875 
Q 18.84375 -1.421875 12.171875 6.21875 
Q 5.515625 13.875 5.515625 27.296875 
Q 5.515625 40.765625 12.171875 48.375 
Q 18.84375 56 30.609375 56 
z
" id="DejaVuSans-111"/>
      <path d="M 9.421875 54.6875 
L 18.40625 54.6875 
L 18.40625 0 
L 9.421875 0 
z
M 9.421875 75.984375 
L 18.40625 75.984375 
L 18.40625 64.59375 
L 9.421875 64.59375 
z
" id="DejaVuSans-105"/>
      <path d="M 18.3125 70.21875 
L 18.3125 54.6875 
L 36.8125 54.6875 
L 36.8125 47.703125 
L 18.3125 47.703125 
L 18.3125 18.015625 
Q 18.3125 11.328125 20.140625 9.421875 
Q 21.96875 7.515625 27.59375 7.515625 
L 36.8125 7.515625 
L 36.8125 0 
L 27.59375 0 
Q 17.1875 0 13.234375 3.875 
Q 9.28125 7.765625 9.28125 18.015625 
L 9.28125 47.703125 
L 2.6875 47.703125 
L 2.6875 54.6875 
L 9.28125 54.6875 
L 9.28125 70.21875 
z
" id="DejaVuSans-116"/>
      <path d="M 2.984375 54.6875 
L 12.5 54.6875 
L 29.59375 8.796875 
L 46.6875 54.6875 
L 56.203125 54.6875 
L 35.6875 0 
L 23.484375 0 
z
" id="DejaVuSans-118"/>
      <path d="M 56.203125 29.59375 
L 56.203125 25.203125 
L 14.890625 25.203125 
Q 15.484375 15.921875 20.484375 11.0625 
Q 25.484375 6.203125 34.421875 6.203125 
Q 39.59375 6.203125 44.453125 7.46875 
Q 49.3125 8.734375 54.109375 11.28125 
L 54.109375 2.78125 
Q 49.265625 0.734375 44.1875 -0.34375 
Q 39.109375 -1.421875 33.890625 -1.421875 
Q 20.796875 -1.421875 13.15625 6.1875 
Q 5.515625 13.8125 5.515625 26.8125 
Q 5.515625 40.234375 12.765625 48.109375 
Q 20.015625 56 32.328125 56 
Q 43.359375 56 49.78125 48.890625 
Q 56.203125 41.796875 56.203125 29.59375 
z
M 47.21875 32.234375 
Q 47.125 39.59375 43.09375 43.984375 
Q 39.0625 48.390625 32.421875 48.390625 
Q 24.90625 48.390625 20.390625 44.140625 
Q 15.875 39.890625 15.1875 32.171875 
z
" id="DejaVuSans-101"/>
      <path d="M 54.890625 33.015625 
L 54.890625 0 
L 45.90625 0 
L 45.90625 32.71875 
Q 45.90625 40.484375 42.875 44.328125 
Q 39.84375 48.1875 33.796875 48.1875 
Q 26.515625 48.1875 22.3125 43.546875 
Q 18.109375 38.921875 18.109375 30.90625 
L 18.109375 0 
L 9.078125 0 
L 9.078125 54.6875 
L 18.109375 54.6875 
L 18.109375 46.1875 
Q 21.34375 51.125 25.703125 53.5625 
Q 30.078125 56 35.796875 56 
Q 45.21875 56 50.046875 50.171875 
Q 54.890625 44.34375 54.890625 33.015625 
z
" id="DejaVuSans-110"/>
      <path d="M 4.203125 54.6875 
L 13.1875 54.6875 
L 24.421875 12.015625 
L 35.59375 54.6875 
L 46.1875 54.6875 
L 57.421875 12.015625 
L 68.609375 54.6875 
L 77.59375 54.6875 
L 63.28125 0 
L 52.6875 0 
L 40.921875 44.828125 
L 29.109375 0 
L 18.5 0 
z
" id="DejaVuSans-119"/>
     </defs>
     <g transform="translate(209.8 101.529637)scale(0.1 -0.1)">
      <use xlink:href="#DejaVuSans-80"/>
      <use x="60.255859" xlink:href="#DejaVuSans-111"/>
      <use x="121.4375" xlink:href="#DejaVuSans-115"/>
      <use x="173.537109" xlink:href="#DejaVuSans-105"/>
      <use x="201.320312" xlink:href="#DejaVuSans-116"/>
      <use x="240.529297" xlink:href="#DejaVuSans-105"/>
      <use x="268.3125" xlink:href="#DejaVuSans-118"/>
      <use x="327.492188" xlink:href="#DejaVuSans-101"/>
      <use x="389.015625" xlink:href="#DejaVuSans-32"/>
      <use x="420.802734" xlink:href="#DejaVuSans-114"/>
      <use x="461.884766" xlink:href="#DejaVuSans-111"/>
      <use x="523.066406" xlink:href="#DejaVuSans-116"/>
      <use x="562.275391" xlink:href="#DejaVuSans-97"/>
      <use x="623.554688" xlink:href="#DejaVuSans-116"/>
      <use x="662.763672" xlink:href="#DejaVuSans-105"/>
      <use x="690.546875" xlink:href="#DejaVuSans-111"/>
      <use x="751.728516" xlink:href="#DejaVuSans-110"/>
      <use x="815.107422" xlink:href="#DejaVuSans-32"/>
      <use x="846.894531" xlink:href="#DejaVuSans-114"/>
      <use x="888.007812" xlink:href="#DejaVuSans-97"/>
      <use x="949.287109" xlink:href="#DejaVuSans-119"/>
     </g>
    </g>
    <g id="line2d_33">
     <path d="M 181.8 112.707762 
L 201.8 112.707762 
" style="fill:none;stroke:#1f77b4;stroke-linecap:square;stroke-width:1.5;"/>
    </g>
    <g id="line2d_34"/>
    <g id="text_17">
     <!-- Positive rotation polyfit: [-8.37e-06] -->
     <defs>
      <path d="M 18.109375 8.203125 
L 18.109375 -20.796875 
L 9.078125 -20.796875 
L 9.078125 54.6875 
L 18.109375 54.6875 
L 18.109375 46.390625 
Q 20.953125 51.265625 25.265625 53.625 
Q 29.59375 56 35.59375 56 
Q 45.5625 56 51.78125 48.09375 
Q 58.015625 40.1875 58.015625 27.296875 
Q 58.015625 14.40625 51.78125 6.484375 
Q 45.5625 -1.421875 35.59375 -1.421875 
Q 29.59375 -1.421875 25.265625 0.953125 
Q 20.953125 3.328125 18.109375 8.203125 
z
M 48.6875 27.296875 
Q 48.6875 37.203125 44.609375 42.84375 
Q 40.53125 48.484375 33.40625 48.484375 
Q 26.265625 48.484375 22.1875 42.84375 
Q 18.109375 37.203125 18.109375 27.296875 
Q 18.109375 17.390625 22.1875 11.75 
Q 26.265625 6.109375 33.40625 6.109375 
Q 40.53125 6.109375 44.609375 11.75 
Q 48.6875 17.390625 48.6875 27.296875 
z
" id="DejaVuSans-112"/>
      <path d="M 9.421875 75.984375 
L 18.40625 75.984375 
L 18.40625 0 
L 9.421875 0 
z
" id="DejaVuSans-108"/>
      <path d="M 32.171875 -5.078125 
Q 28.375 -14.84375 24.75 -17.8125 
Q 21.140625 -20.796875 15.09375 -20.796875 
L 7.90625 -20.796875 
L 7.90625 -13.28125 
L 13.1875 -13.28125 
Q 16.890625 -13.28125 18.9375 -11.515625 
Q 21 -9.765625 23.484375 -3.21875 
L 25.09375 0.875 
L 2.984375 54.6875 
L 12.5 54.6875 
L 29.59375 11.921875 
L 46.6875 54.6875 
L 56.203125 54.6875 
z
" id="DejaVuSans-121"/>
      <path d="M 37.109375 75.984375 
L 37.109375 68.5 
L 28.515625 68.5 
Q 23.6875 68.5 21.796875 66.546875 
Q 19.921875 64.59375 19.921875 59.515625 
L 19.921875 54.6875 
L 34.71875 54.6875 
L 34.71875 47.703125 
L 19.921875 47.703125 
L 19.921875 0 
L 10.890625 0 
L 10.890625 47.703125 
L 2.296875 47.703125 
L 2.296875 54.6875 
L 10.890625 54.6875 
L 10.890625 58.5 
Q 10.890625 67.625 15.140625 71.796875 
Q 19.390625 75.984375 28.609375 75.984375 
z
" id="DejaVuSans-102"/>
      <path d="M 11.71875 12.40625 
L 22.015625 12.40625 
L 22.015625 0 
L 11.71875 0 
z
M 11.71875 51.703125 
L 22.015625 51.703125 
L 22.015625 39.3125 
L 11.71875 39.3125 
z
" id="DejaVuSans-58"/>
      <path d="M 4.890625 31.390625 
L 31.203125 31.390625 
L 31.203125 23.390625 
L 4.890625 23.390625 
z
" id="DejaVuSans-45"/>
      <path d="M 31.78125 34.625 
Q 24.75 34.625 20.71875 30.859375 
Q 16.703125 27.09375 16.703125 20.515625 
Q 16.703125 13.921875 20.71875 10.15625 
Q 24.75 6.390625 31.78125 6.390625 
Q 38.8125 6.390625 42.859375 10.171875 
Q 46.921875 13.96875 46.921875 20.515625 
Q 46.921875 27.09375 42.890625 30.859375 
Q 38.875 34.625 31.78125 34.625 
z
M 21.921875 38.8125 
Q 15.578125 40.375 12.03125 44.71875 
Q 8.5 49.078125 8.5 55.328125 
Q 8.5 64.0625 14.71875 69.140625 
Q 20.953125 74.21875 31.78125 74.21875 
Q 42.671875 74.21875 48.875 69.140625 
Q 55.078125 64.0625 55.078125 55.328125 
Q 55.078125 49.078125 51.53125 44.71875 
Q 48 40.375 41.703125 38.8125 
Q 48.828125 37.15625 52.796875 32.3125 
Q 56.78125 27.484375 56.78125 20.515625 
Q 56.78125 9.90625 50.3125 4.234375 
Q 43.84375 -1.421875 31.78125 -1.421875 
Q 19.734375 -1.421875 13.25 4.234375 
Q 6.78125 9.90625 6.78125 20.515625 
Q 6.78125 27.484375 10.78125 32.3125 
Q 14.796875 37.15625 21.921875 38.8125 
z
M 18.3125 54.390625 
Q 18.3125 48.734375 21.84375 45.5625 
Q 25.390625 42.390625 31.78125 42.390625 
Q 38.140625 42.390625 41.71875 45.5625 
Q 45.3125 48.734375 45.3125 54.390625 
Q 45.3125 60.0625 41.71875 63.234375 
Q 38.140625 66.40625 31.78125 66.40625 
Q 25.390625 66.40625 21.84375 63.234375 
Q 18.3125 60.0625 18.3125 54.390625 
z
" id="DejaVuSans-56"/>
      <path d="M 10.6875 12.40625 
L 21 12.40625 
L 21 0 
L 10.6875 0 
z
" id="DejaVuSans-46"/>
      <path d="M 8.203125 72.90625 
L 55.078125 72.90625 
L 55.078125 68.703125 
L 28.609375 0 
L 18.3125 0 
L 43.21875 64.59375 
L 8.203125 64.59375 
z
" id="DejaVuSans-55"/>
      <path d="M 33.015625 40.375 
Q 26.375 40.375 22.484375 35.828125 
Q 18.609375 31.296875 18.609375 23.390625 
Q 18.609375 15.53125 22.484375 10.953125 
Q 26.375 6.390625 33.015625 6.390625 
Q 39.65625 6.390625 43.53125 10.953125 
Q 47.40625 15.53125 47.40625 23.390625 
Q 47.40625 31.296875 43.53125 35.828125 
Q 39.65625 40.375 33.015625 40.375 
z
M 52.59375 71.296875 
L 52.59375 62.3125 
Q 48.875 64.0625 45.09375 64.984375 
Q 41.3125 65.921875 37.59375 65.921875 
Q 27.828125 65.921875 22.671875 59.328125 
Q 17.53125 52.734375 16.796875 39.40625 
Q 19.671875 43.65625 24.015625 45.921875 
Q 28.375 48.1875 33.59375 48.1875 
Q 44.578125 48.1875 50.953125 41.515625 
Q 57.328125 34.859375 57.328125 23.390625 
Q 57.328125 12.15625 50.6875 5.359375 
Q 44.046875 -1.421875 33.015625 -1.421875 
Q 20.359375 -1.421875 13.671875 8.265625 
Q 6.984375 17.96875 6.984375 36.375 
Q 6.984375 53.65625 15.1875 63.9375 
Q 23.390625 74.21875 37.203125 74.21875 
Q 40.921875 74.21875 44.703125 73.484375 
Q 48.484375 72.75 52.59375 71.296875 
z
" id="DejaVuSans-54"/>
     </defs>
     <g transform="translate(209.8 116.207762)scale(0.1 -0.1)">
      <use xlink:href="#DejaVuSans-80"/>
      <use x="60.255859" xlink:href="#DejaVuSans-111"/>
      <use x="121.4375" xlink:href="#DejaVuSans-115"/>
      <use x="173.537109" xlink:href="#DejaVuSans-105"/>
      <use x="201.320312" xlink:href="#DejaVuSans-116"/>
      <use x="240.529297" xlink:href="#DejaVuSans-105"/>
      <use x="268.3125" xlink:href="#DejaVuSans-118"/>
      <use x="327.492188" xlink:href="#DejaVuSans-101"/>
      <use x="389.015625" xlink:href="#DejaVuSans-32"/>
      <use x="420.802734" xlink:href="#DejaVuSans-114"/>
      <use x="461.884766" xlink:href="#DejaVuSans-111"/>
      <use x="523.066406" xlink:href="#DejaVuSans-116"/>
      <use x="562.275391" xlink:href="#DejaVuSans-97"/>
      <use x="623.554688" xlink:href="#DejaVuSans-116"/>
      <use x="662.763672" xlink:href="#DejaVuSans-105"/>
      <use x="690.546875" xlink:href="#DejaVuSans-111"/>
      <use x="751.728516" xlink:href="#DejaVuSans-110"/>
      <use x="815.107422" xlink:href="#DejaVuSans-32"/>
      <use x="846.894531" xlink:href="#DejaVuSans-112"/>
      <use x="910.371094" xlink:href="#DejaVuSans-111"/>
      <use x="971.552734" xlink:href="#DejaVuSans-108"/>
      <use x="999.335938" xlink:href="#DejaVuSans-121"/>
      <use x="1058.515625" xlink:href="#DejaVuSans-102"/>
      <use x="1093.720703" xlink:href="#DejaVuSans-105"/>
      <use x="1121.503906" xlink:href="#DejaVuSans-116"/>
      <use x="1160.712891" xlink:href="#DejaVuSans-58"/>
      <use x="1194.404297" xlink:href="#DejaVuSans-32"/>
      <use x="1226.191406" xlink:href="#DejaVuSans-91"/>
      <use x="1265.205078" xlink:href="#DejaVuSans-45"/>
      <use x="1301.289062" xlink:href="#DejaVuSans-56"/>
      <use x="1364.912109" xlink:href="#DejaVuSans-46"/>
      <use x="1396.699219" xlink:href="#DejaVuSans-51"/>
      <use x="1460.322266" xlink:href="#DejaVuSans-55"/>
      <use x="1523.945312" xlink:href="#DejaVuSans-101"/>
      <use x="1585.46875" xlink:href="#DejaVuSans-45"/>
      <use x="1621.552734" xlink:href="#DejaVuSans-48"/>
      <use x="1685.175781" xlink:href="#DejaVuSans-54"/>
      <use x="1748.798828" xlink:href="#DejaVuSans-93"/>
     </g>
    </g>
    <g id="line2d_35"/>
    <g id="line2d_36">
     <g>
      <use style="fill:#ff7f0e;stroke:#ff7f0e;" x="191.8" xlink:href="#mfe7235a590" y="127.385887"/>
     </g>
    </g>
    <g id="text_18">
     <!-- Negative rotation raw -->
     <defs>
      <path d="M 45.40625 27.984375 
Q 45.40625 37.75 41.375 43.109375 
Q 37.359375 48.484375 30.078125 48.484375 
Q 22.859375 48.484375 18.828125 43.109375 
Q 14.796875 37.75 14.796875 27.984375 
Q 14.796875 18.265625 18.828125 12.890625 
Q 22.859375 7.515625 30.078125 7.515625 
Q 37.359375 7.515625 41.375 12.890625 
Q 45.40625 18.265625 45.40625 27.984375 
z
M 54.390625 6.78125 
Q 54.390625 -7.171875 48.1875 -13.984375 
Q 42 -20.796875 29.203125 -20.796875 
Q 24.46875 -20.796875 20.265625 -20.09375 
Q 16.0625 -19.390625 12.109375 -17.921875 
L 12.109375 -9.1875 
Q 16.0625 -11.328125 19.921875 -12.34375 
Q 23.78125 -13.375 27.78125 -13.375 
Q 36.625 -13.375 41.015625 -8.765625 
Q 45.40625 -4.15625 45.40625 5.171875 
L 45.40625 9.625 
Q 42.625 4.78125 38.28125 2.390625 
Q 33.9375 0 27.875 0 
Q 17.828125 0 11.671875 7.65625 
Q 5.515625 15.328125 5.515625 27.984375 
Q 5.515625 40.671875 11.671875 48.328125 
Q 17.828125 56 27.875 56 
Q 33.9375 56 38.28125 53.609375 
Q 42.625 51.21875 45.40625 46.390625 
L 45.40625 54.6875 
L 54.390625 54.6875 
z
" id="DejaVuSans-103"/>
     </defs>
     <g transform="translate(209.8 130.885887)scale(0.1 -0.1)">
      <use xlink:href="#DejaVuSans-78"/>
      <use x="74.804688" xlink:href="#DejaVuSans-101"/>
      <use x="136.328125" xlink:href="#DejaVuSans-103"/>
      <use x="199.804688" xlink:href="#DejaVuSans-97"/>
      <use x="261.083984" xlink:href="#DejaVuSans-116"/>
      <use x="300.292969" xlink:href="#DejaVuSans-105"/>
      <use x="328.076172" xlink:href="#DejaVuSans-118"/>
      <use x="387.255859" xlink:href="#DejaVuSans-101"/>
      <use x="448.779297" xlink:href="#DejaVuSans-32"/>
      <use x="480.566406" xlink:href="#DejaVuSans-114"/>
      <use x="521.648438" xlink:href="#DejaVuSans-111"/>
      <use x="582.830078" xlink:href="#DejaVuSans-116"/>
      <use x="622.039062" xlink:href="#DejaVuSans-97"/>
      <use x="683.318359" xlink:href="#DejaVuSans-116"/>
      <use x="722.527344" xlink:href="#DejaVuSans-105"/>
      <use x="750.310547" xlink:href="#DejaVuSans-111"/>
      <use x="811.492188" xlink:href="#DejaVuSans-110"/>
      <use x="874.871094" xlink:href="#DejaVuSans-32"/>
      <use x="906.658203" xlink:href="#DejaVuSans-114"/>
      <use x="947.771484" xlink:href="#DejaVuSans-97"/>
      <use x="1009.050781" xlink:href="#DejaVuSans-119"/>
     </g>
    </g>
    <g id="line2d_37">
     <path d="M 181.8 142.064012 
L 201.8 142.064012 
" style="fill:none;stroke:#ff7f0e;stroke-linecap:square;stroke-width:1.5;"/>
    </g>
    <g id="line2d_38"/>
    <g id="text_19">
     <!-- Negative rotation polyfit: [4.8e-06] -->
     <g transform="translate(209.8 145.564012)scale(0.1 -0.1)">
      <use xlink:href="#DejaVuSans-78"/>
      <use x="74.804688" xlink:href="#DejaVuSans-101"/>
      <use x="136.328125" xlink:href="#DejaVuSans-103"/>
      <use x="199.804688" xlink:href="#DejaVuSans-97"/>
      <use x="261.083984" xlink:href="#DejaVuSans-116"/>
      <use x="300.292969" xlink:href="#DejaVuSans-105"/>
      <use x="328.076172" xlink:href="#DejaVuSans-118"/>
      <use x="387.255859" xlink:href="#DejaVuSans-101"/>
      <use x="448.779297" xlink:href="#DejaVuSans-32"/>
      <use x="480.566406" xlink:href="#DejaVuSans-114"/>
      <use x="521.648438" xlink:href="#DejaVuSans-111"/>
      <use x="582.830078" xlink:href="#DejaVuSans-116"/>
      <use x="622.039062" xlink:href="#DejaVuSans-97"/>
      <use x="683.318359" xlink:href="#DejaVuSans-116"/>
      <use x="722.527344" xlink:href="#DejaVuSans-105"/>
      <use x="750.310547" xlink:href="#DejaVuSans-111"/>
      <use x="811.492188" xlink:href="#DejaVuSans-110"/>
      <use x="874.871094" xlink:href="#DejaVuSans-32"/>
      <use x="906.658203" xlink:href="#DejaVuSans-112"/>
      <use x="970.134766" xlink:href="#DejaVuSans-111"/>
      <use x="1031.316406" xlink:href="#DejaVuSans-108"/>
      <use x="1059.099609" xlink:href="#DejaVuSans-121"/>
      <use x="1118.279297" xlink:href="#DejaVuSans-102"/>
      <use x="1153.484375" xlink:href="#DejaVuSans-105"/>
      <use x="1181.267578" xlink:href="#DejaVuSans-116"/>
      <use x="1220.476562" xlink:href="#DejaVuSans-58"/>
      <use x="1254.167969" xlink:href="#DejaVuSans-32"/>
      <use x="1285.955078" xlink:href="#DejaVuSans-91"/>
      <use x="1324.96875" xlink:href="#DejaVuSans-52"/>
      <use x="1388.591797" xlink:href="#DejaVuSans-46"/>
      <use x="1420.378906" xlink:href="#DejaVuSans-56"/>
      <use x="1484.001953" xlink:href="#DejaVuSans-101"/>
      <use x="1545.525391" xlink:href="#DejaVuSans-45"/>
      <use x="1581.609375" xlink:href="#DejaVuSans-48"/>
      <use x="1645.232422" xlink:href="#DejaVuSans-54"/>
      <use x="1708.855469" xlink:href="#DejaVuSans-93"/>
     </g>
    </g>
   </g>
  </g>
 </g>
 <defs>
  <clipPath id="pefce156824">
   <rect height="544.9752" width="1071.36" x="172.8" y="84.9312"/>
  </clipPath>
 </defs>
</svg>
