<?xml version="1.0" encoding="utf-8" standalone="no"?>
<!DOCTYPE svg PUBLIC "-//W3C//DTD SVG 1.1//EN"
  "http://www.w3.org/Graphics/SVG/1.1/DTD/svg11.dtd">
<svg xmlns:xlink="http://www.w3.org/1999/xlink" width="1058.4pt" height="636.48pt" viewBox="0 0 1058.4 636.48" xmlns="http://www.w3.org/2000/svg" version="1.1">
 <metadata>
  <rdf:RDF xmlns:dc="http://purl.org/dc/elements/1.1/" xmlns:cc="http://creativecommons.org/ns#" xmlns:rdf="http://www.w3.org/1999/02/22-rdf-syntax-ns#">
   <cc:Work>
    <dc:type rdf:resource="http://purl.org/dc/dcmitype/StillImage"/>
    <dc:date>2023-06-07T21:24:21.131194</dc:date>
    <dc:format>image/svg+xml</dc:format>
    <dc:creator>
     <cc:Agent>
      <dc:title>Matplotlib v3.6.2, https://matplotlib.org/</dc:title>
     </cc:Agent>
    </dc:creator>
   </cc:Work>
  </rdf:RDF>
 </metadata>
 <defs>
  <style type="text/css">*{stroke-linejoin: round; stroke-linecap: butt}</style>
 </defs>
 <g id="figure_1">
  <g id="patch_1">
   <path d="M 0 636.48 
L 1058.4 636.48 
L 1058.4 0 
L 0 0 
z
" style="fill: #ffffff"/>
  </g>
  <g id="axes_1">
   <g id="patch_2">
    <path d="M 132.3 566.4672 
L 952.56 566.4672 
L 952.56 76.3776 
L 132.3 76.3776 
z
" style="fill: #ffffff"/>
   </g>
   <g id="matplotlib.axis_1">
    <g id="xtick_1">
     <g id="line2d_1">
      <path d="M 169.584545 566.4672 
L 169.584545 76.3776 
" clip-path="url(#pbe8dd5d0fa)" style="fill: none; stroke: #b0b0b0; stroke-width: 0.8; stroke-linecap: square"/>
     </g>
     <g id="line2d_2">
      <defs>
       <path id="mb6adfd206c" d="M 0 0 
L 0 3.5 
" style="stroke: #000000; stroke-width: 0.8"/>
      </defs>
      <g>
       <use xlink:href="#mb6adfd206c" x="169.584545" y="566.4672" style="stroke: #000000; stroke-width: 0.8"/>
      </g>
     </g>
     <g id="text_1">
      <!-- 0 -->
      <g transform="translate(166.403295 581.065637) scale(0.1 -0.1)">
       <defs>
        <path id="DejaVuSans-30" d="M 2034 4250 
Q 1547 4250 1301 3770 
Q 1056 3291 1056 2328 
Q 1056 1369 1301 889 
Q 1547 409 2034 409 
Q 2525 409 2770 889 
Q 3016 1369 3016 2328 
Q 3016 3291 2770 3770 
Q 2525 4250 2034 4250 
z
M 2034 4750 
Q 2819 4750 3233 4129 
Q 3647 3509 3647 2328 
Q 3647 1150 3233 529 
Q 2819 -91 2034 -91 
Q 1250 -91 836 529 
Q 422 1150 422 2328 
Q 422 3509 836 4129 
Q 1250 4750 2034 4750 
z
" transform="scale(0.015625)"/>
       </defs>
       <use xlink:href="#DejaVuSans-30"/>
      </g>
     </g>
    </g>
    <g id="xtick_2">
     <g id="line2d_3">
      <path d="M 273.559018 566.4672 
L 273.559018 76.3776 
" clip-path="url(#pbe8dd5d0fa)" style="fill: none; stroke: #b0b0b0; stroke-width: 0.8; stroke-linecap: square"/>
     </g>
     <g id="line2d_4">
      <g>
       <use xlink:href="#mb6adfd206c" x="273.559018" y="566.4672" style="stroke: #000000; stroke-width: 0.8"/>
      </g>
     </g>
     <g id="text_2">
      <!-- 100000 -->
      <g transform="translate(254.471518 581.065637) scale(0.1 -0.1)">
       <defs>
        <path id="DejaVuSans-31" d="M 794 531 
L 1825 531 
L 1825 4091 
L 703 3866 
L 703 4441 
L 1819 4666 
L 2450 4666 
L 2450 531 
L 3481 531 
L 3481 0 
L 794 0 
L 794 531 
z
" transform="scale(0.015625)"/>
       </defs>
       <use xlink:href="#DejaVuSans-31"/>
       <use xlink:href="#DejaVuSans-30" x="63.623047"/>
       <use xlink:href="#DejaVuSans-30" x="127.246094"/>
       <use xlink:href="#DejaVuSans-30" x="190.869141"/>
       <use xlink:href="#DejaVuSans-30" x="254.492188"/>
       <use xlink:href="#DejaVuSans-30" x="318.115234"/>
      </g>
     </g>
    </g>
    <g id="xtick_3">
     <g id="line2d_5">
      <path d="M 377.533491 566.4672 
L 377.533491 76.3776 
" clip-path="url(#pbe8dd5d0fa)" style="fill: none; stroke: #b0b0b0; stroke-width: 0.8; stroke-linecap: square"/>
     </g>
     <g id="line2d_6">
      <g>
       <use xlink:href="#mb6adfd206c" x="377.533491" y="566.4672" style="stroke: #000000; stroke-width: 0.8"/>
      </g>
     </g>
     <g id="text_3">
      <!-- 200000 -->
      <g transform="translate(358.445991 581.065637) scale(0.1 -0.1)">
       <defs>
        <path id="DejaVuSans-32" d="M 1228 531 
L 3431 531 
L 3431 0 
L 469 0 
L 469 531 
Q 828 903 1448 1529 
Q 2069 2156 2228 2338 
Q 2531 2678 2651 2914 
Q 2772 3150 2772 3378 
Q 2772 3750 2511 3984 
Q 2250 4219 1831 4219 
Q 1534 4219 1204 4116 
Q 875 4013 500 3803 
L 500 4441 
Q 881 4594 1212 4672 
Q 1544 4750 1819 4750 
Q 2544 4750 2975 4387 
Q 3406 4025 3406 3419 
Q 3406 3131 3298 2873 
Q 3191 2616 2906 2266 
Q 2828 2175 2409 1742 
Q 1991 1309 1228 531 
z
" transform="scale(0.015625)"/>
       </defs>
       <use xlink:href="#DejaVuSans-32"/>
       <use xlink:href="#DejaVuSans-30" x="63.623047"/>
       <use xlink:href="#DejaVuSans-30" x="127.246094"/>
       <use xlink:href="#DejaVuSans-30" x="190.869141"/>
       <use xlink:href="#DejaVuSans-30" x="254.492188"/>
       <use xlink:href="#DejaVuSans-30" x="318.115234"/>
      </g>
     </g>
    </g>
    <g id="xtick_4">
     <g id="line2d_7">
      <path d="M 481.507963 566.4672 
L 481.507963 76.3776 
" clip-path="url(#pbe8dd5d0fa)" style="fill: none; stroke: #b0b0b0; stroke-width: 0.8; stroke-linecap: square"/>
     </g>
     <g id="line2d_8">
      <g>
       <use xlink:href="#mb6adfd206c" x="481.507963" y="566.4672" style="stroke: #000000; stroke-width: 0.8"/>
      </g>
     </g>
     <g id="text_4">
      <!-- 300000 -->
      <g transform="translate(462.420463 581.065637) scale(0.1 -0.1)">
       <defs>
        <path id="DejaVuSans-33" d="M 2597 2516 
Q 3050 2419 3304 2112 
Q 3559 1806 3559 1356 
Q 3559 666 3084 287 
Q 2609 -91 1734 -91 
Q 1441 -91 1130 -33 
Q 819 25 488 141 
L 488 750 
Q 750 597 1062 519 
Q 1375 441 1716 441 
Q 2309 441 2620 675 
Q 2931 909 2931 1356 
Q 2931 1769 2642 2001 
Q 2353 2234 1838 2234 
L 1294 2234 
L 1294 2753 
L 1863 2753 
Q 2328 2753 2575 2939 
Q 2822 3125 2822 3475 
Q 2822 3834 2567 4026 
Q 2313 4219 1838 4219 
Q 1578 4219 1281 4162 
Q 984 4106 628 3988 
L 628 4550 
Q 988 4650 1302 4700 
Q 1616 4750 1894 4750 
Q 2613 4750 3031 4423 
Q 3450 4097 3450 3541 
Q 3450 3153 3228 2886 
Q 3006 2619 2597 2516 
z
" transform="scale(0.015625)"/>
       </defs>
       <use xlink:href="#DejaVuSans-33"/>
       <use xlink:href="#DejaVuSans-30" x="63.623047"/>
       <use xlink:href="#DejaVuSans-30" x="127.246094"/>
       <use xlink:href="#DejaVuSans-30" x="190.869141"/>
       <use xlink:href="#DejaVuSans-30" x="254.492188"/>
       <use xlink:href="#DejaVuSans-30" x="318.115234"/>
      </g>
     </g>
    </g>
    <g id="xtick_5">
     <g id="line2d_9">
      <path d="M 585.482436 566.4672 
L 585.482436 76.3776 
" clip-path="url(#pbe8dd5d0fa)" style="fill: none; stroke: #b0b0b0; stroke-width: 0.8; stroke-linecap: square"/>
     </g>
     <g id="line2d_10">
      <g>
       <use xlink:href="#mb6adfd206c" x="585.482436" y="566.4672" style="stroke: #000000; stroke-width: 0.8"/>
      </g>
     </g>
     <g id="text_5">
      <!-- 400000 -->
      <g transform="translate(566.394936 581.065637) scale(0.1 -0.1)">
       <defs>
        <path id="DejaVuSans-34" d="M 2419 4116 
L 825 1625 
L 2419 1625 
L 2419 4116 
z
M 2253 4666 
L 3047 4666 
L 3047 1625 
L 3713 1625 
L 3713 1100 
L 3047 1100 
L 3047 0 
L 2419 0 
L 2419 1100 
L 313 1100 
L 313 1709 
L 2253 4666 
z
" transform="scale(0.015625)"/>
       </defs>
       <use xlink:href="#DejaVuSans-34"/>
       <use xlink:href="#DejaVuSans-30" x="63.623047"/>
       <use xlink:href="#DejaVuSans-30" x="127.246094"/>
       <use xlink:href="#DejaVuSans-30" x="190.869141"/>
       <use xlink:href="#DejaVuSans-30" x="254.492188"/>
       <use xlink:href="#DejaVuSans-30" x="318.115234"/>
      </g>
     </g>
    </g>
    <g id="xtick_6">
     <g id="line2d_11">
      <path d="M 689.456909 566.4672 
L 689.456909 76.3776 
" clip-path="url(#pbe8dd5d0fa)" style="fill: none; stroke: #b0b0b0; stroke-width: 0.8; stroke-linecap: square"/>
     </g>
     <g id="line2d_12">
      <g>
       <use xlink:href="#mb6adfd206c" x="689.456909" y="566.4672" style="stroke: #000000; stroke-width: 0.8"/>
      </g>
     </g>
     <g id="text_6">
      <!-- 500000 -->
      <g transform="translate(670.369409 581.065637) scale(0.1 -0.1)">
       <defs>
        <path id="DejaVuSans-35" d="M 691 4666 
L 3169 4666 
L 3169 4134 
L 1269 4134 
L 1269 2991 
Q 1406 3038 1543 3061 
Q 1681 3084 1819 3084 
Q 2600 3084 3056 2656 
Q 3513 2228 3513 1497 
Q 3513 744 3044 326 
Q 2575 -91 1722 -91 
Q 1428 -91 1123 -41 
Q 819 9 494 109 
L 494 744 
Q 775 591 1075 516 
Q 1375 441 1709 441 
Q 2250 441 2565 725 
Q 2881 1009 2881 1497 
Q 2881 1984 2565 2268 
Q 2250 2553 1709 2553 
Q 1456 2553 1204 2497 
Q 953 2441 691 2322 
L 691 4666 
z
" transform="scale(0.015625)"/>
       </defs>
       <use xlink:href="#DejaVuSans-35"/>
       <use xlink:href="#DejaVuSans-30" x="63.623047"/>
       <use xlink:href="#DejaVuSans-30" x="127.246094"/>
       <use xlink:href="#DejaVuSans-30" x="190.869141"/>
       <use xlink:href="#DejaVuSans-30" x="254.492188"/>
       <use xlink:href="#DejaVuSans-30" x="318.115234"/>
      </g>
     </g>
    </g>
    <g id="xtick_7">
     <g id="line2d_13">
      <path d="M 793.431381 566.4672 
L 793.431381 76.3776 
" clip-path="url(#pbe8dd5d0fa)" style="fill: none; stroke: #b0b0b0; stroke-width: 0.8; stroke-linecap: square"/>
     </g>
     <g id="line2d_14">
      <g>
       <use xlink:href="#mb6adfd206c" x="793.431381" y="566.4672" style="stroke: #000000; stroke-width: 0.8"/>
      </g>
     </g>
     <g id="text_7">
      <!-- 600000 -->
      <g transform="translate(774.343881 581.065637) scale(0.1 -0.1)">
       <defs>
        <path id="DejaVuSans-36" d="M 2113 2584 
Q 1688 2584 1439 2293 
Q 1191 2003 1191 1497 
Q 1191 994 1439 701 
Q 1688 409 2113 409 
Q 2538 409 2786 701 
Q 3034 994 3034 1497 
Q 3034 2003 2786 2293 
Q 2538 2584 2113 2584 
z
M 3366 4563 
L 3366 3988 
Q 3128 4100 2886 4159 
Q 2644 4219 2406 4219 
Q 1781 4219 1451 3797 
Q 1122 3375 1075 2522 
Q 1259 2794 1537 2939 
Q 1816 3084 2150 3084 
Q 2853 3084 3261 2657 
Q 3669 2231 3669 1497 
Q 3669 778 3244 343 
Q 2819 -91 2113 -91 
Q 1303 -91 875 529 
Q 447 1150 447 2328 
Q 447 3434 972 4092 
Q 1497 4750 2381 4750 
Q 2619 4750 2861 4703 
Q 3103 4656 3366 4563 
z
" transform="scale(0.015625)"/>
       </defs>
       <use xlink:href="#DejaVuSans-36"/>
       <use xlink:href="#DejaVuSans-30" x="63.623047"/>
       <use xlink:href="#DejaVuSans-30" x="127.246094"/>
       <use xlink:href="#DejaVuSans-30" x="190.869141"/>
       <use xlink:href="#DejaVuSans-30" x="254.492188"/>
       <use xlink:href="#DejaVuSans-30" x="318.115234"/>
      </g>
     </g>
    </g>
    <g id="xtick_8">
     <g id="line2d_15">
      <path d="M 897.405854 566.4672 
L 897.405854 76.3776 
" clip-path="url(#pbe8dd5d0fa)" style="fill: none; stroke: #b0b0b0; stroke-width: 0.8; stroke-linecap: square"/>
     </g>
     <g id="line2d_16">
      <g>
       <use xlink:href="#mb6adfd206c" x="897.405854" y="566.4672" style="stroke: #000000; stroke-width: 0.8"/>
      </g>
     </g>
     <g id="text_8">
      <!-- 700000 -->
      <g transform="translate(878.318354 581.065637) scale(0.1 -0.1)">
       <defs>
        <path id="DejaVuSans-37" d="M 525 4666 
L 3525 4666 
L 3525 4397 
L 1831 0 
L 1172 0 
L 2766 4134 
L 525 4134 
L 525 4666 
z
" transform="scale(0.015625)"/>
       </defs>
       <use xlink:href="#DejaVuSans-37"/>
       <use xlink:href="#DejaVuSans-30" x="63.623047"/>
       <use xlink:href="#DejaVuSans-30" x="127.246094"/>
       <use xlink:href="#DejaVuSans-30" x="190.869141"/>
       <use xlink:href="#DejaVuSans-30" x="254.492188"/>
       <use xlink:href="#DejaVuSans-30" x="318.115234"/>
      </g>
     </g>
    </g>
    <g id="text_9">
     <!-- $\omega^2$ [rad^2/s] -->
     <g transform="translate(510.18 595.565637) scale(0.1 -0.1)">
      <defs>
       <path id="DejaVuSans-Oblique-3c9" d="M 1369 -91 
Q 72 -91 434 1766 
Q 575 2500 1256 3500 
L 1875 3500 
Q 1231 2500 1088 1750 
Q 819 397 1519 397 
Q 2166 397 2478 2078 
L 3009 2078 
Q 2669 388 3316 397 
Q 4013 403 4275 1750 
Q 4419 2500 4169 3500 
L 4788 3500 
Q 5075 2500 4934 1766 
Q 4578 -94 3278 -91 
Q 2428 -88 2503 844 
Q 2194 -91 1369 -91 
z
" transform="scale(0.015625)"/>
       <path id="DejaVuSans-20" transform="scale(0.015625)"/>
       <path id="DejaVuSans-5b" d="M 550 4863 
L 1875 4863 
L 1875 4416 
L 1125 4416 
L 1125 -397 
L 1875 -397 
L 1875 -844 
L 550 -844 
L 550 4863 
z
" transform="scale(0.015625)"/>
       <path id="DejaVuSans-72" d="M 2631 2963 
Q 2534 3019 2420 3045 
Q 2306 3072 2169 3072 
Q 1681 3072 1420 2755 
Q 1159 2438 1159 1844 
L 1159 0 
L 581 0 
L 581 3500 
L 1159 3500 
L 1159 2956 
Q 1341 3275 1631 3429 
Q 1922 3584 2338 3584 
Q 2397 3584 2469 3576 
Q 2541 3569 2628 3553 
L 2631 2963 
z
" transform="scale(0.015625)"/>
       <path id="DejaVuSans-61" d="M 2194 1759 
Q 1497 1759 1228 1600 
Q 959 1441 959 1056 
Q 959 750 1161 570 
Q 1363 391 1709 391 
Q 2188 391 2477 730 
Q 2766 1069 2766 1631 
L 2766 1759 
L 2194 1759 
z
M 3341 1997 
L 3341 0 
L 2766 0 
L 2766 531 
Q 2569 213 2275 61 
Q 1981 -91 1556 -91 
Q 1019 -91 701 211 
Q 384 513 384 1019 
Q 384 1609 779 1909 
Q 1175 2209 1959 2209 
L 2766 2209 
L 2766 2266 
Q 2766 2663 2505 2880 
Q 2244 3097 1772 3097 
Q 1472 3097 1187 3025 
Q 903 2953 641 2809 
L 641 3341 
Q 956 3463 1253 3523 
Q 1550 3584 1831 3584 
Q 2591 3584 2966 3190 
Q 3341 2797 3341 1997 
z
" transform="scale(0.015625)"/>
       <path id="DejaVuSans-64" d="M 2906 2969 
L 2906 4863 
L 3481 4863 
L 3481 0 
L 2906 0 
L 2906 525 
Q 2725 213 2448 61 
Q 2172 -91 1784 -91 
Q 1150 -91 751 415 
Q 353 922 353 1747 
Q 353 2572 751 3078 
Q 1150 3584 1784 3584 
Q 2172 3584 2448 3432 
Q 2725 3281 2906 2969 
z
M 947 1747 
Q 947 1113 1208 752 
Q 1469 391 1925 391 
Q 2381 391 2643 752 
Q 2906 1113 2906 1747 
Q 2906 2381 2643 2742 
Q 2381 3103 1925 3103 
Q 1469 3103 1208 2742 
Q 947 2381 947 1747 
z
" transform="scale(0.015625)"/>
       <path id="DejaVuSans-5e" d="M 2988 4666 
L 4684 2925 
L 4056 2925 
L 2681 4159 
L 1306 2925 
L 678 2925 
L 2375 4666 
L 2988 4666 
z
" transform="scale(0.015625)"/>
       <path id="DejaVuSans-2f" d="M 1625 4666 
L 2156 4666 
L 531 -594 
L 0 -594 
L 1625 4666 
z
" transform="scale(0.015625)"/>
       <path id="DejaVuSans-73" d="M 2834 3397 
L 2834 2853 
Q 2591 2978 2328 3040 
Q 2066 3103 1784 3103 
Q 1356 3103 1142 2972 
Q 928 2841 928 2578 
Q 928 2378 1081 2264 
Q 1234 2150 1697 2047 
L 1894 2003 
Q 2506 1872 2764 1633 
Q 3022 1394 3022 966 
Q 3022 478 2636 193 
Q 2250 -91 1575 -91 
Q 1294 -91 989 -36 
Q 684 19 347 128 
L 347 722 
Q 666 556 975 473 
Q 1284 391 1588 391 
Q 1994 391 2212 530 
Q 2431 669 2431 922 
Q 2431 1156 2273 1281 
Q 2116 1406 1581 1522 
L 1381 1569 
Q 847 1681 609 1914 
Q 372 2147 372 2553 
Q 372 3047 722 3315 
Q 1072 3584 1716 3584 
Q 2034 3584 2315 3537 
Q 2597 3491 2834 3397 
z
" transform="scale(0.015625)"/>
       <path id="DejaVuSans-5d" d="M 1947 4863 
L 1947 -844 
L 622 -844 
L 622 -397 
L 1369 -397 
L 1369 4416 
L 622 4416 
L 622 4863 
L 1947 4863 
z
" transform="scale(0.015625)"/>
      </defs>
      <use xlink:href="#DejaVuSans-Oblique-3c9" transform="translate(0 0.765625)"/>
      <use xlink:href="#DejaVuSans-32" transform="translate(88.20638 39.046875) scale(0.7)"/>
      <use xlink:href="#DejaVuSans-20" transform="translate(135.476888 0.765625)"/>
      <use xlink:href="#DejaVuSans-5b" transform="translate(167.263997 0.765625)"/>
      <use xlink:href="#DejaVuSans-72" transform="translate(206.277669 0.765625)"/>
      <use xlink:href="#DejaVuSans-61" transform="translate(247.390951 0.765625)"/>
      <use xlink:href="#DejaVuSans-64" transform="translate(308.670247 0.765625)"/>
      <use xlink:href="#DejaVuSans-5e" transform="translate(372.14681 0.765625)"/>
      <use xlink:href="#DejaVuSans-32" transform="translate(455.935872 0.765625)"/>
      <use xlink:href="#DejaVuSans-2f" transform="translate(519.558919 0.765625)"/>
      <use xlink:href="#DejaVuSans-73" transform="translate(553.250326 0.765625)"/>
      <use xlink:href="#DejaVuSans-5d" transform="translate(605.349935 0.765625)"/>
     </g>
    </g>
   </g>
   <g id="matplotlib.axis_2">
    <g id="ytick_1">
     <g id="line2d_17">
      <path d="M 132.3 532.243481 
L 952.56 532.243481 
" clip-path="url(#pbe8dd5d0fa)" style="fill: none; stroke: #b0b0b0; stroke-width: 0.8; stroke-linecap: square"/>
     </g>
     <g id="line2d_18">
      <defs>
       <path id="mfa6f797fb3" d="M 0 0 
L -3.5 0 
" style="stroke: #000000; stroke-width: 0.8"/>
      </defs>
      <g>
       <use xlink:href="#mfa6f797fb3" x="132.3" y="532.243481" style="stroke: #000000; stroke-width: 0.8"/>
      </g>
     </g>
     <g id="text_10">
      <!-- −5 -->
      <g transform="translate(110.557812 536.0427) scale(0.1 -0.1)">
       <defs>
        <path id="DejaVuSans-2212" d="M 678 2272 
L 4684 2272 
L 4684 1741 
L 678 1741 
L 678 2272 
z
" transform="scale(0.015625)"/>
       </defs>
       <use xlink:href="#DejaVuSans-2212"/>
       <use xlink:href="#DejaVuSans-35" x="83.789062"/>
      </g>
     </g>
    </g>
    <g id="ytick_2">
     <g id="line2d_19">
      <path d="M 132.3 473.851892 
L 952.56 473.851892 
" clip-path="url(#pbe8dd5d0fa)" style="fill: none; stroke: #b0b0b0; stroke-width: 0.8; stroke-linecap: square"/>
     </g>
     <g id="line2d_20">
      <g>
       <use xlink:href="#mfa6f797fb3" x="132.3" y="473.851892" style="stroke: #000000; stroke-width: 0.8"/>
      </g>
     </g>
     <g id="text_11">
      <!-- −4 -->
      <g transform="translate(110.557812 477.65111) scale(0.1 -0.1)">
       <use xlink:href="#DejaVuSans-2212"/>
       <use xlink:href="#DejaVuSans-34" x="83.789062"/>
      </g>
     </g>
    </g>
    <g id="ytick_3">
     <g id="line2d_21">
      <path d="M 132.3 415.460303 
L 952.56 415.460303 
" clip-path="url(#pbe8dd5d0fa)" style="fill: none; stroke: #b0b0b0; stroke-width: 0.8; stroke-linecap: square"/>
     </g>
     <g id="line2d_22">
      <g>
       <use xlink:href="#mfa6f797fb3" x="132.3" y="415.460303" style="stroke: #000000; stroke-width: 0.8"/>
      </g>
     </g>
     <g id="text_12">
      <!-- −3 -->
      <g transform="translate(110.557812 419.259521) scale(0.1 -0.1)">
       <use xlink:href="#DejaVuSans-2212"/>
       <use xlink:href="#DejaVuSans-33" x="83.789062"/>
      </g>
     </g>
    </g>
    <g id="ytick_4">
     <g id="line2d_23">
      <path d="M 132.3 357.068713 
L 952.56 357.068713 
" clip-path="url(#pbe8dd5d0fa)" style="fill: none; stroke: #b0b0b0; stroke-width: 0.8; stroke-linecap: square"/>
     </g>
     <g id="line2d_24">
      <g>
       <use xlink:href="#mfa6f797fb3" x="132.3" y="357.068713" style="stroke: #000000; stroke-width: 0.8"/>
      </g>
     </g>
     <g id="text_13">
      <!-- −2 -->
      <g transform="translate(110.557812 360.867932) scale(0.1 -0.1)">
       <use xlink:href="#DejaVuSans-2212"/>
       <use xlink:href="#DejaVuSans-32" x="83.789062"/>
      </g>
     </g>
    </g>
    <g id="ytick_5">
     <g id="line2d_25">
      <path d="M 132.3 298.677124 
L 952.56 298.677124 
" clip-path="url(#pbe8dd5d0fa)" style="fill: none; stroke: #b0b0b0; stroke-width: 0.8; stroke-linecap: square"/>
     </g>
     <g id="line2d_26">
      <g>
       <use xlink:href="#mfa6f797fb3" x="132.3" y="298.677124" style="stroke: #000000; stroke-width: 0.8"/>
      </g>
     </g>
     <g id="text_14">
      <!-- −1 -->
      <g transform="translate(110.557812 302.476343) scale(0.1 -0.1)">
       <use xlink:href="#DejaVuSans-2212"/>
       <use xlink:href="#DejaVuSans-31" x="83.789062"/>
      </g>
     </g>
    </g>
    <g id="ytick_6">
     <g id="line2d_27">
      <path d="M 132.3 240.285535 
L 952.56 240.285535 
" clip-path="url(#pbe8dd5d0fa)" style="fill: none; stroke: #b0b0b0; stroke-width: 0.8; stroke-linecap: square"/>
     </g>
     <g id="line2d_28">
      <g>
       <use xlink:href="#mfa6f797fb3" x="132.3" y="240.285535" style="stroke: #000000; stroke-width: 0.8"/>
      </g>
     </g>
     <g id="text_15">
      <!-- 0 -->
      <g transform="translate(118.9375 244.084754) scale(0.1 -0.1)">
       <use xlink:href="#DejaVuSans-30"/>
      </g>
     </g>
    </g>
    <g id="ytick_7">
     <g id="line2d_29">
      <path d="M 132.3 181.893946 
L 952.56 181.893946 
" clip-path="url(#pbe8dd5d0fa)" style="fill: none; stroke: #b0b0b0; stroke-width: 0.8; stroke-linecap: square"/>
     </g>
     <g id="line2d_30">
      <g>
       <use xlink:href="#mfa6f797fb3" x="132.3" y="181.893946" style="stroke: #000000; stroke-width: 0.8"/>
      </g>
     </g>
     <g id="text_16">
      <!-- 1 -->
      <g transform="translate(118.9375 185.693165) scale(0.1 -0.1)">
       <use xlink:href="#DejaVuSans-31"/>
      </g>
     </g>
    </g>
    <g id="ytick_8">
     <g id="line2d_31">
      <path d="M 132.3 123.502357 
L 952.56 123.502357 
" clip-path="url(#pbe8dd5d0fa)" style="fill: none; stroke: #b0b0b0; stroke-width: 0.8; stroke-linecap: square"/>
     </g>
     <g id="line2d_32">
      <g>
       <use xlink:href="#mfa6f797fb3" x="132.3" y="123.502357" style="stroke: #000000; stroke-width: 0.8"/>
      </g>
     </g>
     <g id="text_17">
      <!-- 2 -->
      <g transform="translate(118.9375 127.301576) scale(0.1 -0.1)">
       <use xlink:href="#DejaVuSans-32"/>
      </g>
     </g>
    </g>
    <g id="text_18">
     <!-- $F$ [N] -->
     <g transform="translate(104.478125 333.5724) rotate(-90) scale(0.1 -0.1)">
      <defs>
       <path id="DejaVuSans-Oblique-46" d="M 1081 4666 
L 3756 4666 
L 3653 4134 
L 1606 4134 
L 1338 2759 
L 3188 2759 
L 3084 2228 
L 1234 2228 
L 800 0 
L 172 0 
L 1081 4666 
z
" transform="scale(0.015625)"/>
       <path id="DejaVuSans-4e" d="M 628 4666 
L 1478 4666 
L 3547 763 
L 3547 4666 
L 4159 4666 
L 4159 0 
L 3309 0 
L 1241 3903 
L 1241 0 
L 628 0 
L 628 4666 
z
" transform="scale(0.015625)"/>
      </defs>
      <use xlink:href="#DejaVuSans-Oblique-46" transform="translate(0 0.015625)"/>
      <use xlink:href="#DejaVuSans-20" transform="translate(57.519531 0.015625)"/>
      <use xlink:href="#DejaVuSans-5b" transform="translate(89.306641 0.015625)"/>
      <use xlink:href="#DejaVuSans-4e" transform="translate(128.320312 0.015625)"/>
      <use xlink:href="#DejaVuSans-5d" transform="translate(203.125 0.015625)"/>
     </g>
    </g>
   </g>
   <g id="line2d_33">
    <defs>
     <path id="m873888115c" d="M 0 3 
C 0.795609 3 1.55874 2.683901 2.12132 2.12132 
C 2.683901 1.55874 3 0.795609 3 0 
C 3 -0.795609 2.683901 -1.55874 2.12132 -2.12132 
C 1.55874 -2.683901 0.795609 -3 0 -3 
C -0.795609 -3 -1.55874 -2.683901 -2.12132 -2.12132 
C -2.683901 -1.55874 -3 -0.795609 -3 0 
C -3 0.795609 -2.683901 1.55874 -2.12132 2.12132 
C -1.55874 2.683901 -0.795609 3 0 3 
z
" style="stroke: #1f77b4"/>
    </defs>
    <g clip-path="url(#pbe8dd5d0fa)">
     <use xlink:href="#m873888115c" x="169.584545" y="240.285535" style="fill: #1f77b4; stroke: #1f77b4"/>
     <use xlink:href="#m873888115c" x="186.361208" y="245.446184" style="fill: #1f77b4; stroke: #1f77b4"/>
     <use xlink:href="#m873888115c" x="186.4998" y="245.446184" style="fill: #1f77b4; stroke: #1f77b4"/>
     <use xlink:href="#m873888115c" x="187.03165" y="245.446184" style="fill: #1f77b4; stroke: #1f77b4"/>
     <use xlink:href="#m873888115c" x="195.72034" y="248.313211" style="fill: #1f77b4; stroke: #1f77b4"/>
     <use xlink:href="#m873888115c" x="205.832762" y="252.327049" style="fill: #1f77b4; stroke: #1f77b4"/>
     <use xlink:href="#m873888115c" x="228.75316" y="259.781319" style="fill: #1f77b4; stroke: #1f77b4"/>
     <use xlink:href="#m873888115c" x="278.241423" y="278.130292" style="fill: #1f77b4; stroke: #1f77b4"/>
     <use xlink:href="#m873888115c" x="345.957445" y="306.227157" style="fill: #1f77b4; stroke: #1f77b4"/>
     <use xlink:href="#m873888115c" x="436.574675" y="340.631481" style="fill: #1f77b4; stroke: #1f77b4"/>
     <use xlink:href="#m873888115c" x="542.120679" y="383.636886" style="fill: #1f77b4; stroke: #1f77b4"/>
     <use xlink:href="#m873888115c" x="658.762146" y="435.243373" style="fill: #1f77b4; stroke: #1f77b4"/>
     <use xlink:href="#m873888115c" x="786.223864" y="486.849859" style="fill: #1f77b4; stroke: #1f77b4"/>
     <use xlink:href="#m873888115c" x="915.275455" y="544.1904" style="fill: #1f77b4; stroke: #1f77b4"/>
    </g>
   </g>
   <g id="line2d_34">
    <path d="M 169.584545 240.285535 
L 177.116777 243.288206 
L 184.649008 246.290877 
L 192.18124 249.293549 
L 199.713471 252.29622 
L 207.245702 255.298891 
L 214.777934 258.301562 
L 222.310165 261.304233 
L 229.842397 264.306904 
L 237.374628 267.309575 
L 244.90686 270.312247 
L 252.439091 273.314918 
L 259.971322 276.317589 
L 267.503554 279.32026 
L 275.035785 282.322931 
L 282.568017 285.325602 
L 290.100248 288.328273 
L 297.632479 291.330945 
L 305.164711 294.333616 
L 312.696942 297.336287 
L 320.229174 300.338958 
L 327.761405 303.341629 
L 335.293636 306.3443 
L 342.825868 309.346972 
L 350.358099 312.349643 
L 357.890331 315.352314 
L 365.422562 318.354985 
L 372.954793 321.357656 
L 380.487025 324.360327 
L 388.019256 327.362998 
L 395.551488 330.36567 
L 403.083719 333.368341 
L 410.61595 336.371012 
L 418.148182 339.373683 
L 425.680413 342.376354 
L 433.212645 345.379025 
L 440.744876 348.381696 
L 448.277107 351.384368 
L 455.809339 354.387039 
L 463.34157 357.38971 
L 470.873802 360.392381 
L 478.406033 363.395052 
L 485.938264 366.397723 
L 493.470496 369.400394 
L 501.002727 372.403066 
L 508.534959 375.405737 
L 516.06719 378.408408 
L 523.599421 381.411079 
L 531.131653 384.41375 
L 538.663884 387.416421 
L 546.196116 390.419092 
L 553.728347 393.421764 
L 561.260579 396.424435 
L 568.79281 399.427106 
L 576.325041 402.429777 
L 583.857273 405.432448 
L 591.389504 408.435119 
L 598.921736 411.43779 
L 606.453967 414.440462 
L 613.986198 417.443133 
L 621.51843 420.445804 
L 629.050661 423.448475 
L 636.582893 426.451146 
L 644.115124 429.453817 
L 651.647355 432.456489 
L 659.179587 435.45916 
L 666.711818 438.461831 
L 674.24405 441.464502 
L 681.776281 444.467173 
L 689.308512 447.469844 
L 696.840744 450.472515 
L 704.372975 453.475187 
L 711.905207 456.477858 
L 719.437438 459.480529 
L 726.969669 462.4832 
L 734.501901 465.485871 
L 742.034132 468.488542 
L 749.566364 471.491213 
L 757.098595 474.493885 
L 764.630826 477.496556 
L 772.163058 480.499227 
L 779.695289 483.501898 
L 787.227521 486.504569 
L 794.759752 489.50724 
L 802.291983 492.509911 
L 809.824215 495.512583 
L 817.356446 498.515254 
L 824.888678 501.517925 
L 832.420909 504.520596 
L 839.95314 507.523267 
L 847.485372 510.525938 
L 855.017603 513.528609 
L 862.549835 516.531281 
L 870.082066 519.533952 
L 877.614298 522.536623 
L 885.146529 525.539294 
L 892.67876 528.541965 
L 900.210992 531.544636 
L 907.743223 534.547307 
L 915.275455 537.549979 
" clip-path="url(#pbe8dd5d0fa)" style="fill: none; stroke: #1f77b4; stroke-width: 1.5; stroke-linecap: square"/>
   </g>
   <g id="line2d_35">
    <defs>
     <path id="mbc0b45743c" d="M 0 3 
C 0.795609 3 1.55874 2.683901 2.12132 2.12132 
C 2.683901 1.55874 3 0.795609 3 0 
C 3 -0.795609 2.683901 -1.55874 2.12132 -2.12132 
C 1.55874 -2.683901 0.795609 -3 0 -3 
C -0.795609 -3 -1.55874 -2.683901 -2.12132 -2.12132 
C -2.683901 -1.55874 -3 -0.795609 -3 0 
C -3 0.795609 -2.683901 1.55874 -2.12132 2.12132 
C -1.55874 2.683901 -0.795609 3 0 3 
z
" style="stroke: #ff7f0e"/>
    </defs>
    <g clip-path="url(#pbe8dd5d0fa)">
     <use xlink:href="#mbc0b45743c" x="169.584545" y="240.285535" style="fill: #ff7f0e; stroke: #ff7f0e"/>
     <use xlink:href="#mbc0b45743c" x="186.694787" y="237.418508" style="fill: #ff7f0e; stroke: #ff7f0e"/>
     <use xlink:href="#mbc0b45743c" x="186.834747" y="237.418508" style="fill: #ff7f0e; stroke: #ff7f0e"/>
     <use xlink:href="#mbc0b45743c" x="187.629062" y="236.845103" style="fill: #ff7f0e; stroke: #ff7f0e"/>
     <use xlink:href="#mbc0b45743c" x="196.836832" y="235.698292" style="fill: #ff7f0e; stroke: #ff7f0e"/>
     <use xlink:href="#mbc0b45743c" x="207.228377" y="233.978076" style="fill: #ff7f0e; stroke: #ff7f0e"/>
     <use xlink:href="#mbc0b45743c" x="230.427168" y="229.390832" style="fill: #ff7f0e; stroke: #ff7f0e"/>
     <use xlink:href="#mbc0b45743c" x="305.37645" y="219.642941" style="fill: #ff7f0e; stroke: #ff7f0e"/>
     <use xlink:href="#mbc0b45743c" x="346.675685" y="207.601427" style="fill: #ff7f0e; stroke: #ff7f0e"/>
     <use xlink:href="#mbc0b45743c" x="434.812005" y="188.679049" style="fill: #ff7f0e; stroke: #ff7f0e"/>
     <use xlink:href="#mbc0b45743c" x="541.469221" y="169.75667" style="fill: #ff7f0e; stroke: #ff7f0e"/>
     <use xlink:href="#mbc0b45743c" x="647.476097" y="139.939589" style="fill: #ff7f0e; stroke: #ff7f0e"/>
     <use xlink:href="#mbc0b45743c" x="773.212499" y="119.8704" style="fill: #ff7f0e; stroke: #ff7f0e"/>
     <use xlink:href="#mbc0b45743c" x="846.31623" y="98.6544" style="fill: #ff7f0e; stroke: #ff7f0e"/>
    </g>
   </g>
   <g id="line2d_36">
    <path d="M 169.584545 240.285535 
L 176.420219 238.902854 
L 183.255893 237.520173 
L 190.091566 236.137491 
L 196.92724 234.75481 
L 203.762913 233.372129 
L 210.598587 231.989448 
L 217.434261 230.606767 
L 224.269934 229.224085 
L 231.105608 227.841404 
L 237.941281 226.458723 
L 244.776955 225.076042 
L 251.612628 223.69336 
L 258.448302 222.310679 
L 265.283976 220.927998 
L 272.119649 219.545317 
L 278.955323 218.162635 
L 285.790996 216.779954 
L 292.62667 215.397273 
L 299.462343 214.014592 
L 306.298017 212.63191 
L 313.133691 211.249229 
L 319.969364 209.866548 
L 326.805038 208.483867 
L 333.640711 207.101186 
L 340.476385 205.718504 
L 347.312059 204.335823 
L 354.147732 202.953142 
L 360.983406 201.570461 
L 367.819079 200.187779 
L 374.654753 198.805098 
L 381.490426 197.422417 
L 388.3261 196.039736 
L 395.161774 194.657054 
L 401.997447 193.274373 
L 408.833121 191.891692 
L 415.668794 190.509011 
L 422.504468 189.12633 
L 429.340142 187.743648 
L 436.175815 186.360967 
L 443.011489 184.978286 
L 449.847162 183.595605 
L 456.682836 182.212923 
L 463.518509 180.830242 
L 470.354183 179.447561 
L 477.189857 178.06488 
L 484.02553 176.682198 
L 490.861204 175.299517 
L 497.696877 173.916836 
L 504.532551 172.534155 
L 511.368224 171.151474 
L 518.203898 169.768792 
L 525.039572 168.386111 
L 531.875245 167.00343 
L 538.710919 165.620749 
L 545.546592 164.238067 
L 552.382266 162.855386 
L 559.21794 161.472705 
L 566.053613 160.090024 
L 572.889287 158.707342 
L 579.72496 157.324661 
L 586.560634 155.94198 
L 593.396307 154.559299 
L 600.231981 153.176618 
L 607.067655 151.793936 
L 613.903328 150.411255 
L 620.739002 149.028574 
L 627.574675 147.645893 
L 634.410349 146.263211 
L 641.246022 144.88053 
L 648.081696 143.497849 
L 654.91737 142.115168 
L 661.753043 140.732486 
L 668.588717 139.349805 
L 675.42439 137.967124 
L 682.260064 136.584443 
L 689.095738 135.201761 
L 695.931411 133.81908 
L 702.767085 132.436399 
L 709.602758 131.053718 
L 716.438432 129.671037 
L 723.274105 128.288355 
L 730.109779 126.905674 
L 736.945453 125.522993 
L 743.781126 124.140312 
L 750.6168 122.75763 
L 757.452473 121.374949 
L 764.288147 119.992268 
L 771.123821 118.609587 
L 777.959494 117.226905 
L 784.795168 115.844224 
L 791.630841 114.461543 
L 798.466515 113.078862 
L 805.302188 111.696181 
L 812.137862 110.313499 
L 818.973536 108.930818 
L 825.809209 107.548137 
L 832.644883 106.165456 
L 839.480556 104.782774 
L 846.31623 103.400093 
" clip-path="url(#pbe8dd5d0fa)" style="fill: none; stroke: #ff7f0e; stroke-width: 1.5; stroke-linecap: square"/>
   </g>
   <g id="patch_3">
    <path d="M 132.3 566.4672 
L 132.3 76.3776 
" style="fill: none; stroke: #000000; stroke-width: 0.8; stroke-linejoin: miter; stroke-linecap: square"/>
   </g>
   <g id="patch_4">
    <path d="M 952.56 566.4672 
L 952.56 76.3776 
" style="fill: none; stroke: #000000; stroke-width: 0.8; stroke-linejoin: miter; stroke-linecap: square"/>
   </g>
   <g id="patch_5">
    <path d="M 132.3 566.4672 
L 952.56 566.4672 
" style="fill: none; stroke: #000000; stroke-width: 0.8; stroke-linejoin: miter; stroke-linecap: square"/>
   </g>
   <g id="patch_6">
    <path d="M 132.3 76.3776 
L 952.56 76.3776 
" style="fill: none; stroke: #000000; stroke-width: 0.8; stroke-linejoin: miter; stroke-linecap: square"/>
   </g>
   <g id="text_19">
    <!-- T-MOTOR MN2212-V2.0 with 9.5x4.5 propeller -->
    <g transform="translate(404.50125 70.3776) scale(0.12 -0.12)">
     <defs>
      <path id="DejaVuSans-54" d="M -19 4666 
L 3928 4666 
L 3928 4134 
L 2272 4134 
L 2272 0 
L 1638 0 
L 1638 4134 
L -19 4134 
L -19 4666 
z
" transform="scale(0.015625)"/>
      <path id="DejaVuSans-2d" d="M 313 2009 
L 1997 2009 
L 1997 1497 
L 313 1497 
L 313 2009 
z
" transform="scale(0.015625)"/>
      <path id="DejaVuSans-4d" d="M 628 4666 
L 1569 4666 
L 2759 1491 
L 3956 4666 
L 4897 4666 
L 4897 0 
L 4281 0 
L 4281 4097 
L 3078 897 
L 2444 897 
L 1241 4097 
L 1241 0 
L 628 0 
L 628 4666 
z
" transform="scale(0.015625)"/>
      <path id="DejaVuSans-4f" d="M 2522 4238 
Q 1834 4238 1429 3725 
Q 1025 3213 1025 2328 
Q 1025 1447 1429 934 
Q 1834 422 2522 422 
Q 3209 422 3611 934 
Q 4013 1447 4013 2328 
Q 4013 3213 3611 3725 
Q 3209 4238 2522 4238 
z
M 2522 4750 
Q 3503 4750 4090 4092 
Q 4678 3434 4678 2328 
Q 4678 1225 4090 567 
Q 3503 -91 2522 -91 
Q 1538 -91 948 565 
Q 359 1222 359 2328 
Q 359 3434 948 4092 
Q 1538 4750 2522 4750 
z
" transform="scale(0.015625)"/>
      <path id="DejaVuSans-52" d="M 2841 2188 
Q 3044 2119 3236 1894 
Q 3428 1669 3622 1275 
L 4263 0 
L 3584 0 
L 2988 1197 
Q 2756 1666 2539 1819 
Q 2322 1972 1947 1972 
L 1259 1972 
L 1259 0 
L 628 0 
L 628 4666 
L 2053 4666 
Q 2853 4666 3247 4331 
Q 3641 3997 3641 3322 
Q 3641 2881 3436 2590 
Q 3231 2300 2841 2188 
z
M 1259 4147 
L 1259 2491 
L 2053 2491 
Q 2509 2491 2742 2702 
Q 2975 2913 2975 3322 
Q 2975 3731 2742 3939 
Q 2509 4147 2053 4147 
L 1259 4147 
z
" transform="scale(0.015625)"/>
      <path id="DejaVuSans-56" d="M 1831 0 
L 50 4666 
L 709 4666 
L 2188 738 
L 3669 4666 
L 4325 4666 
L 2547 0 
L 1831 0 
z
" transform="scale(0.015625)"/>
      <path id="DejaVuSans-2e" d="M 684 794 
L 1344 794 
L 1344 0 
L 684 0 
L 684 794 
z
" transform="scale(0.015625)"/>
      <path id="DejaVuSans-77" d="M 269 3500 
L 844 3500 
L 1563 769 
L 2278 3500 
L 2956 3500 
L 3675 769 
L 4391 3500 
L 4966 3500 
L 4050 0 
L 3372 0 
L 2619 2869 
L 1863 0 
L 1184 0 
L 269 3500 
z
" transform="scale(0.015625)"/>
      <path id="DejaVuSans-69" d="M 603 3500 
L 1178 3500 
L 1178 0 
L 603 0 
L 603 3500 
z
M 603 4863 
L 1178 4863 
L 1178 4134 
L 603 4134 
L 603 4863 
z
" transform="scale(0.015625)"/>
      <path id="DejaVuSans-74" d="M 1172 4494 
L 1172 3500 
L 2356 3500 
L 2356 3053 
L 1172 3053 
L 1172 1153 
Q 1172 725 1289 603 
Q 1406 481 1766 481 
L 2356 481 
L 2356 0 
L 1766 0 
Q 1100 0 847 248 
Q 594 497 594 1153 
L 594 3053 
L 172 3053 
L 172 3500 
L 594 3500 
L 594 4494 
L 1172 4494 
z
" transform="scale(0.015625)"/>
      <path id="DejaVuSans-68" d="M 3513 2113 
L 3513 0 
L 2938 0 
L 2938 2094 
Q 2938 2591 2744 2837 
Q 2550 3084 2163 3084 
Q 1697 3084 1428 2787 
Q 1159 2491 1159 1978 
L 1159 0 
L 581 0 
L 581 4863 
L 1159 4863 
L 1159 2956 
Q 1366 3272 1645 3428 
Q 1925 3584 2291 3584 
Q 2894 3584 3203 3211 
Q 3513 2838 3513 2113 
z
" transform="scale(0.015625)"/>
      <path id="DejaVuSans-39" d="M 703 97 
L 703 672 
Q 941 559 1184 500 
Q 1428 441 1663 441 
Q 2288 441 2617 861 
Q 2947 1281 2994 2138 
Q 2813 1869 2534 1725 
Q 2256 1581 1919 1581 
Q 1219 1581 811 2004 
Q 403 2428 403 3163 
Q 403 3881 828 4315 
Q 1253 4750 1959 4750 
Q 2769 4750 3195 4129 
Q 3622 3509 3622 2328 
Q 3622 1225 3098 567 
Q 2575 -91 1691 -91 
Q 1453 -91 1209 -44 
Q 966 3 703 97 
z
M 1959 2075 
Q 2384 2075 2632 2365 
Q 2881 2656 2881 3163 
Q 2881 3666 2632 3958 
Q 2384 4250 1959 4250 
Q 1534 4250 1286 3958 
Q 1038 3666 1038 3163 
Q 1038 2656 1286 2365 
Q 1534 2075 1959 2075 
z
" transform="scale(0.015625)"/>
      <path id="DejaVuSans-78" d="M 3513 3500 
L 2247 1797 
L 3578 0 
L 2900 0 
L 1881 1375 
L 863 0 
L 184 0 
L 1544 1831 
L 300 3500 
L 978 3500 
L 1906 2253 
L 2834 3500 
L 3513 3500 
z
" transform="scale(0.015625)"/>
      <path id="DejaVuSans-70" d="M 1159 525 
L 1159 -1331 
L 581 -1331 
L 581 3500 
L 1159 3500 
L 1159 2969 
Q 1341 3281 1617 3432 
Q 1894 3584 2278 3584 
Q 2916 3584 3314 3078 
Q 3713 2572 3713 1747 
Q 3713 922 3314 415 
Q 2916 -91 2278 -91 
Q 1894 -91 1617 61 
Q 1341 213 1159 525 
z
M 3116 1747 
Q 3116 2381 2855 2742 
Q 2594 3103 2138 3103 
Q 1681 3103 1420 2742 
Q 1159 2381 1159 1747 
Q 1159 1113 1420 752 
Q 1681 391 2138 391 
Q 2594 391 2855 752 
Q 3116 1113 3116 1747 
z
" transform="scale(0.015625)"/>
      <path id="DejaVuSans-6f" d="M 1959 3097 
Q 1497 3097 1228 2736 
Q 959 2375 959 1747 
Q 959 1119 1226 758 
Q 1494 397 1959 397 
Q 2419 397 2687 759 
Q 2956 1122 2956 1747 
Q 2956 2369 2687 2733 
Q 2419 3097 1959 3097 
z
M 1959 3584 
Q 2709 3584 3137 3096 
Q 3566 2609 3566 1747 
Q 3566 888 3137 398 
Q 2709 -91 1959 -91 
Q 1206 -91 779 398 
Q 353 888 353 1747 
Q 353 2609 779 3096 
Q 1206 3584 1959 3584 
z
" transform="scale(0.015625)"/>
      <path id="DejaVuSans-65" d="M 3597 1894 
L 3597 1613 
L 953 1613 
Q 991 1019 1311 708 
Q 1631 397 2203 397 
Q 2534 397 2845 478 
Q 3156 559 3463 722 
L 3463 178 
Q 3153 47 2828 -22 
Q 2503 -91 2169 -91 
Q 1331 -91 842 396 
Q 353 884 353 1716 
Q 353 2575 817 3079 
Q 1281 3584 2069 3584 
Q 2775 3584 3186 3129 
Q 3597 2675 3597 1894 
z
M 3022 2063 
Q 3016 2534 2758 2815 
Q 2500 3097 2075 3097 
Q 1594 3097 1305 2825 
Q 1016 2553 972 2059 
L 3022 2063 
z
" transform="scale(0.015625)"/>
      <path id="DejaVuSans-6c" d="M 603 4863 
L 1178 4863 
L 1178 0 
L 603 0 
L 603 4863 
z
" transform="scale(0.015625)"/>
     </defs>
     <use xlink:href="#DejaVuSans-54"/>
     <use xlink:href="#DejaVuSans-2d" x="51.958984"/>
     <use xlink:href="#DejaVuSans-4d" x="88.042969"/>
     <use xlink:href="#DejaVuSans-4f" x="174.322266"/>
     <use xlink:href="#DejaVuSans-54" x="253.033203"/>
     <use xlink:href="#DejaVuSans-4f" x="314.117188"/>
     <use xlink:href="#DejaVuSans-52" x="392.828125"/>
     <use xlink:href="#DejaVuSans-20" x="462.310547"/>
     <use xlink:href="#DejaVuSans-4d" x="494.097656"/>
     <use xlink:href="#DejaVuSans-4e" x="580.376953"/>
     <use xlink:href="#DejaVuSans-32" x="655.181641"/>
     <use xlink:href="#DejaVuSans-32" x="718.804688"/>
     <use xlink:href="#DejaVuSans-31" x="782.427734"/>
     <use xlink:href="#DejaVuSans-32" x="846.050781"/>
     <use xlink:href="#DejaVuSans-2d" x="909.673828"/>
     <use xlink:href="#DejaVuSans-56" x="939.882812"/>
     <use xlink:href="#DejaVuSans-32" x="1008.291016"/>
     <use xlink:href="#DejaVuSans-2e" x="1071.914062"/>
     <use xlink:href="#DejaVuSans-30" x="1103.701172"/>
     <use xlink:href="#DejaVuSans-20" x="1167.324219"/>
     <use xlink:href="#DejaVuSans-77" x="1199.111328"/>
     <use xlink:href="#DejaVuSans-69" x="1280.898438"/>
     <use xlink:href="#DejaVuSans-74" x="1308.681641"/>
     <use xlink:href="#DejaVuSans-68" x="1347.890625"/>
     <use xlink:href="#DejaVuSans-20" x="1411.269531"/>
     <use xlink:href="#DejaVuSans-39" x="1443.056641"/>
     <use xlink:href="#DejaVuSans-2e" x="1506.679688"/>
     <use xlink:href="#DejaVuSans-35" x="1538.466797"/>
     <use xlink:href="#DejaVuSans-78" x="1602.089844"/>
     <use xlink:href="#DejaVuSans-34" x="1661.269531"/>
     <use xlink:href="#DejaVuSans-2e" x="1724.892578"/>
     <use xlink:href="#DejaVuSans-35" x="1756.679688"/>
     <use xlink:href="#DejaVuSans-20" x="1820.302734"/>
     <use xlink:href="#DejaVuSans-70" x="1852.089844"/>
     <use xlink:href="#DejaVuSans-72" x="1915.566406"/>
     <use xlink:href="#DejaVuSans-6f" x="1954.429688"/>
     <use xlink:href="#DejaVuSans-70" x="2015.611328"/>
     <use xlink:href="#DejaVuSans-65" x="2079.087891"/>
     <use xlink:href="#DejaVuSans-6c" x="2140.611328"/>
     <use xlink:href="#DejaVuSans-6c" x="2168.394531"/>
     <use xlink:href="#DejaVuSans-65" x="2196.177734"/>
     <use xlink:href="#DejaVuSans-72" x="2257.701172"/>
    </g>
   </g>
   <g id="legend_1">
    <g id="patch_7">
     <path d="M 139.3 143.0901 
L 345.867188 143.0901 
Q 347.867188 143.0901 347.867188 141.0901 
L 347.867188 83.3776 
Q 347.867188 81.3776 345.867188 81.3776 
L 139.3 81.3776 
Q 137.3 81.3776 137.3 83.3776 
L 137.3 141.0901 
Q 137.3 143.0901 139.3 143.0901 
z
" style="fill: #ffffff; opacity: 0.8; stroke: #cccccc; stroke-linejoin: miter"/>
    </g>
    <g id="line2d_37">
     <g>
      <use xlink:href="#m873888115c" x="151.3" y="89.476037" style="fill: #1f77b4; stroke: #1f77b4"/>
     </g>
    </g>
    <g id="text_20">
     <!-- Positive rotation raw -->
     <g transform="translate(169.3 92.976037) scale(0.1 -0.1)">
      <defs>
       <path id="DejaVuSans-50" d="M 1259 4147 
L 1259 2394 
L 2053 2394 
Q 2494 2394 2734 2622 
Q 2975 2850 2975 3272 
Q 2975 3691 2734 3919 
Q 2494 4147 2053 4147 
L 1259 4147 
z
M 628 4666 
L 2053 4666 
Q 2838 4666 3239 4311 
Q 3641 3956 3641 3272 
Q 3641 2581 3239 2228 
Q 2838 1875 2053 1875 
L 1259 1875 
L 1259 0 
L 628 0 
L 628 4666 
z
" transform="scale(0.015625)"/>
       <path id="DejaVuSans-76" d="M 191 3500 
L 800 3500 
L 1894 563 
L 2988 3500 
L 3597 3500 
L 2284 0 
L 1503 0 
L 191 3500 
z
" transform="scale(0.015625)"/>
       <path id="DejaVuSans-6e" d="M 3513 2113 
L 3513 0 
L 2938 0 
L 2938 2094 
Q 2938 2591 2744 2837 
Q 2550 3084 2163 3084 
Q 1697 3084 1428 2787 
Q 1159 2491 1159 1978 
L 1159 0 
L 581 0 
L 581 3500 
L 1159 3500 
L 1159 2956 
Q 1366 3272 1645 3428 
Q 1925 3584 2291 3584 
Q 2894 3584 3203 3211 
Q 3513 2838 3513 2113 
z
" transform="scale(0.015625)"/>
      </defs>
      <use xlink:href="#DejaVuSans-50"/>
      <use xlink:href="#DejaVuSans-6f" x="56.677734"/>
      <use xlink:href="#DejaVuSans-73" x="117.859375"/>
      <use xlink:href="#DejaVuSans-69" x="169.958984"/>
      <use xlink:href="#DejaVuSans-74" x="197.742188"/>
      <use xlink:href="#DejaVuSans-69" x="236.951172"/>
      <use xlink:href="#DejaVuSans-76" x="264.734375"/>
      <use xlink:href="#DejaVuSans-65" x="323.914062"/>
      <use xlink:href="#DejaVuSans-20" x="385.4375"/>
      <use xlink:href="#DejaVuSans-72" x="417.224609"/>
      <use xlink:href="#DejaVuSans-6f" x="456.087891"/>
      <use xlink:href="#DejaVuSans-74" x="517.269531"/>
      <use xlink:href="#DejaVuSans-61" x="556.478516"/>
      <use xlink:href="#DejaVuSans-74" x="617.757812"/>
      <use xlink:href="#DejaVuSans-69" x="656.966797"/>
      <use xlink:href="#DejaVuSans-6f" x="684.75"/>
      <use xlink:href="#DejaVuSans-6e" x="745.931641"/>
      <use xlink:href="#DejaVuSans-20" x="809.310547"/>
      <use xlink:href="#DejaVuSans-72" x="841.097656"/>
      <use xlink:href="#DejaVuSans-61" x="882.210938"/>
      <use xlink:href="#DejaVuSans-77" x="943.490234"/>
     </g>
    </g>
    <g id="line2d_38">
     <path d="M 141.3 104.154162 
L 151.3 104.154162 
L 161.3 104.154162 
" style="fill: none; stroke: #1f77b4; stroke-width: 1.5; stroke-linecap: square"/>
    </g>
    <g id="text_21">
     <!-- Positive rotation polyfit: [-7.1e-06] -->
     <g transform="translate(169.3 107.654162) scale(0.1 -0.1)">
      <defs>
       <path id="DejaVuSans-79" d="M 2059 -325 
Q 1816 -950 1584 -1140 
Q 1353 -1331 966 -1331 
L 506 -1331 
L 506 -850 
L 844 -850 
Q 1081 -850 1212 -737 
Q 1344 -625 1503 -206 
L 1606 56 
L 191 3500 
L 800 3500 
L 1894 763 
L 2988 3500 
L 3597 3500 
L 2059 -325 
z
" transform="scale(0.015625)"/>
       <path id="DejaVuSans-66" d="M 2375 4863 
L 2375 4384 
L 1825 4384 
Q 1516 4384 1395 4259 
Q 1275 4134 1275 3809 
L 1275 3500 
L 2222 3500 
L 2222 3053 
L 1275 3053 
L 1275 0 
L 697 0 
L 697 3053 
L 147 3053 
L 147 3500 
L 697 3500 
L 697 3744 
Q 697 4328 969 4595 
Q 1241 4863 1831 4863 
L 2375 4863 
z
" transform="scale(0.015625)"/>
       <path id="DejaVuSans-3a" d="M 750 794 
L 1409 794 
L 1409 0 
L 750 0 
L 750 794 
z
M 750 3309 
L 1409 3309 
L 1409 2516 
L 750 2516 
L 750 3309 
z
" transform="scale(0.015625)"/>
      </defs>
      <use xlink:href="#DejaVuSans-50"/>
      <use xlink:href="#DejaVuSans-6f" x="56.677734"/>
      <use xlink:href="#DejaVuSans-73" x="117.859375"/>
      <use xlink:href="#DejaVuSans-69" x="169.958984"/>
      <use xlink:href="#DejaVuSans-74" x="197.742188"/>
      <use xlink:href="#DejaVuSans-69" x="236.951172"/>
      <use xlink:href="#DejaVuSans-76" x="264.734375"/>
      <use xlink:href="#DejaVuSans-65" x="323.914062"/>
      <use xlink:href="#DejaVuSans-20" x="385.4375"/>
      <use xlink:href="#DejaVuSans-72" x="417.224609"/>
      <use xlink:href="#DejaVuSans-6f" x="456.087891"/>
      <use xlink:href="#DejaVuSans-74" x="517.269531"/>
      <use xlink:href="#DejaVuSans-61" x="556.478516"/>
      <use xlink:href="#DejaVuSans-74" x="617.757812"/>
      <use xlink:href="#DejaVuSans-69" x="656.966797"/>
      <use xlink:href="#DejaVuSans-6f" x="684.75"/>
      <use xlink:href="#DejaVuSans-6e" x="745.931641"/>
      <use xlink:href="#DejaVuSans-20" x="809.310547"/>
      <use xlink:href="#DejaVuSans-70" x="841.097656"/>
      <use xlink:href="#DejaVuSans-6f" x="904.574219"/>
      <use xlink:href="#DejaVuSans-6c" x="965.755859"/>
      <use xlink:href="#DejaVuSans-79" x="993.539062"/>
      <use xlink:href="#DejaVuSans-66" x="1052.71875"/>
      <use xlink:href="#DejaVuSans-69" x="1087.923828"/>
      <use xlink:href="#DejaVuSans-74" x="1115.707031"/>
      <use xlink:href="#DejaVuSans-3a" x="1154.916016"/>
      <use xlink:href="#DejaVuSans-20" x="1188.607422"/>
      <use xlink:href="#DejaVuSans-5b" x="1220.394531"/>
      <use xlink:href="#DejaVuSans-2d" x="1259.408203"/>
      <use xlink:href="#DejaVuSans-37" x="1295.492188"/>
      <use xlink:href="#DejaVuSans-2e" x="1359.115234"/>
      <use xlink:href="#DejaVuSans-31" x="1390.902344"/>
      <use xlink:href="#DejaVuSans-65" x="1454.525391"/>
      <use xlink:href="#DejaVuSans-2d" x="1516.048828"/>
      <use xlink:href="#DejaVuSans-30" x="1552.132812"/>
      <use xlink:href="#DejaVuSans-36" x="1615.755859"/>
      <use xlink:href="#DejaVuSans-5d" x="1679.378906"/>
     </g>
    </g>
    <g id="line2d_39">
     <g>
      <use xlink:href="#mbc0b45743c" x="151.3" y="118.832288" style="fill: #ff7f0e; stroke: #ff7f0e"/>
     </g>
    </g>
    <g id="text_22">
     <!-- Negative rotation raw -->
     <g transform="translate(169.3 122.332288) scale(0.1 -0.1)">
      <defs>
       <path id="DejaVuSans-67" d="M 2906 1791 
Q 2906 2416 2648 2759 
Q 2391 3103 1925 3103 
Q 1463 3103 1205 2759 
Q 947 2416 947 1791 
Q 947 1169 1205 825 
Q 1463 481 1925 481 
Q 2391 481 2648 825 
Q 2906 1169 2906 1791 
z
M 3481 434 
Q 3481 -459 3084 -895 
Q 2688 -1331 1869 -1331 
Q 1566 -1331 1297 -1286 
Q 1028 -1241 775 -1147 
L 775 -588 
Q 1028 -725 1275 -790 
Q 1522 -856 1778 -856 
Q 2344 -856 2625 -561 
Q 2906 -266 2906 331 
L 2906 616 
Q 2728 306 2450 153 
Q 2172 0 1784 0 
Q 1141 0 747 490 
Q 353 981 353 1791 
Q 353 2603 747 3093 
Q 1141 3584 1784 3584 
Q 2172 3584 2450 3431 
Q 2728 3278 2906 2969 
L 2906 3500 
L 3481 3500 
L 3481 434 
z
" transform="scale(0.015625)"/>
      </defs>
      <use xlink:href="#DejaVuSans-4e"/>
      <use xlink:href="#DejaVuSans-65" x="74.804688"/>
      <use xlink:href="#DejaVuSans-67" x="136.328125"/>
      <use xlink:href="#DejaVuSans-61" x="199.804688"/>
      <use xlink:href="#DejaVuSans-74" x="261.083984"/>
      <use xlink:href="#DejaVuSans-69" x="300.292969"/>
      <use xlink:href="#DejaVuSans-76" x="328.076172"/>
      <use xlink:href="#DejaVuSans-65" x="387.255859"/>
      <use xlink:href="#DejaVuSans-20" x="448.779297"/>
      <use xlink:href="#DejaVuSans-72" x="480.566406"/>
      <use xlink:href="#DejaVuSans-6f" x="519.429688"/>
      <use xlink:href="#DejaVuSans-74" x="580.611328"/>
      <use xlink:href="#DejaVuSans-61" x="619.820312"/>
      <use xlink:href="#DejaVuSans-74" x="681.099609"/>
      <use xlink:href="#DejaVuSans-69" x="720.308594"/>
      <use xlink:href="#DejaVuSans-6f" x="748.091797"/>
      <use xlink:href="#DejaVuSans-6e" x="809.273438"/>
      <use xlink:href="#DejaVuSans-20" x="872.652344"/>
      <use xlink:href="#DejaVuSans-72" x="904.439453"/>
      <use xlink:href="#DejaVuSans-61" x="945.552734"/>
      <use xlink:href="#DejaVuSans-77" x="1006.832031"/>
     </g>
    </g>
    <g id="line2d_40">
     <path d="M 141.3 133.510412 
L 151.3 133.510412 
L 161.3 133.510412 
" style="fill: none; stroke: #ff7f0e; stroke-width: 1.5; stroke-linecap: square"/>
    </g>
    <g id="text_23">
     <!-- Negative rotation polyfit: [3.6e-06] -->
     <g transform="translate(169.3 137.010412) scale(0.1 -0.1)">
      <use xlink:href="#DejaVuSans-4e"/>
      <use xlink:href="#DejaVuSans-65" x="74.804688"/>
      <use xlink:href="#DejaVuSans-67" x="136.328125"/>
      <use xlink:href="#DejaVuSans-61" x="199.804688"/>
      <use xlink:href="#DejaVuSans-74" x="261.083984"/>
      <use xlink:href="#DejaVuSans-69" x="300.292969"/>
      <use xlink:href="#DejaVuSans-76" x="328.076172"/>
      <use xlink:href="#DejaVuSans-65" x="387.255859"/>
      <use xlink:href="#DejaVuSans-20" x="448.779297"/>
      <use xlink:href="#DejaVuSans-72" x="480.566406"/>
      <use xlink:href="#DejaVuSans-6f" x="519.429688"/>
      <use xlink:href="#DejaVuSans-74" x="580.611328"/>
      <use xlink:href="#DejaVuSans-61" x="619.820312"/>
      <use xlink:href="#DejaVuSans-74" x="681.099609"/>
      <use xlink:href="#DejaVuSans-69" x="720.308594"/>
      <use xlink:href="#DejaVuSans-6f" x="748.091797"/>
      <use xlink:href="#DejaVuSans-6e" x="809.273438"/>
      <use xlink:href="#DejaVuSans-20" x="872.652344"/>
      <use xlink:href="#DejaVuSans-70" x="904.439453"/>
      <use xlink:href="#DejaVuSans-6f" x="967.916016"/>
      <use xlink:href="#DejaVuSans-6c" x="1029.097656"/>
      <use xlink:href="#DejaVuSans-79" x="1056.880859"/>
      <use xlink:href="#DejaVuSans-66" x="1116.060547"/>
      <use xlink:href="#DejaVuSans-69" x="1151.265625"/>
      <use xlink:href="#DejaVuSans-74" x="1179.048828"/>
      <use xlink:href="#DejaVuSans-3a" x="1218.257812"/>
      <use xlink:href="#DejaVuSans-20" x="1251.949219"/>
      <use xlink:href="#DejaVuSans-5b" x="1283.736328"/>
      <use xlink:href="#DejaVuSans-33" x="1322.75"/>
      <use xlink:href="#DejaVuSans-2e" x="1386.373047"/>
      <use xlink:href="#DejaVuSans-36" x="1418.160156"/>
      <use xlink:href="#DejaVuSans-65" x="1481.783203"/>
      <use xlink:href="#DejaVuSans-2d" x="1543.306641"/>
      <use xlink:href="#DejaVuSans-30" x="1579.390625"/>
      <use xlink:href="#DejaVuSans-36" x="1643.013672"/>
      <use xlink:href="#DejaVuSans-5d" x="1706.636719"/>
     </g>
    </g>
   </g>
  </g>
 </g>
 <defs>
  <clipPath id="pbe8dd5d0fa">
   <rect x="132.3" y="76.3776" width="820.26" height="490.0896"/>
  </clipPath>
 </defs>
</svg>
