<?xml version="1.0" encoding="utf-8" standalone="no"?>
<!DOCTYPE svg PUBLIC "-//W3C//DTD SVG 1.1//EN"
  "http://www.w3.org/Graphics/SVG/1.1/DTD/svg11.dtd">
<svg xmlns:xlink="http://www.w3.org/1999/xlink" width="1058.4pt" height="636.48pt" viewBox="0 0 1058.4 636.48" xmlns="http://www.w3.org/2000/svg" version="1.1">
 <metadata>
  <rdf:RDF xmlns:dc="http://purl.org/dc/elements/1.1/" xmlns:cc="http://creativecommons.org/ns#" xmlns:rdf="http://www.w3.org/1999/02/22-rdf-syntax-ns#">
   <cc:Work>
    <dc:type rdf:resource="http://purl.org/dc/dcmitype/StillImage"/>
    <dc:date>2023-06-07T21:23:52.951313</dc:date>
    <dc:format>image/svg+xml</dc:format>
    <dc:creator>
     <cc:Agent>
      <dc:title>Matplotlib v3.6.2, https://matplotlib.org/</dc:title>
     </cc:Agent>
    </dc:creator>
   </cc:Work>
  </rdf:RDF>
 </metadata>
 <defs>
  <style type="text/css">*{stroke-linejoin: round; stroke-linecap: butt}</style>
 </defs>
 <g id="figure_1">
  <g id="patch_1">
   <path d="M 0 636.48 
L 1058.4 636.48 
L 1058.4 0 
L 0 0 
z
" style="fill: #ffffff"/>
  </g>
  <g id="axes_1">
   <g id="patch_2">
    <path d="M 132.3 566.4672 
L 952.56 566.4672 
L 952.56 76.3776 
L 132.3 76.3776 
z
" style="fill: #ffffff"/>
   </g>
   <g id="matplotlib.axis_1">
    <g id="xtick_1">
     <g id="line2d_1">
      <path d="M 195.180456 566.4672 
L 195.180456 76.3776 
" clip-path="url(#p59ab232bc3)" style="fill: none; stroke: #b0b0b0; stroke-width: 0.8; stroke-linecap: square"/>
     </g>
     <g id="line2d_2">
      <defs>
       <path id="mec584ff3d7" d="M 0 0 
L 0 3.5 
" style="stroke: #000000; stroke-width: 0.8"/>
      </defs>
      <g>
       <use xlink:href="#mec584ff3d7" x="195.180456" y="566.4672" style="stroke: #000000; stroke-width: 0.8"/>
      </g>
     </g>
     <g id="text_1">
      <!-- −750 -->
      <g transform="translate(181.446862 581.065637) scale(0.1 -0.1)">
       <defs>
        <path id="DejaVuSans-2212" d="M 678 2272 
L 4684 2272 
L 4684 1741 
L 678 1741 
L 678 2272 
z
" transform="scale(0.015625)"/>
        <path id="DejaVuSans-37" d="M 525 4666 
L 3525 4666 
L 3525 4397 
L 1831 0 
L 1172 0 
L 2766 4134 
L 525 4134 
L 525 4666 
z
" transform="scale(0.015625)"/>
        <path id="DejaVuSans-35" d="M 691 4666 
L 3169 4666 
L 3169 4134 
L 1269 4134 
L 1269 2991 
Q 1406 3038 1543 3061 
Q 1681 3084 1819 3084 
Q 2600 3084 3056 2656 
Q 3513 2228 3513 1497 
Q 3513 744 3044 326 
Q 2575 -91 1722 -91 
Q 1428 -91 1123 -41 
Q 819 9 494 109 
L 494 744 
Q 775 591 1075 516 
Q 1375 441 1709 441 
Q 2250 441 2565 725 
Q 2881 1009 2881 1497 
Q 2881 1984 2565 2268 
Q 2250 2553 1709 2553 
Q 1456 2553 1204 2497 
Q 953 2441 691 2322 
L 691 4666 
z
" transform="scale(0.015625)"/>
        <path id="DejaVuSans-30" d="M 2034 4250 
Q 1547 4250 1301 3770 
Q 1056 3291 1056 2328 
Q 1056 1369 1301 889 
Q 1547 409 2034 409 
Q 2525 409 2770 889 
Q 3016 1369 3016 2328 
Q 3016 3291 2770 3770 
Q 2525 4250 2034 4250 
z
M 2034 4750 
Q 2819 4750 3233 4129 
Q 3647 3509 3647 2328 
Q 3647 1150 3233 529 
Q 2819 -91 2034 -91 
Q 1250 -91 836 529 
Q 422 1150 422 2328 
Q 422 3509 836 4129 
Q 1250 4750 2034 4750 
z
" transform="scale(0.015625)"/>
       </defs>
       <use xlink:href="#DejaVuSans-2212"/>
       <use xlink:href="#DejaVuSans-37" x="83.789062"/>
       <use xlink:href="#DejaVuSans-35" x="147.412109"/>
       <use xlink:href="#DejaVuSans-30" x="211.035156"/>
      </g>
     </g>
    </g>
    <g id="xtick_2">
     <g id="line2d_3">
      <path d="M 307.915933 566.4672 
L 307.915933 76.3776 
" clip-path="url(#p59ab232bc3)" style="fill: none; stroke: #b0b0b0; stroke-width: 0.8; stroke-linecap: square"/>
     </g>
     <g id="line2d_4">
      <g>
       <use xlink:href="#mec584ff3d7" x="307.915933" y="566.4672" style="stroke: #000000; stroke-width: 0.8"/>
      </g>
     </g>
     <g id="text_2">
      <!-- −500 -->
      <g transform="translate(294.182339 581.065637) scale(0.1 -0.1)">
       <use xlink:href="#DejaVuSans-2212"/>
       <use xlink:href="#DejaVuSans-35" x="83.789062"/>
       <use xlink:href="#DejaVuSans-30" x="147.412109"/>
       <use xlink:href="#DejaVuSans-30" x="211.035156"/>
      </g>
     </g>
    </g>
    <g id="xtick_3">
     <g id="line2d_5">
      <path d="M 420.65141 566.4672 
L 420.65141 76.3776 
" clip-path="url(#p59ab232bc3)" style="fill: none; stroke: #b0b0b0; stroke-width: 0.8; stroke-linecap: square"/>
     </g>
     <g id="line2d_6">
      <g>
       <use xlink:href="#mec584ff3d7" x="420.65141" y="566.4672" style="stroke: #000000; stroke-width: 0.8"/>
      </g>
     </g>
     <g id="text_3">
      <!-- −250 -->
      <g transform="translate(406.917816 581.065637) scale(0.1 -0.1)">
       <defs>
        <path id="DejaVuSans-32" d="M 1228 531 
L 3431 531 
L 3431 0 
L 469 0 
L 469 531 
Q 828 903 1448 1529 
Q 2069 2156 2228 2338 
Q 2531 2678 2651 2914 
Q 2772 3150 2772 3378 
Q 2772 3750 2511 3984 
Q 2250 4219 1831 4219 
Q 1534 4219 1204 4116 
Q 875 4013 500 3803 
L 500 4441 
Q 881 4594 1212 4672 
Q 1544 4750 1819 4750 
Q 2544 4750 2975 4387 
Q 3406 4025 3406 3419 
Q 3406 3131 3298 2873 
Q 3191 2616 2906 2266 
Q 2828 2175 2409 1742 
Q 1991 1309 1228 531 
z
" transform="scale(0.015625)"/>
       </defs>
       <use xlink:href="#DejaVuSans-2212"/>
       <use xlink:href="#DejaVuSans-32" x="83.789062"/>
       <use xlink:href="#DejaVuSans-35" x="147.412109"/>
       <use xlink:href="#DejaVuSans-30" x="211.035156"/>
      </g>
     </g>
    </g>
    <g id="xtick_4">
     <g id="line2d_7">
      <path d="M 533.386886 566.4672 
L 533.386886 76.3776 
" clip-path="url(#p59ab232bc3)" style="fill: none; stroke: #b0b0b0; stroke-width: 0.8; stroke-linecap: square"/>
     </g>
     <g id="line2d_8">
      <g>
       <use xlink:href="#mec584ff3d7" x="533.386886" y="566.4672" style="stroke: #000000; stroke-width: 0.8"/>
      </g>
     </g>
     <g id="text_4">
      <!-- 0 -->
      <g transform="translate(530.205636 581.065637) scale(0.1 -0.1)">
       <use xlink:href="#DejaVuSans-30"/>
      </g>
     </g>
    </g>
    <g id="xtick_5">
     <g id="line2d_9">
      <path d="M 646.122363 566.4672 
L 646.122363 76.3776 
" clip-path="url(#p59ab232bc3)" style="fill: none; stroke: #b0b0b0; stroke-width: 0.8; stroke-linecap: square"/>
     </g>
     <g id="line2d_10">
      <g>
       <use xlink:href="#mec584ff3d7" x="646.122363" y="566.4672" style="stroke: #000000; stroke-width: 0.8"/>
      </g>
     </g>
     <g id="text_5">
      <!-- 250 -->
      <g transform="translate(636.578613 581.065637) scale(0.1 -0.1)">
       <use xlink:href="#DejaVuSans-32"/>
       <use xlink:href="#DejaVuSans-35" x="63.623047"/>
       <use xlink:href="#DejaVuSans-30" x="127.246094"/>
      </g>
     </g>
    </g>
    <g id="xtick_6">
     <g id="line2d_11">
      <path d="M 758.85784 566.4672 
L 758.85784 76.3776 
" clip-path="url(#p59ab232bc3)" style="fill: none; stroke: #b0b0b0; stroke-width: 0.8; stroke-linecap: square"/>
     </g>
     <g id="line2d_12">
      <g>
       <use xlink:href="#mec584ff3d7" x="758.85784" y="566.4672" style="stroke: #000000; stroke-width: 0.8"/>
      </g>
     </g>
     <g id="text_6">
      <!-- 500 -->
      <g transform="translate(749.31409 581.065637) scale(0.1 -0.1)">
       <use xlink:href="#DejaVuSans-35"/>
       <use xlink:href="#DejaVuSans-30" x="63.623047"/>
       <use xlink:href="#DejaVuSans-30" x="127.246094"/>
      </g>
     </g>
    </g>
    <g id="xtick_7">
     <g id="line2d_13">
      <path d="M 871.593316 566.4672 
L 871.593316 76.3776 
" clip-path="url(#p59ab232bc3)" style="fill: none; stroke: #b0b0b0; stroke-width: 0.8; stroke-linecap: square"/>
     </g>
     <g id="line2d_14">
      <g>
       <use xlink:href="#mec584ff3d7" x="871.593316" y="566.4672" style="stroke: #000000; stroke-width: 0.8"/>
      </g>
     </g>
     <g id="text_7">
      <!-- 750 -->
      <g transform="translate(862.049566 581.065637) scale(0.1 -0.1)">
       <use xlink:href="#DejaVuSans-37"/>
       <use xlink:href="#DejaVuSans-35" x="63.623047"/>
       <use xlink:href="#DejaVuSans-30" x="127.246094"/>
      </g>
     </g>
    </g>
    <g id="text_8">
     <!-- $\omega$ [rad/s] -->
     <g transform="translate(520.13 594.743763) scale(0.1 -0.1)">
      <defs>
       <path id="DejaVuSans-Oblique-3c9" d="M 1369 -91 
Q 72 -91 434 1766 
Q 575 2500 1256 3500 
L 1875 3500 
Q 1231 2500 1088 1750 
Q 819 397 1519 397 
Q 2166 397 2478 2078 
L 3009 2078 
Q 2669 388 3316 397 
Q 4013 403 4275 1750 
Q 4419 2500 4169 3500 
L 4788 3500 
Q 5075 2500 4934 1766 
Q 4578 -94 3278 -91 
Q 2428 -88 2503 844 
Q 2194 -91 1369 -91 
z
" transform="scale(0.015625)"/>
       <path id="DejaVuSans-20" transform="scale(0.015625)"/>
       <path id="DejaVuSans-5b" d="M 550 4863 
L 1875 4863 
L 1875 4416 
L 1125 4416 
L 1125 -397 
L 1875 -397 
L 1875 -844 
L 550 -844 
L 550 4863 
z
" transform="scale(0.015625)"/>
       <path id="DejaVuSans-72" d="M 2631 2963 
Q 2534 3019 2420 3045 
Q 2306 3072 2169 3072 
Q 1681 3072 1420 2755 
Q 1159 2438 1159 1844 
L 1159 0 
L 581 0 
L 581 3500 
L 1159 3500 
L 1159 2956 
Q 1341 3275 1631 3429 
Q 1922 3584 2338 3584 
Q 2397 3584 2469 3576 
Q 2541 3569 2628 3553 
L 2631 2963 
z
" transform="scale(0.015625)"/>
       <path id="DejaVuSans-61" d="M 2194 1759 
Q 1497 1759 1228 1600 
Q 959 1441 959 1056 
Q 959 750 1161 570 
Q 1363 391 1709 391 
Q 2188 391 2477 730 
Q 2766 1069 2766 1631 
L 2766 1759 
L 2194 1759 
z
M 3341 1997 
L 3341 0 
L 2766 0 
L 2766 531 
Q 2569 213 2275 61 
Q 1981 -91 1556 -91 
Q 1019 -91 701 211 
Q 384 513 384 1019 
Q 384 1609 779 1909 
Q 1175 2209 1959 2209 
L 2766 2209 
L 2766 2266 
Q 2766 2663 2505 2880 
Q 2244 3097 1772 3097 
Q 1472 3097 1187 3025 
Q 903 2953 641 2809 
L 641 3341 
Q 956 3463 1253 3523 
Q 1550 3584 1831 3584 
Q 2591 3584 2966 3190 
Q 3341 2797 3341 1997 
z
" transform="scale(0.015625)"/>
       <path id="DejaVuSans-64" d="M 2906 2969 
L 2906 4863 
L 3481 4863 
L 3481 0 
L 2906 0 
L 2906 525 
Q 2725 213 2448 61 
Q 2172 -91 1784 -91 
Q 1150 -91 751 415 
Q 353 922 353 1747 
Q 353 2572 751 3078 
Q 1150 3584 1784 3584 
Q 2172 3584 2448 3432 
Q 2725 3281 2906 2969 
z
M 947 1747 
Q 947 1113 1208 752 
Q 1469 391 1925 391 
Q 2381 391 2643 752 
Q 2906 1113 2906 1747 
Q 2906 2381 2643 2742 
Q 2381 3103 1925 3103 
Q 1469 3103 1208 2742 
Q 947 2381 947 1747 
z
" transform="scale(0.015625)"/>
       <path id="DejaVuSans-2f" d="M 1625 4666 
L 2156 4666 
L 531 -594 
L 0 -594 
L 1625 4666 
z
" transform="scale(0.015625)"/>
       <path id="DejaVuSans-73" d="M 2834 3397 
L 2834 2853 
Q 2591 2978 2328 3040 
Q 2066 3103 1784 3103 
Q 1356 3103 1142 2972 
Q 928 2841 928 2578 
Q 928 2378 1081 2264 
Q 1234 2150 1697 2047 
L 1894 2003 
Q 2506 1872 2764 1633 
Q 3022 1394 3022 966 
Q 3022 478 2636 193 
Q 2250 -91 1575 -91 
Q 1294 -91 989 -36 
Q 684 19 347 128 
L 347 722 
Q 666 556 975 473 
Q 1284 391 1588 391 
Q 1994 391 2212 530 
Q 2431 669 2431 922 
Q 2431 1156 2273 1281 
Q 2116 1406 1581 1522 
L 1381 1569 
Q 847 1681 609 1914 
Q 372 2147 372 2553 
Q 372 3047 722 3315 
Q 1072 3584 1716 3584 
Q 2034 3584 2315 3537 
Q 2597 3491 2834 3397 
z
" transform="scale(0.015625)"/>
       <path id="DejaVuSans-5d" d="M 1947 4863 
L 1947 -844 
L 622 -844 
L 622 -397 
L 1369 -397 
L 1369 4416 
L 622 4416 
L 622 4863 
L 1947 4863 
z
" transform="scale(0.015625)"/>
      </defs>
      <use xlink:href="#DejaVuSans-Oblique-3c9" transform="translate(0 0.015625)"/>
      <use xlink:href="#DejaVuSans-20" transform="translate(83.740234 0.015625)"/>
      <use xlink:href="#DejaVuSans-5b" transform="translate(115.527344 0.015625)"/>
      <use xlink:href="#DejaVuSans-72" transform="translate(154.541016 0.015625)"/>
      <use xlink:href="#DejaVuSans-61" transform="translate(195.654297 0.015625)"/>
      <use xlink:href="#DejaVuSans-64" transform="translate(256.933594 0.015625)"/>
      <use xlink:href="#DejaVuSans-2f" transform="translate(320.410156 0.015625)"/>
      <use xlink:href="#DejaVuSans-73" transform="translate(354.101562 0.015625)"/>
      <use xlink:href="#DejaVuSans-5d" transform="translate(406.201172 0.015625)"/>
     </g>
    </g>
   </g>
   <g id="matplotlib.axis_2">
    <g id="ytick_1">
     <g id="line2d_15">
      <path d="M 132.3 530.2674 
L 952.56 530.2674 
" clip-path="url(#p59ab232bc3)" style="fill: none; stroke: #b0b0b0; stroke-width: 0.8; stroke-linecap: square"/>
     </g>
     <g id="line2d_16">
      <defs>
       <path id="m32d891d02f" d="M 0 0 
L -3.5 0 
" style="stroke: #000000; stroke-width: 0.8"/>
      </defs>
      <g>
       <use xlink:href="#m32d891d02f" x="132.3" y="530.2674" style="stroke: #000000; stroke-width: 0.8"/>
      </g>
     </g>
     <g id="text_9">
      <!-- −30000 -->
      <g transform="translate(85.107812 534.066619) scale(0.1 -0.1)">
       <defs>
        <path id="DejaVuSans-33" d="M 2597 2516 
Q 3050 2419 3304 2112 
Q 3559 1806 3559 1356 
Q 3559 666 3084 287 
Q 2609 -91 1734 -91 
Q 1441 -91 1130 -33 
Q 819 25 488 141 
L 488 750 
Q 750 597 1062 519 
Q 1375 441 1716 441 
Q 2309 441 2620 675 
Q 2931 909 2931 1356 
Q 2931 1769 2642 2001 
Q 2353 2234 1838 2234 
L 1294 2234 
L 1294 2753 
L 1863 2753 
Q 2328 2753 2575 2939 
Q 2822 3125 2822 3475 
Q 2822 3834 2567 4026 
Q 2313 4219 1838 4219 
Q 1578 4219 1281 4162 
Q 984 4106 628 3988 
L 628 4550 
Q 988 4650 1302 4700 
Q 1616 4750 1894 4750 
Q 2613 4750 3031 4423 
Q 3450 4097 3450 3541 
Q 3450 3153 3228 2886 
Q 3006 2619 2597 2516 
z
" transform="scale(0.015625)"/>
       </defs>
       <use xlink:href="#DejaVuSans-2212"/>
       <use xlink:href="#DejaVuSans-33" x="83.789062"/>
       <use xlink:href="#DejaVuSans-30" x="147.412109"/>
       <use xlink:href="#DejaVuSans-30" x="211.035156"/>
       <use xlink:href="#DejaVuSans-30" x="274.658203"/>
       <use xlink:href="#DejaVuSans-30" x="338.28125"/>
      </g>
     </g>
    </g>
    <g id="ytick_2">
     <g id="line2d_17">
      <path d="M 132.3 460.6524 
L 952.56 460.6524 
" clip-path="url(#p59ab232bc3)" style="fill: none; stroke: #b0b0b0; stroke-width: 0.8; stroke-linecap: square"/>
     </g>
     <g id="line2d_18">
      <g>
       <use xlink:href="#m32d891d02f" x="132.3" y="460.6524" style="stroke: #000000; stroke-width: 0.8"/>
      </g>
     </g>
     <g id="text_10">
      <!-- −20000 -->
      <g transform="translate(85.107812 464.451619) scale(0.1 -0.1)">
       <use xlink:href="#DejaVuSans-2212"/>
       <use xlink:href="#DejaVuSans-32" x="83.789062"/>
       <use xlink:href="#DejaVuSans-30" x="147.412109"/>
       <use xlink:href="#DejaVuSans-30" x="211.035156"/>
       <use xlink:href="#DejaVuSans-30" x="274.658203"/>
       <use xlink:href="#DejaVuSans-30" x="338.28125"/>
      </g>
     </g>
    </g>
    <g id="ytick_3">
     <g id="line2d_19">
      <path d="M 132.3 391.0374 
L 952.56 391.0374 
" clip-path="url(#p59ab232bc3)" style="fill: none; stroke: #b0b0b0; stroke-width: 0.8; stroke-linecap: square"/>
     </g>
     <g id="line2d_20">
      <g>
       <use xlink:href="#m32d891d02f" x="132.3" y="391.0374" style="stroke: #000000; stroke-width: 0.8"/>
      </g>
     </g>
     <g id="text_11">
      <!-- −10000 -->
      <g transform="translate(85.107812 394.836619) scale(0.1 -0.1)">
       <defs>
        <path id="DejaVuSans-31" d="M 794 531 
L 1825 531 
L 1825 4091 
L 703 3866 
L 703 4441 
L 1819 4666 
L 2450 4666 
L 2450 531 
L 3481 531 
L 3481 0 
L 794 0 
L 794 531 
z
" transform="scale(0.015625)"/>
       </defs>
       <use xlink:href="#DejaVuSans-2212"/>
       <use xlink:href="#DejaVuSans-31" x="83.789062"/>
       <use xlink:href="#DejaVuSans-30" x="147.412109"/>
       <use xlink:href="#DejaVuSans-30" x="211.035156"/>
       <use xlink:href="#DejaVuSans-30" x="274.658203"/>
       <use xlink:href="#DejaVuSans-30" x="338.28125"/>
      </g>
     </g>
    </g>
    <g id="ytick_4">
     <g id="line2d_21">
      <path d="M 132.3 321.4224 
L 952.56 321.4224 
" clip-path="url(#p59ab232bc3)" style="fill: none; stroke: #b0b0b0; stroke-width: 0.8; stroke-linecap: square"/>
     </g>
     <g id="line2d_22">
      <g>
       <use xlink:href="#m32d891d02f" x="132.3" y="321.4224" style="stroke: #000000; stroke-width: 0.8"/>
      </g>
     </g>
     <g id="text_12">
      <!-- 0 -->
      <g transform="translate(118.9375 325.221619) scale(0.1 -0.1)">
       <use xlink:href="#DejaVuSans-30"/>
      </g>
     </g>
    </g>
    <g id="ytick_5">
     <g id="line2d_23">
      <path d="M 132.3 251.8074 
L 952.56 251.8074 
" clip-path="url(#p59ab232bc3)" style="fill: none; stroke: #b0b0b0; stroke-width: 0.8; stroke-linecap: square"/>
     </g>
     <g id="line2d_24">
      <g>
       <use xlink:href="#m32d891d02f" x="132.3" y="251.8074" style="stroke: #000000; stroke-width: 0.8"/>
      </g>
     </g>
     <g id="text_13">
      <!-- 10000 -->
      <g transform="translate(93.4875 255.606619) scale(0.1 -0.1)">
       <use xlink:href="#DejaVuSans-31"/>
       <use xlink:href="#DejaVuSans-30" x="63.623047"/>
       <use xlink:href="#DejaVuSans-30" x="127.246094"/>
       <use xlink:href="#DejaVuSans-30" x="190.869141"/>
       <use xlink:href="#DejaVuSans-30" x="254.492188"/>
      </g>
     </g>
    </g>
    <g id="ytick_6">
     <g id="line2d_25">
      <path d="M 132.3 182.1924 
L 952.56 182.1924 
" clip-path="url(#p59ab232bc3)" style="fill: none; stroke: #b0b0b0; stroke-width: 0.8; stroke-linecap: square"/>
     </g>
     <g id="line2d_26">
      <g>
       <use xlink:href="#m32d891d02f" x="132.3" y="182.1924" style="stroke: #000000; stroke-width: 0.8"/>
      </g>
     </g>
     <g id="text_14">
      <!-- 20000 -->
      <g transform="translate(93.4875 185.991619) scale(0.1 -0.1)">
       <use xlink:href="#DejaVuSans-32"/>
       <use xlink:href="#DejaVuSans-30" x="63.623047"/>
       <use xlink:href="#DejaVuSans-30" x="127.246094"/>
       <use xlink:href="#DejaVuSans-30" x="190.869141"/>
       <use xlink:href="#DejaVuSans-30" x="254.492188"/>
      </g>
     </g>
    </g>
    <g id="ytick_7">
     <g id="line2d_27">
      <path d="M 132.3 112.5774 
L 952.56 112.5774 
" clip-path="url(#p59ab232bc3)" style="fill: none; stroke: #b0b0b0; stroke-width: 0.8; stroke-linecap: square"/>
     </g>
     <g id="line2d_28">
      <g>
       <use xlink:href="#m32d891d02f" x="132.3" y="112.5774" style="stroke: #000000; stroke-width: 0.8"/>
      </g>
     </g>
     <g id="text_15">
      <!-- 30000 -->
      <g transform="translate(93.4875 116.376619) scale(0.1 -0.1)">
       <use xlink:href="#DejaVuSans-33"/>
       <use xlink:href="#DejaVuSans-30" x="63.623047"/>
       <use xlink:href="#DejaVuSans-30" x="127.246094"/>
       <use xlink:href="#DejaVuSans-30" x="190.869141"/>
       <use xlink:href="#DejaVuSans-30" x="254.492188"/>
      </g>
     </g>
    </g>
    <g id="text_16">
     <!-- $u$ [-] -->
     <g transform="translate(79.028125 331.9224) rotate(-90) scale(0.1 -0.1)">
      <defs>
       <path id="DejaVuSans-Oblique-75" d="M 428 1388 
L 838 3500 
L 1416 3500 
L 1006 1409 
Q 975 1256 961 1147 
Q 947 1038 947 966 
Q 947 700 1109 554 
Q 1272 409 1569 409 
Q 2031 409 2368 721 
Q 2706 1034 2809 1563 
L 3194 3500 
L 3769 3500 
L 3091 0 
L 2516 0 
L 2631 550 
Q 2388 244 2052 76 
Q 1716 -91 1338 -91 
Q 878 -91 622 161 
Q 366 413 366 863 
Q 366 956 381 1097 
Q 397 1238 428 1388 
z
" transform="scale(0.015625)"/>
       <path id="DejaVuSans-2d" d="M 313 2009 
L 1997 2009 
L 1997 1497 
L 313 1497 
L 313 2009 
z
" transform="scale(0.015625)"/>
      </defs>
      <use xlink:href="#DejaVuSans-Oblique-75" transform="translate(0 0.015625)"/>
      <use xlink:href="#DejaVuSans-20" transform="translate(63.378906 0.015625)"/>
      <use xlink:href="#DejaVuSans-5b" transform="translate(95.166016 0.015625)"/>
      <use xlink:href="#DejaVuSans-2d" transform="translate(134.179688 0.015625)"/>
      <use xlink:href="#DejaVuSans-5d" transform="translate(170.263672 0.015625)"/>
     </g>
    </g>
   </g>
   <g id="line2d_29">
    <defs>
     <path id="m7a57dd3b98" d="M 0 3 
C 0.795609 3 1.55874 2.683901 2.12132 2.12132 
C 2.683901 1.55874 3 0.795609 3 0 
C 3 -0.795609 2.683901 -1.55874 2.12132 -2.12132 
C 1.55874 -2.683901 0.795609 -3 0 -3 
C -0.795609 -3 -1.55874 -2.683901 -2.12132 -2.12132 
C -2.683901 -1.55874 -3 -0.795609 -3 0 
C -3 0.795609 -2.683901 1.55874 -2.12132 2.12132 
C -1.55874 2.683901 -0.795609 3 0 3 
z
" style="stroke: #1f77b4"/>
    </defs>
    <g clip-path="url(#p59ab232bc3)">
     <use xlink:href="#m7a57dd3b98" x="533.386886" y="321.4224" style="fill: #1f77b4; stroke: #1f77b4"/>
     <use xlink:href="#m7a57dd3b98" x="590.66781" y="321.415439" style="fill: #1f77b4; stroke: #1f77b4"/>
     <use xlink:href="#m7a57dd3b98" x="590.903923" y="321.352785" style="fill: #1f77b4; stroke: #1f77b4"/>
     <use xlink:href="#m7a57dd3b98" x="591.801151" y="320.72625" style="fill: #1f77b4; stroke: #1f77b4"/>
     <use xlink:href="#m7a57dd3b98" x="604.881791" y="314.4609" style="fill: #1f77b4; stroke: #1f77b4"/>
     <use xlink:href="#m7a57dd3b98" x="617.58465" y="307.4994" style="fill: #1f77b4; stroke: #1f77b4"/>
     <use xlink:href="#m7a57dd3b98" x="640.959801" y="293.5764" style="fill: #1f77b4; stroke: #1f77b4"/>
     <use xlink:href="#m7a57dd3b98" x="679.162824" y="265.7304" style="fill: #1f77b4; stroke: #1f77b4"/>
     <use xlink:href="#m7a57dd3b98" x="719.113081" y="237.8844" style="fill: #1f77b4; stroke: #1f77b4"/>
     <use xlink:href="#m7a57dd3b98" x="761.89669" y="210.0384" style="fill: #1f77b4; stroke: #1f77b4"/>
     <use xlink:href="#m7a57dd3b98" x="803.310845" y="182.1924" style="fill: #1f77b4; stroke: #1f77b4"/>
     <use xlink:href="#m7a57dd3b98" x="842.694432" y="154.3464" style="fill: #1f77b4; stroke: #1f77b4"/>
     <use xlink:href="#m7a57dd3b98" x="880.661343" y="126.5004" style="fill: #1f77b4; stroke: #1f77b4"/>
     <use xlink:href="#m7a57dd3b98" x="915.275455" y="98.6544" style="fill: #1f77b4; stroke: #1f77b4"/>
    </g>
   </g>
   <g id="line2d_30">
    <path d="M 617.58465 309.177928 
L 620.591628 307.085741 
L 623.598606 304.993553 
L 626.605584 302.901365 
L 629.612562 300.809178 
L 632.619539 298.71699 
L 635.626517 296.624803 
L 638.633495 294.532615 
L 641.640473 292.440427 
L 644.647451 290.34824 
L 647.654428 288.256052 
L 650.661406 286.163865 
L 653.668384 284.071677 
L 656.675362 281.979489 
L 659.68234 279.887302 
L 662.689318 277.795114 
L 665.696295 275.702927 
L 668.703273 273.610739 
L 671.710251 271.518551 
L 674.717229 269.426364 
L 677.724207 267.334176 
L 680.731184 265.241989 
L 683.738162 263.149801 
L 686.74514 261.057613 
L 689.752118 258.965426 
L 692.759096 256.873238 
L 695.766074 254.781051 
L 698.773051 252.688863 
L 701.780029 250.596675 
L 704.787007 248.504488 
L 707.793985 246.4123 
L 710.800963 244.320113 
L 713.807941 242.227925 
L 716.814918 240.135737 
L 719.821896 238.04355 
L 722.828874 235.951362 
L 725.835852 233.859175 
L 728.84283 231.766987 
L 731.849807 229.674799 
L 734.856785 227.582612 
L 737.863763 225.490424 
L 740.870741 223.398237 
L 743.877719 221.306049 
L 746.884697 219.213861 
L 749.891674 217.121674 
L 752.898652 215.029486 
L 755.90563 212.937299 
L 758.912608 210.845111 
L 761.919586 208.752923 
L 764.926563 206.660736 
L 767.933541 204.568548 
L 770.940519 202.476361 
L 773.947497 200.384173 
L 776.954475 198.291985 
L 779.961453 196.199798 
L 782.96843 194.10761 
L 785.975408 192.015423 
L 788.982386 189.923235 
L 791.989364 187.831047 
L 794.996342 185.73886 
L 798.00332 183.646672 
L 801.010297 181.554485 
L 804.017275 179.462297 
L 807.024253 177.370109 
L 810.031231 175.277922 
L 813.038209 173.185734 
L 816.045186 171.093547 
L 819.052164 169.001359 
L 822.059142 166.909171 
L 825.06612 164.816984 
L 828.073098 162.724796 
L 831.080076 160.632609 
L 834.087053 158.540421 
L 837.094031 156.448233 
L 840.101009 154.356046 
L 843.107987 152.263858 
L 846.114965 150.171671 
L 849.121942 148.079483 
L 852.12892 145.987295 
L 855.135898 143.895108 
L 858.142876 141.80292 
L 861.149854 139.710733 
L 864.156832 137.618545 
L 867.163809 135.526357 
L 870.170787 133.43417 
L 873.177765 131.341982 
L 876.184743 129.249795 
L 879.191721 127.157607 
L 882.198699 125.065419 
L 885.205676 122.973232 
L 888.212654 120.881044 
L 891.219632 118.788857 
L 894.22661 116.696669 
L 897.233588 114.604481 
L 900.240565 112.512294 
L 903.247543 110.420106 
L 906.254521 108.327919 
L 909.261499 106.235731 
L 912.268477 104.143543 
L 915.275455 102.051356 
" clip-path="url(#p59ab232bc3)" style="fill: none; stroke: #1f77b4; stroke-width: 1.5; stroke-linecap: square"/>
   </g>
   <g id="line2d_31">
    <defs>
     <path id="m56e1b2b045" d="M 0 3 
C 0.795609 3 1.55874 2.683901 2.12132 2.12132 
C 2.683901 1.55874 3 0.795609 3 0 
C 3 -0.795609 2.683901 -1.55874 2.12132 -2.12132 
C 1.55874 -2.683901 0.795609 -3 0 -3 
C -0.795609 -3 -1.55874 -2.683901 -2.12132 -2.12132 
C -2.683901 -1.55874 -3 -0.795609 -3 0 
C -3 0.795609 -2.683901 1.55874 -2.12132 2.12132 
C -1.55874 2.683901 -0.795609 3 0 3 
z
" style="stroke: #ff7f0e"/>
    </defs>
    <g clip-path="url(#p59ab232bc3)">
     <use xlink:href="#m56e1b2b045" x="533.386886" y="321.4224" style="fill: #ff7f0e; stroke: #ff7f0e"/>
     <use xlink:href="#m56e1b2b045" x="475.539292" y="321.429362" style="fill: #ff7f0e; stroke: #ff7f0e"/>
     <use xlink:href="#m56e1b2b045" x="475.303179" y="321.492015" style="fill: #ff7f0e; stroke: #ff7f0e"/>
     <use xlink:href="#m56e1b2b045" x="473.980948" y="322.11855" style="fill: #ff7f0e; stroke: #ff7f0e"/>
     <use xlink:href="#m56e1b2b045" x="460.380861" y="328.3839" style="fill: #ff7f0e; stroke: #ff7f0e"/>
     <use xlink:href="#m56e1b2b045" x="447.583556" y="335.3454" style="fill: #ff7f0e; stroke: #ff7f0e"/>
     <use xlink:href="#m56e1b2b045" x="424.302851" y="349.2684" style="fill: #ff7f0e; stroke: #ff7f0e"/>
     <use xlink:href="#m56e1b2b045" x="370.421949" y="377.1144" style="fill: #ff7f0e; stroke: #ff7f0e"/>
     <use xlink:href="#m56e1b2b045" x="347.282911" y="404.9604" style="fill: #ff7f0e; stroke: #ff7f0e"/>
     <use xlink:href="#m56e1b2b045" x="305.632643" y="432.8064" style="fill: #ff7f0e; stroke: #ff7f0e"/>
     <use xlink:href="#m56e1b2b045" x="263.69904" y="460.6524" style="fill: #ff7f0e; stroke: #ff7f0e"/>
     <use xlink:href="#m56e1b2b045" x="227.668253" y="488.4984" style="fill: #ff7f0e; stroke: #ff7f0e"/>
     <use xlink:href="#m56e1b2b045" x="189.795787" y="516.3444" style="fill: #ff7f0e; stroke: #ff7f0e"/>
     <use xlink:href="#m56e1b2b045" x="169.584545" y="544.1904" style="fill: #ff7f0e; stroke: #ff7f0e"/>
    </g>
   </g>
   <g id="line2d_32">
    <path d="M 169.584545 534.137356 
L 172.392616 532.069813 
L 175.200687 530.00227 
L 178.008758 527.934728 
L 180.816829 525.867185 
L 183.6249 523.799642 
L 186.43297 521.7321 
L 189.241041 519.664557 
L 192.049112 517.597015 
L 194.857183 515.529472 
L 197.665254 513.461929 
L 200.473324 511.394387 
L 203.281395 509.326844 
L 206.089466 507.259301 
L 208.897537 505.191759 
L 211.705608 503.124216 
L 214.513679 501.056673 
L 217.321749 498.989131 
L 220.12982 496.921588 
L 222.937891 494.854046 
L 225.745962 492.786503 
L 228.554033 490.71896 
L 231.362103 488.651418 
L 234.170174 486.583875 
L 236.978245 484.516332 
L 239.786316 482.44879 
L 242.594387 480.381247 
L 245.402458 478.313704 
L 248.210528 476.246162 
L 251.018599 474.178619 
L 253.82667 472.111076 
L 256.634741 470.043534 
L 259.442812 467.975991 
L 262.250882 465.908449 
L 265.058953 463.840906 
L 267.867024 461.773363 
L 270.675095 459.705821 
L 273.483166 457.638278 
L 276.291237 455.570735 
L 279.099307 453.503193 
L 281.907378 451.43565 
L 284.715449 449.368107 
L 287.52352 447.300565 
L 290.331591 445.233022 
L 293.139661 443.16548 
L 295.947732 441.097937 
L 298.755803 439.030394 
L 301.563874 436.962852 
L 304.371945 434.895309 
L 307.180016 432.827766 
L 309.988086 430.760224 
L 312.796157 428.692681 
L 315.604228 426.625138 
L 318.412299 424.557596 
L 321.22037 422.490053 
L 324.02844 420.422511 
L 326.836511 418.354968 
L 329.644582 416.287425 
L 332.452653 414.219883 
L 335.260724 412.15234 
L 338.068795 410.084797 
L 340.876865 408.017255 
L 343.684936 405.949712 
L 346.493007 403.882169 
L 349.301078 401.814627 
L 352.109149 399.747084 
L 354.917219 397.679542 
L 357.72529 395.611999 
L 360.533361 393.544456 
L 363.341432 391.476914 
L 366.149503 389.409371 
L 368.957574 387.341828 
L 371.765644 385.274286 
L 374.573715 383.206743 
L 377.381786 381.1392 
L 380.189857 379.071658 
L 382.997928 377.004115 
L 385.805998 374.936573 
L 388.614069 372.86903 
L 391.42214 370.801487 
L 394.230211 368.733945 
L 397.038282 366.666402 
L 399.846352 364.598859 
L 402.654423 362.531317 
L 405.462494 360.463774 
L 408.270565 358.396231 
L 411.078636 356.328689 
L 413.886707 354.261146 
L 416.694777 352.193603 
L 419.502848 350.126061 
L 422.310919 348.058518 
L 425.11899 345.990976 
L 427.927061 343.923433 
L 430.735131 341.85589 
L 433.543202 339.788348 
L 436.351273 337.720805 
L 439.159344 335.653262 
L 441.967415 333.58572 
L 444.775486 331.518177 
L 447.583556 329.450634 
" clip-path="url(#p59ab232bc3)" style="fill: none; stroke: #ff7f0e; stroke-width: 1.5; stroke-linecap: square"/>
   </g>
   <g id="patch_3">
    <path d="M 132.3 566.4672 
L 132.3 76.3776 
" style="fill: none; stroke: #000000; stroke-width: 0.8; stroke-linejoin: miter; stroke-linecap: square"/>
   </g>
   <g id="patch_4">
    <path d="M 952.56 566.4672 
L 952.56 76.3776 
" style="fill: none; stroke: #000000; stroke-width: 0.8; stroke-linejoin: miter; stroke-linecap: square"/>
   </g>
   <g id="patch_5">
    <path d="M 132.3 566.4672 
L 952.56 566.4672 
" style="fill: none; stroke: #000000; stroke-width: 0.8; stroke-linejoin: miter; stroke-linecap: square"/>
   </g>
   <g id="patch_6">
    <path d="M 132.3 76.3776 
L 952.56 76.3776 
" style="fill: none; stroke: #000000; stroke-width: 0.8; stroke-linejoin: miter; stroke-linecap: square"/>
   </g>
   <g id="text_17">
    <!-- T-MOTOR MN2212-V2.0 with 9.5x4.5 propeller -->
    <g transform="translate(404.50125 70.3776) scale(0.12 -0.12)">
     <defs>
      <path id="DejaVuSans-54" d="M -19 4666 
L 3928 4666 
L 3928 4134 
L 2272 4134 
L 2272 0 
L 1638 0 
L 1638 4134 
L -19 4134 
L -19 4666 
z
" transform="scale(0.015625)"/>
      <path id="DejaVuSans-4d" d="M 628 4666 
L 1569 4666 
L 2759 1491 
L 3956 4666 
L 4897 4666 
L 4897 0 
L 4281 0 
L 4281 4097 
L 3078 897 
L 2444 897 
L 1241 4097 
L 1241 0 
L 628 0 
L 628 4666 
z
" transform="scale(0.015625)"/>
      <path id="DejaVuSans-4f" d="M 2522 4238 
Q 1834 4238 1429 3725 
Q 1025 3213 1025 2328 
Q 1025 1447 1429 934 
Q 1834 422 2522 422 
Q 3209 422 3611 934 
Q 4013 1447 4013 2328 
Q 4013 3213 3611 3725 
Q 3209 4238 2522 4238 
z
M 2522 4750 
Q 3503 4750 4090 4092 
Q 4678 3434 4678 2328 
Q 4678 1225 4090 567 
Q 3503 -91 2522 -91 
Q 1538 -91 948 565 
Q 359 1222 359 2328 
Q 359 3434 948 4092 
Q 1538 4750 2522 4750 
z
" transform="scale(0.015625)"/>
      <path id="DejaVuSans-52" d="M 2841 2188 
Q 3044 2119 3236 1894 
Q 3428 1669 3622 1275 
L 4263 0 
L 3584 0 
L 2988 1197 
Q 2756 1666 2539 1819 
Q 2322 1972 1947 1972 
L 1259 1972 
L 1259 0 
L 628 0 
L 628 4666 
L 2053 4666 
Q 2853 4666 3247 4331 
Q 3641 3997 3641 3322 
Q 3641 2881 3436 2590 
Q 3231 2300 2841 2188 
z
M 1259 4147 
L 1259 2491 
L 2053 2491 
Q 2509 2491 2742 2702 
Q 2975 2913 2975 3322 
Q 2975 3731 2742 3939 
Q 2509 4147 2053 4147 
L 1259 4147 
z
" transform="scale(0.015625)"/>
      <path id="DejaVuSans-4e" d="M 628 4666 
L 1478 4666 
L 3547 763 
L 3547 4666 
L 4159 4666 
L 4159 0 
L 3309 0 
L 1241 3903 
L 1241 0 
L 628 0 
L 628 4666 
z
" transform="scale(0.015625)"/>
      <path id="DejaVuSans-56" d="M 1831 0 
L 50 4666 
L 709 4666 
L 2188 738 
L 3669 4666 
L 4325 4666 
L 2547 0 
L 1831 0 
z
" transform="scale(0.015625)"/>
      <path id="DejaVuSans-2e" d="M 684 794 
L 1344 794 
L 1344 0 
L 684 0 
L 684 794 
z
" transform="scale(0.015625)"/>
      <path id="DejaVuSans-77" d="M 269 3500 
L 844 3500 
L 1563 769 
L 2278 3500 
L 2956 3500 
L 3675 769 
L 4391 3500 
L 4966 3500 
L 4050 0 
L 3372 0 
L 2619 2869 
L 1863 0 
L 1184 0 
L 269 3500 
z
" transform="scale(0.015625)"/>
      <path id="DejaVuSans-69" d="M 603 3500 
L 1178 3500 
L 1178 0 
L 603 0 
L 603 3500 
z
M 603 4863 
L 1178 4863 
L 1178 4134 
L 603 4134 
L 603 4863 
z
" transform="scale(0.015625)"/>
      <path id="DejaVuSans-74" d="M 1172 4494 
L 1172 3500 
L 2356 3500 
L 2356 3053 
L 1172 3053 
L 1172 1153 
Q 1172 725 1289 603 
Q 1406 481 1766 481 
L 2356 481 
L 2356 0 
L 1766 0 
Q 1100 0 847 248 
Q 594 497 594 1153 
L 594 3053 
L 172 3053 
L 172 3500 
L 594 3500 
L 594 4494 
L 1172 4494 
z
" transform="scale(0.015625)"/>
      <path id="DejaVuSans-68" d="M 3513 2113 
L 3513 0 
L 2938 0 
L 2938 2094 
Q 2938 2591 2744 2837 
Q 2550 3084 2163 3084 
Q 1697 3084 1428 2787 
Q 1159 2491 1159 1978 
L 1159 0 
L 581 0 
L 581 4863 
L 1159 4863 
L 1159 2956 
Q 1366 3272 1645 3428 
Q 1925 3584 2291 3584 
Q 2894 3584 3203 3211 
Q 3513 2838 3513 2113 
z
" transform="scale(0.015625)"/>
      <path id="DejaVuSans-39" d="M 703 97 
L 703 672 
Q 941 559 1184 500 
Q 1428 441 1663 441 
Q 2288 441 2617 861 
Q 2947 1281 2994 2138 
Q 2813 1869 2534 1725 
Q 2256 1581 1919 1581 
Q 1219 1581 811 2004 
Q 403 2428 403 3163 
Q 403 3881 828 4315 
Q 1253 4750 1959 4750 
Q 2769 4750 3195 4129 
Q 3622 3509 3622 2328 
Q 3622 1225 3098 567 
Q 2575 -91 1691 -91 
Q 1453 -91 1209 -44 
Q 966 3 703 97 
z
M 1959 2075 
Q 2384 2075 2632 2365 
Q 2881 2656 2881 3163 
Q 2881 3666 2632 3958 
Q 2384 4250 1959 4250 
Q 1534 4250 1286 3958 
Q 1038 3666 1038 3163 
Q 1038 2656 1286 2365 
Q 1534 2075 1959 2075 
z
" transform="scale(0.015625)"/>
      <path id="DejaVuSans-78" d="M 3513 3500 
L 2247 1797 
L 3578 0 
L 2900 0 
L 1881 1375 
L 863 0 
L 184 0 
L 1544 1831 
L 300 3500 
L 978 3500 
L 1906 2253 
L 2834 3500 
L 3513 3500 
z
" transform="scale(0.015625)"/>
      <path id="DejaVuSans-34" d="M 2419 4116 
L 825 1625 
L 2419 1625 
L 2419 4116 
z
M 2253 4666 
L 3047 4666 
L 3047 1625 
L 3713 1625 
L 3713 1100 
L 3047 1100 
L 3047 0 
L 2419 0 
L 2419 1100 
L 313 1100 
L 313 1709 
L 2253 4666 
z
" transform="scale(0.015625)"/>
      <path id="DejaVuSans-70" d="M 1159 525 
L 1159 -1331 
L 581 -1331 
L 581 3500 
L 1159 3500 
L 1159 2969 
Q 1341 3281 1617 3432 
Q 1894 3584 2278 3584 
Q 2916 3584 3314 3078 
Q 3713 2572 3713 1747 
Q 3713 922 3314 415 
Q 2916 -91 2278 -91 
Q 1894 -91 1617 61 
Q 1341 213 1159 525 
z
M 3116 1747 
Q 3116 2381 2855 2742 
Q 2594 3103 2138 3103 
Q 1681 3103 1420 2742 
Q 1159 2381 1159 1747 
Q 1159 1113 1420 752 
Q 1681 391 2138 391 
Q 2594 391 2855 752 
Q 3116 1113 3116 1747 
z
" transform="scale(0.015625)"/>
      <path id="DejaVuSans-6f" d="M 1959 3097 
Q 1497 3097 1228 2736 
Q 959 2375 959 1747 
Q 959 1119 1226 758 
Q 1494 397 1959 397 
Q 2419 397 2687 759 
Q 2956 1122 2956 1747 
Q 2956 2369 2687 2733 
Q 2419 3097 1959 3097 
z
M 1959 3584 
Q 2709 3584 3137 3096 
Q 3566 2609 3566 1747 
Q 3566 888 3137 398 
Q 2709 -91 1959 -91 
Q 1206 -91 779 398 
Q 353 888 353 1747 
Q 353 2609 779 3096 
Q 1206 3584 1959 3584 
z
" transform="scale(0.015625)"/>
      <path id="DejaVuSans-65" d="M 3597 1894 
L 3597 1613 
L 953 1613 
Q 991 1019 1311 708 
Q 1631 397 2203 397 
Q 2534 397 2845 478 
Q 3156 559 3463 722 
L 3463 178 
Q 3153 47 2828 -22 
Q 2503 -91 2169 -91 
Q 1331 -91 842 396 
Q 353 884 353 1716 
Q 353 2575 817 3079 
Q 1281 3584 2069 3584 
Q 2775 3584 3186 3129 
Q 3597 2675 3597 1894 
z
M 3022 2063 
Q 3016 2534 2758 2815 
Q 2500 3097 2075 3097 
Q 1594 3097 1305 2825 
Q 1016 2553 972 2059 
L 3022 2063 
z
" transform="scale(0.015625)"/>
      <path id="DejaVuSans-6c" d="M 603 4863 
L 1178 4863 
L 1178 0 
L 603 0 
L 603 4863 
z
" transform="scale(0.015625)"/>
     </defs>
     <use xlink:href="#DejaVuSans-54"/>
     <use xlink:href="#DejaVuSans-2d" x="51.958984"/>
     <use xlink:href="#DejaVuSans-4d" x="88.042969"/>
     <use xlink:href="#DejaVuSans-4f" x="174.322266"/>
     <use xlink:href="#DejaVuSans-54" x="253.033203"/>
     <use xlink:href="#DejaVuSans-4f" x="314.117188"/>
     <use xlink:href="#DejaVuSans-52" x="392.828125"/>
     <use xlink:href="#DejaVuSans-20" x="462.310547"/>
     <use xlink:href="#DejaVuSans-4d" x="494.097656"/>
     <use xlink:href="#DejaVuSans-4e" x="580.376953"/>
     <use xlink:href="#DejaVuSans-32" x="655.181641"/>
     <use xlink:href="#DejaVuSans-32" x="718.804688"/>
     <use xlink:href="#DejaVuSans-31" x="782.427734"/>
     <use xlink:href="#DejaVuSans-32" x="846.050781"/>
     <use xlink:href="#DejaVuSans-2d" x="909.673828"/>
     <use xlink:href="#DejaVuSans-56" x="939.882812"/>
     <use xlink:href="#DejaVuSans-32" x="1008.291016"/>
     <use xlink:href="#DejaVuSans-2e" x="1071.914062"/>
     <use xlink:href="#DejaVuSans-30" x="1103.701172"/>
     <use xlink:href="#DejaVuSans-20" x="1167.324219"/>
     <use xlink:href="#DejaVuSans-77" x="1199.111328"/>
     <use xlink:href="#DejaVuSans-69" x="1280.898438"/>
     <use xlink:href="#DejaVuSans-74" x="1308.681641"/>
     <use xlink:href="#DejaVuSans-68" x="1347.890625"/>
     <use xlink:href="#DejaVuSans-20" x="1411.269531"/>
     <use xlink:href="#DejaVuSans-39" x="1443.056641"/>
     <use xlink:href="#DejaVuSans-2e" x="1506.679688"/>
     <use xlink:href="#DejaVuSans-35" x="1538.466797"/>
     <use xlink:href="#DejaVuSans-78" x="1602.089844"/>
     <use xlink:href="#DejaVuSans-34" x="1661.269531"/>
     <use xlink:href="#DejaVuSans-2e" x="1724.892578"/>
     <use xlink:href="#DejaVuSans-35" x="1756.679688"/>
     <use xlink:href="#DejaVuSans-20" x="1820.302734"/>
     <use xlink:href="#DejaVuSans-70" x="1852.089844"/>
     <use xlink:href="#DejaVuSans-72" x="1915.566406"/>
     <use xlink:href="#DejaVuSans-6f" x="1954.429688"/>
     <use xlink:href="#DejaVuSans-70" x="2015.611328"/>
     <use xlink:href="#DejaVuSans-65" x="2079.087891"/>
     <use xlink:href="#DejaVuSans-6c" x="2140.611328"/>
     <use xlink:href="#DejaVuSans-6c" x="2168.394531"/>
     <use xlink:href="#DejaVuSans-65" x="2196.177734"/>
     <use xlink:href="#DejaVuSans-72" x="2257.701172"/>
    </g>
   </g>
   <g id="legend_1">
    <g id="patch_7">
     <path d="M 139.3 143.0901 
L 387.442187 143.0901 
Q 389.442187 143.0901 389.442187 141.0901 
L 389.442187 83.3776 
Q 389.442187 81.3776 387.442187 81.3776 
L 139.3 81.3776 
Q 137.3 81.3776 137.3 83.3776 
L 137.3 141.0901 
Q 137.3 143.0901 139.3 143.0901 
z
" style="fill: #ffffff; opacity: 0.8; stroke: #cccccc; stroke-linejoin: miter"/>
    </g>
    <g id="line2d_33">
     <g>
      <use xlink:href="#m7a57dd3b98" x="151.3" y="89.476037" style="fill: #1f77b4; stroke: #1f77b4"/>
     </g>
    </g>
    <g id="text_18">
     <!-- Positive rotation raw -->
     <g transform="translate(169.3 92.976037) scale(0.1 -0.1)">
      <defs>
       <path id="DejaVuSans-50" d="M 1259 4147 
L 1259 2394 
L 2053 2394 
Q 2494 2394 2734 2622 
Q 2975 2850 2975 3272 
Q 2975 3691 2734 3919 
Q 2494 4147 2053 4147 
L 1259 4147 
z
M 628 4666 
L 2053 4666 
Q 2838 4666 3239 4311 
Q 3641 3956 3641 3272 
Q 3641 2581 3239 2228 
Q 2838 1875 2053 1875 
L 1259 1875 
L 1259 0 
L 628 0 
L 628 4666 
z
" transform="scale(0.015625)"/>
       <path id="DejaVuSans-76" d="M 191 3500 
L 800 3500 
L 1894 563 
L 2988 3500 
L 3597 3500 
L 2284 0 
L 1503 0 
L 191 3500 
z
" transform="scale(0.015625)"/>
       <path id="DejaVuSans-6e" d="M 3513 2113 
L 3513 0 
L 2938 0 
L 2938 2094 
Q 2938 2591 2744 2837 
Q 2550 3084 2163 3084 
Q 1697 3084 1428 2787 
Q 1159 2491 1159 1978 
L 1159 0 
L 581 0 
L 581 3500 
L 1159 3500 
L 1159 2956 
Q 1366 3272 1645 3428 
Q 1925 3584 2291 3584 
Q 2894 3584 3203 3211 
Q 3513 2838 3513 2113 
z
" transform="scale(0.015625)"/>
      </defs>
      <use xlink:href="#DejaVuSans-50"/>
      <use xlink:href="#DejaVuSans-6f" x="56.677734"/>
      <use xlink:href="#DejaVuSans-73" x="117.859375"/>
      <use xlink:href="#DejaVuSans-69" x="169.958984"/>
      <use xlink:href="#DejaVuSans-74" x="197.742188"/>
      <use xlink:href="#DejaVuSans-69" x="236.951172"/>
      <use xlink:href="#DejaVuSans-76" x="264.734375"/>
      <use xlink:href="#DejaVuSans-65" x="323.914062"/>
      <use xlink:href="#DejaVuSans-20" x="385.4375"/>
      <use xlink:href="#DejaVuSans-72" x="417.224609"/>
      <use xlink:href="#DejaVuSans-6f" x="456.087891"/>
      <use xlink:href="#DejaVuSans-74" x="517.269531"/>
      <use xlink:href="#DejaVuSans-61" x="556.478516"/>
      <use xlink:href="#DejaVuSans-74" x="617.757812"/>
      <use xlink:href="#DejaVuSans-69" x="656.966797"/>
      <use xlink:href="#DejaVuSans-6f" x="684.75"/>
      <use xlink:href="#DejaVuSans-6e" x="745.931641"/>
      <use xlink:href="#DejaVuSans-20" x="809.310547"/>
      <use xlink:href="#DejaVuSans-72" x="841.097656"/>
      <use xlink:href="#DejaVuSans-61" x="882.210938"/>
      <use xlink:href="#DejaVuSans-77" x="943.490234"/>
     </g>
    </g>
    <g id="line2d_34">
     <path d="M 141.3 104.154162 
L 151.3 104.154162 
L 161.3 104.154162 
" style="fill: none; stroke: #1f77b4; stroke-width: 1.5; stroke-linecap: square"/>
    </g>
    <g id="text_19">
     <!-- Positive rotation polyfit: [   45.07 -6656.39] -->
     <g transform="translate(169.3 107.654162) scale(0.1 -0.1)">
      <defs>
       <path id="DejaVuSans-79" d="M 2059 -325 
Q 1816 -950 1584 -1140 
Q 1353 -1331 966 -1331 
L 506 -1331 
L 506 -850 
L 844 -850 
Q 1081 -850 1212 -737 
Q 1344 -625 1503 -206 
L 1606 56 
L 191 3500 
L 800 3500 
L 1894 763 
L 2988 3500 
L 3597 3500 
L 2059 -325 
z
" transform="scale(0.015625)"/>
       <path id="DejaVuSans-66" d="M 2375 4863 
L 2375 4384 
L 1825 4384 
Q 1516 4384 1395 4259 
Q 1275 4134 1275 3809 
L 1275 3500 
L 2222 3500 
L 2222 3053 
L 1275 3053 
L 1275 0 
L 697 0 
L 697 3053 
L 147 3053 
L 147 3500 
L 697 3500 
L 697 3744 
Q 697 4328 969 4595 
Q 1241 4863 1831 4863 
L 2375 4863 
z
" transform="scale(0.015625)"/>
       <path id="DejaVuSans-3a" d="M 750 794 
L 1409 794 
L 1409 0 
L 750 0 
L 750 794 
z
M 750 3309 
L 1409 3309 
L 1409 2516 
L 750 2516 
L 750 3309 
z
" transform="scale(0.015625)"/>
       <path id="DejaVuSans-36" d="M 2113 2584 
Q 1688 2584 1439 2293 
Q 1191 2003 1191 1497 
Q 1191 994 1439 701 
Q 1688 409 2113 409 
Q 2538 409 2786 701 
Q 3034 994 3034 1497 
Q 3034 2003 2786 2293 
Q 2538 2584 2113 2584 
z
M 3366 4563 
L 3366 3988 
Q 3128 4100 2886 4159 
Q 2644 4219 2406 4219 
Q 1781 4219 1451 3797 
Q 1122 3375 1075 2522 
Q 1259 2794 1537 2939 
Q 1816 3084 2150 3084 
Q 2853 3084 3261 2657 
Q 3669 2231 3669 1497 
Q 3669 778 3244 343 
Q 2819 -91 2113 -91 
Q 1303 -91 875 529 
Q 447 1150 447 2328 
Q 447 3434 972 4092 
Q 1497 4750 2381 4750 
Q 2619 4750 2861 4703 
Q 3103 4656 3366 4563 
z
" transform="scale(0.015625)"/>
      </defs>
      <use xlink:href="#DejaVuSans-50"/>
      <use xlink:href="#DejaVuSans-6f" x="56.677734"/>
      <use xlink:href="#DejaVuSans-73" x="117.859375"/>
      <use xlink:href="#DejaVuSans-69" x="169.958984"/>
      <use xlink:href="#DejaVuSans-74" x="197.742188"/>
      <use xlink:href="#DejaVuSans-69" x="236.951172"/>
      <use xlink:href="#DejaVuSans-76" x="264.734375"/>
      <use xlink:href="#DejaVuSans-65" x="323.914062"/>
      <use xlink:href="#DejaVuSans-20" x="385.4375"/>
      <use xlink:href="#DejaVuSans-72" x="417.224609"/>
      <use xlink:href="#DejaVuSans-6f" x="456.087891"/>
      <use xlink:href="#DejaVuSans-74" x="517.269531"/>
      <use xlink:href="#DejaVuSans-61" x="556.478516"/>
      <use xlink:href="#DejaVuSans-74" x="617.757812"/>
      <use xlink:href="#DejaVuSans-69" x="656.966797"/>
      <use xlink:href="#DejaVuSans-6f" x="684.75"/>
      <use xlink:href="#DejaVuSans-6e" x="745.931641"/>
      <use xlink:href="#DejaVuSans-20" x="809.310547"/>
      <use xlink:href="#DejaVuSans-70" x="841.097656"/>
      <use xlink:href="#DejaVuSans-6f" x="904.574219"/>
      <use xlink:href="#DejaVuSans-6c" x="965.755859"/>
      <use xlink:href="#DejaVuSans-79" x="993.539062"/>
      <use xlink:href="#DejaVuSans-66" x="1052.71875"/>
      <use xlink:href="#DejaVuSans-69" x="1087.923828"/>
      <use xlink:href="#DejaVuSans-74" x="1115.707031"/>
      <use xlink:href="#DejaVuSans-3a" x="1154.916016"/>
      <use xlink:href="#DejaVuSans-20" x="1188.607422"/>
      <use xlink:href="#DejaVuSans-5b" x="1220.394531"/>
      <use xlink:href="#DejaVuSans-20" x="1259.408203"/>
      <use xlink:href="#DejaVuSans-20" x="1291.195312"/>
      <use xlink:href="#DejaVuSans-20" x="1322.982422"/>
      <use xlink:href="#DejaVuSans-34" x="1354.769531"/>
      <use xlink:href="#DejaVuSans-35" x="1418.392578"/>
      <use xlink:href="#DejaVuSans-2e" x="1482.015625"/>
      <use xlink:href="#DejaVuSans-30" x="1513.802734"/>
      <use xlink:href="#DejaVuSans-37" x="1577.425781"/>
      <use xlink:href="#DejaVuSans-20" x="1641.048828"/>
      <use xlink:href="#DejaVuSans-2d" x="1672.835938"/>
      <use xlink:href="#DejaVuSans-36" x="1708.919922"/>
      <use xlink:href="#DejaVuSans-36" x="1772.542969"/>
      <use xlink:href="#DejaVuSans-35" x="1836.166016"/>
      <use xlink:href="#DejaVuSans-36" x="1899.789062"/>
      <use xlink:href="#DejaVuSans-2e" x="1963.412109"/>
      <use xlink:href="#DejaVuSans-33" x="1995.199219"/>
      <use xlink:href="#DejaVuSans-39" x="2058.822266"/>
      <use xlink:href="#DejaVuSans-5d" x="2122.445312"/>
     </g>
    </g>
    <g id="line2d_35">
     <g>
      <use xlink:href="#m56e1b2b045" x="151.3" y="118.832288" style="fill: #ff7f0e; stroke: #ff7f0e"/>
     </g>
    </g>
    <g id="text_20">
     <!-- Negative rotation raw -->
     <g transform="translate(169.3 122.332288) scale(0.1 -0.1)">
      <defs>
       <path id="DejaVuSans-67" d="M 2906 1791 
Q 2906 2416 2648 2759 
Q 2391 3103 1925 3103 
Q 1463 3103 1205 2759 
Q 947 2416 947 1791 
Q 947 1169 1205 825 
Q 1463 481 1925 481 
Q 2391 481 2648 825 
Q 2906 1169 2906 1791 
z
M 3481 434 
Q 3481 -459 3084 -895 
Q 2688 -1331 1869 -1331 
Q 1566 -1331 1297 -1286 
Q 1028 -1241 775 -1147 
L 775 -588 
Q 1028 -725 1275 -790 
Q 1522 -856 1778 -856 
Q 2344 -856 2625 -561 
Q 2906 -266 2906 331 
L 2906 616 
Q 2728 306 2450 153 
Q 2172 0 1784 0 
Q 1141 0 747 490 
Q 353 981 353 1791 
Q 353 2603 747 3093 
Q 1141 3584 1784 3584 
Q 2172 3584 2450 3431 
Q 2728 3278 2906 2969 
L 2906 3500 
L 3481 3500 
L 3481 434 
z
" transform="scale(0.015625)"/>
      </defs>
      <use xlink:href="#DejaVuSans-4e"/>
      <use xlink:href="#DejaVuSans-65" x="74.804688"/>
      <use xlink:href="#DejaVuSans-67" x="136.328125"/>
      <use xlink:href="#DejaVuSans-61" x="199.804688"/>
      <use xlink:href="#DejaVuSans-74" x="261.083984"/>
      <use xlink:href="#DejaVuSans-69" x="300.292969"/>
      <use xlink:href="#DejaVuSans-76" x="328.076172"/>
      <use xlink:href="#DejaVuSans-65" x="387.255859"/>
      <use xlink:href="#DejaVuSans-20" x="448.779297"/>
      <use xlink:href="#DejaVuSans-72" x="480.566406"/>
      <use xlink:href="#DejaVuSans-6f" x="519.429688"/>
      <use xlink:href="#DejaVuSans-74" x="580.611328"/>
      <use xlink:href="#DejaVuSans-61" x="619.820312"/>
      <use xlink:href="#DejaVuSans-74" x="681.099609"/>
      <use xlink:href="#DejaVuSans-69" x="720.308594"/>
      <use xlink:href="#DejaVuSans-6f" x="748.091797"/>
      <use xlink:href="#DejaVuSans-6e" x="809.273438"/>
      <use xlink:href="#DejaVuSans-20" x="872.652344"/>
      <use xlink:href="#DejaVuSans-72" x="904.439453"/>
      <use xlink:href="#DejaVuSans-61" x="945.552734"/>
      <use xlink:href="#DejaVuSans-77" x="1006.832031"/>
     </g>
    </g>
    <g id="line2d_36">
     <path d="M 141.3 133.510412 
L 151.3 133.510412 
L 161.3 133.510412 
" style="fill: none; stroke: #ff7f0e; stroke-width: 1.5; stroke-linecap: square"/>
    </g>
    <g id="text_21">
     <!-- Negative rotation polyfit: [  47.69 7921.79] -->
     <g transform="translate(169.3 137.010412) scale(0.1 -0.1)">
      <use xlink:href="#DejaVuSans-4e"/>
      <use xlink:href="#DejaVuSans-65" x="74.804688"/>
      <use xlink:href="#DejaVuSans-67" x="136.328125"/>
      <use xlink:href="#DejaVuSans-61" x="199.804688"/>
      <use xlink:href="#DejaVuSans-74" x="261.083984"/>
      <use xlink:href="#DejaVuSans-69" x="300.292969"/>
      <use xlink:href="#DejaVuSans-76" x="328.076172"/>
      <use xlink:href="#DejaVuSans-65" x="387.255859"/>
      <use xlink:href="#DejaVuSans-20" x="448.779297"/>
      <use xlink:href="#DejaVuSans-72" x="480.566406"/>
      <use xlink:href="#DejaVuSans-6f" x="519.429688"/>
      <use xlink:href="#DejaVuSans-74" x="580.611328"/>
      <use xlink:href="#DejaVuSans-61" x="619.820312"/>
      <use xlink:href="#DejaVuSans-74" x="681.099609"/>
      <use xlink:href="#DejaVuSans-69" x="720.308594"/>
      <use xlink:href="#DejaVuSans-6f" x="748.091797"/>
      <use xlink:href="#DejaVuSans-6e" x="809.273438"/>
      <use xlink:href="#DejaVuSans-20" x="872.652344"/>
      <use xlink:href="#DejaVuSans-70" x="904.439453"/>
      <use xlink:href="#DejaVuSans-6f" x="967.916016"/>
      <use xlink:href="#DejaVuSans-6c" x="1029.097656"/>
      <use xlink:href="#DejaVuSans-79" x="1056.880859"/>
      <use xlink:href="#DejaVuSans-66" x="1116.060547"/>
      <use xlink:href="#DejaVuSans-69" x="1151.265625"/>
      <use xlink:href="#DejaVuSans-74" x="1179.048828"/>
      <use xlink:href="#DejaVuSans-3a" x="1218.257812"/>
      <use xlink:href="#DejaVuSans-20" x="1251.949219"/>
      <use xlink:href="#DejaVuSans-5b" x="1283.736328"/>
      <use xlink:href="#DejaVuSans-20" x="1322.75"/>
      <use xlink:href="#DejaVuSans-20" x="1354.537109"/>
      <use xlink:href="#DejaVuSans-34" x="1386.324219"/>
      <use xlink:href="#DejaVuSans-37" x="1449.947266"/>
      <use xlink:href="#DejaVuSans-2e" x="1513.570312"/>
      <use xlink:href="#DejaVuSans-36" x="1545.357422"/>
      <use xlink:href="#DejaVuSans-39" x="1608.980469"/>
      <use xlink:href="#DejaVuSans-20" x="1672.603516"/>
      <use xlink:href="#DejaVuSans-37" x="1704.390625"/>
      <use xlink:href="#DejaVuSans-39" x="1768.013672"/>
      <use xlink:href="#DejaVuSans-32" x="1831.636719"/>
      <use xlink:href="#DejaVuSans-31" x="1895.259766"/>
      <use xlink:href="#DejaVuSans-2e" x="1958.882812"/>
      <use xlink:href="#DejaVuSans-37" x="1990.669922"/>
      <use xlink:href="#DejaVuSans-39" x="2054.292969"/>
      <use xlink:href="#DejaVuSans-5d" x="2117.916016"/>
     </g>
    </g>
   </g>
  </g>
 </g>
 <defs>
  <clipPath id="p59ab232bc3">
   <rect x="132.3" y="76.3776" width="820.26" height="490.0896"/>
  </clipPath>
 </defs>
</svg>
