<?xml version="1.0" encoding="utf-8" standalone="no"?>
<!DOCTYPE svg PUBLIC "-//W3C//DTD SVG 1.1//EN"
  "http://www.w3.org/Graphics/SVG/1.1/DTD/svg11.dtd">
<svg height="703.44pt" version="1.1" viewBox="0 0 1382.4 703.44" width="1382.4pt" xmlns="http://www.w3.org/2000/svg" xmlns:xlink="http://www.w3.org/1999/xlink">
 <metadata>
  <rdf:RDF xmlns:cc="http://creativecommons.org/ns#" xmlns:dc="http://purl.org/dc/elements/1.1/" xmlns:rdf="http://www.w3.org/1999/02/22-rdf-syntax-ns#">
   <cc:Work>
    <dc:type rdf:resource="http://purl.org/dc/dcmitype/StillImage"/>
    <dc:date>2021-09-05T21:37:15.698222</dc:date>
    <dc:format>image/svg+xml</dc:format>
    <dc:creator>
     <cc:Agent>
      <dc:title>Matplotlib v3.4.3, https://matplotlib.org/</dc:title>
     </cc:Agent>
    </dc:creator>
   </cc:Work>
  </rdf:RDF>
 </metadata>
 <defs>
  <style type="text/css">*{stroke-linecap:butt;stroke-linejoin:round;}</style>
 </defs>
 <g id="figure_1">
  <g id="patch_1">
   <path d="M 0 703.44 
L 1382.4 703.44 
L 1382.4 0 
L 0 0 
z
" style="fill:#ffffff;"/>
  </g>
  <g id="axes_1">
   <g id="patch_2">
    <path d="M 172.8 285.852436 
L 1244.16 285.852436 
L 1244.16 84.4128 
L 172.8 84.4128 
z
" style="fill:#ffffff;"/>
   </g>
   <g id="matplotlib.axis_1">
    <g id="xtick_1">
     <g id="line2d_1">
      <path clip-path="url(#p6abac5f1cc)" d="M 221.498182 285.852436 
L 221.498182 84.4128 
" style="fill:none;stroke:#b0b0b0;stroke-linecap:square;stroke-width:0.8;"/>
     </g>
     <g id="line2d_2">
      <defs>
       <path d="M 0 0 
L 0 3.5 
" id="mf00799923b" style="stroke:#000000;stroke-width:0.8;"/>
      </defs>
      <g>
       <use style="stroke:#000000;stroke-width:0.8;" x="221.498182" xlink:href="#mf00799923b" y="285.852436"/>
      </g>
     </g>
     <g id="text_1">
      <!-- 0 -->
      <g transform="translate(218.316932 300.450874)scale(0.1 -0.1)">
       <defs>
        <path d="M 2034 4250 
Q 1547 4250 1301 3770 
Q 1056 3291 1056 2328 
Q 1056 1369 1301 889 
Q 1547 409 2034 409 
Q 2525 409 2770 889 
Q 3016 1369 3016 2328 
Q 3016 3291 2770 3770 
Q 2525 4250 2034 4250 
z
M 2034 4750 
Q 2819 4750 3233 4129 
Q 3647 3509 3647 2328 
Q 3647 1150 3233 529 
Q 2819 -91 2034 -91 
Q 1250 -91 836 529 
Q 422 1150 422 2328 
Q 422 3509 836 4129 
Q 1250 4750 2034 4750 
z
" id="DejaVuSans-30" transform="scale(0.015625)"/>
       </defs>
       <use xlink:href="#DejaVuSans-30"/>
      </g>
     </g>
    </g>
    <g id="xtick_2">
     <g id="line2d_3">
      <path clip-path="url(#p6abac5f1cc)" d="M 416.290909 285.852436 
L 416.290909 84.4128 
" style="fill:none;stroke:#b0b0b0;stroke-linecap:square;stroke-width:0.8;"/>
     </g>
     <g id="line2d_4">
      <g>
       <use style="stroke:#000000;stroke-width:0.8;" x="416.290909" xlink:href="#mf00799923b" y="285.852436"/>
      </g>
     </g>
     <g id="text_2">
      <!-- 2 -->
      <g transform="translate(413.109659 300.450874)scale(0.1 -0.1)">
       <defs>
        <path d="M 1228 531 
L 3431 531 
L 3431 0 
L 469 0 
L 469 531 
Q 828 903 1448 1529 
Q 2069 2156 2228 2338 
Q 2531 2678 2651 2914 
Q 2772 3150 2772 3378 
Q 2772 3750 2511 3984 
Q 2250 4219 1831 4219 
Q 1534 4219 1204 4116 
Q 875 4013 500 3803 
L 500 4441 
Q 881 4594 1212 4672 
Q 1544 4750 1819 4750 
Q 2544 4750 2975 4387 
Q 3406 4025 3406 3419 
Q 3406 3131 3298 2873 
Q 3191 2616 2906 2266 
Q 2828 2175 2409 1742 
Q 1991 1309 1228 531 
z
" id="DejaVuSans-32" transform="scale(0.015625)"/>
       </defs>
       <use xlink:href="#DejaVuSans-32"/>
      </g>
     </g>
    </g>
    <g id="xtick_3">
     <g id="line2d_5">
      <path clip-path="url(#p6abac5f1cc)" d="M 611.083636 285.852436 
L 611.083636 84.4128 
" style="fill:none;stroke:#b0b0b0;stroke-linecap:square;stroke-width:0.8;"/>
     </g>
     <g id="line2d_6">
      <g>
       <use style="stroke:#000000;stroke-width:0.8;" x="611.083636" xlink:href="#mf00799923b" y="285.852436"/>
      </g>
     </g>
     <g id="text_3">
      <!-- 4 -->
      <g transform="translate(607.902386 300.450874)scale(0.1 -0.1)">
       <defs>
        <path d="M 2419 4116 
L 825 1625 
L 2419 1625 
L 2419 4116 
z
M 2253 4666 
L 3047 4666 
L 3047 1625 
L 3713 1625 
L 3713 1100 
L 3047 1100 
L 3047 0 
L 2419 0 
L 2419 1100 
L 313 1100 
L 313 1709 
L 2253 4666 
z
" id="DejaVuSans-34" transform="scale(0.015625)"/>
       </defs>
       <use xlink:href="#DejaVuSans-34"/>
      </g>
     </g>
    </g>
    <g id="xtick_4">
     <g id="line2d_7">
      <path clip-path="url(#p6abac5f1cc)" d="M 805.876364 285.852436 
L 805.876364 84.4128 
" style="fill:none;stroke:#b0b0b0;stroke-linecap:square;stroke-width:0.8;"/>
     </g>
     <g id="line2d_8">
      <g>
       <use style="stroke:#000000;stroke-width:0.8;" x="805.876364" xlink:href="#mf00799923b" y="285.852436"/>
      </g>
     </g>
     <g id="text_4">
      <!-- 6 -->
      <g transform="translate(802.695114 300.450874)scale(0.1 -0.1)">
       <defs>
        <path d="M 2113 2584 
Q 1688 2584 1439 2293 
Q 1191 2003 1191 1497 
Q 1191 994 1439 701 
Q 1688 409 2113 409 
Q 2538 409 2786 701 
Q 3034 994 3034 1497 
Q 3034 2003 2786 2293 
Q 2538 2584 2113 2584 
z
M 3366 4563 
L 3366 3988 
Q 3128 4100 2886 4159 
Q 2644 4219 2406 4219 
Q 1781 4219 1451 3797 
Q 1122 3375 1075 2522 
Q 1259 2794 1537 2939 
Q 1816 3084 2150 3084 
Q 2853 3084 3261 2657 
Q 3669 2231 3669 1497 
Q 3669 778 3244 343 
Q 2819 -91 2113 -91 
Q 1303 -91 875 529 
Q 447 1150 447 2328 
Q 447 3434 972 4092 
Q 1497 4750 2381 4750 
Q 2619 4750 2861 4703 
Q 3103 4656 3366 4563 
z
" id="DejaVuSans-36" transform="scale(0.015625)"/>
       </defs>
       <use xlink:href="#DejaVuSans-36"/>
      </g>
     </g>
    </g>
    <g id="xtick_5">
     <g id="line2d_9">
      <path clip-path="url(#p6abac5f1cc)" d="M 1000.669091 285.852436 
L 1000.669091 84.4128 
" style="fill:none;stroke:#b0b0b0;stroke-linecap:square;stroke-width:0.8;"/>
     </g>
     <g id="line2d_10">
      <g>
       <use style="stroke:#000000;stroke-width:0.8;" x="1000.669091" xlink:href="#mf00799923b" y="285.852436"/>
      </g>
     </g>
     <g id="text_5">
      <!-- 8 -->
      <g transform="translate(997.487841 300.450874)scale(0.1 -0.1)">
       <defs>
        <path d="M 2034 2216 
Q 1584 2216 1326 1975 
Q 1069 1734 1069 1313 
Q 1069 891 1326 650 
Q 1584 409 2034 409 
Q 2484 409 2743 651 
Q 3003 894 3003 1313 
Q 3003 1734 2745 1975 
Q 2488 2216 2034 2216 
z
M 1403 2484 
Q 997 2584 770 2862 
Q 544 3141 544 3541 
Q 544 4100 942 4425 
Q 1341 4750 2034 4750 
Q 2731 4750 3128 4425 
Q 3525 4100 3525 3541 
Q 3525 3141 3298 2862 
Q 3072 2584 2669 2484 
Q 3125 2378 3379 2068 
Q 3634 1759 3634 1313 
Q 3634 634 3220 271 
Q 2806 -91 2034 -91 
Q 1263 -91 848 271 
Q 434 634 434 1313 
Q 434 1759 690 2068 
Q 947 2378 1403 2484 
z
M 1172 3481 
Q 1172 3119 1398 2916 
Q 1625 2713 2034 2713 
Q 2441 2713 2670 2916 
Q 2900 3119 2900 3481 
Q 2900 3844 2670 4047 
Q 2441 4250 2034 4250 
Q 1625 4250 1398 4047 
Q 1172 3844 1172 3481 
z
" id="DejaVuSans-38" transform="scale(0.015625)"/>
       </defs>
       <use xlink:href="#DejaVuSans-38"/>
      </g>
     </g>
    </g>
    <g id="xtick_6">
     <g id="line2d_11">
      <path clip-path="url(#p6abac5f1cc)" d="M 1195.461818 285.852436 
L 1195.461818 84.4128 
" style="fill:none;stroke:#b0b0b0;stroke-linecap:square;stroke-width:0.8;"/>
     </g>
     <g id="line2d_12">
      <g>
       <use style="stroke:#000000;stroke-width:0.8;" x="1195.461818" xlink:href="#mf00799923b" y="285.852436"/>
      </g>
     </g>
     <g id="text_6">
      <!-- 10 -->
      <g transform="translate(1189.099318 300.450874)scale(0.1 -0.1)">
       <defs>
        <path d="M 794 531 
L 1825 531 
L 1825 4091 
L 703 3866 
L 703 4441 
L 1819 4666 
L 2450 4666 
L 2450 531 
L 3481 531 
L 3481 0 
L 794 0 
L 794 531 
z
" id="DejaVuSans-31" transform="scale(0.015625)"/>
       </defs>
       <use xlink:href="#DejaVuSans-31"/>
       <use x="63.623047" xlink:href="#DejaVuSans-30"/>
      </g>
     </g>
    </g>
   </g>
   <g id="matplotlib.axis_2">
    <g id="ytick_1">
     <g id="line2d_13">
      <path clip-path="url(#p6abac5f1cc)" d="M 172.8 276.696089 
L 1244.16 276.696089 
" style="fill:none;stroke:#b0b0b0;stroke-linecap:square;stroke-width:0.8;"/>
     </g>
     <g id="line2d_14">
      <defs>
       <path d="M 0 0 
L -3.5 0 
" id="m9e9e978055" style="stroke:#000000;stroke-width:0.8;"/>
      </defs>
      <g>
       <use style="stroke:#000000;stroke-width:0.8;" x="172.8" xlink:href="#m9e9e978055" y="276.696089"/>
      </g>
     </g>
     <g id="text_7">
      <!-- 0.0 -->
      <g transform="translate(149.896875 280.495308)scale(0.1 -0.1)">
       <defs>
        <path d="M 684 794 
L 1344 794 
L 1344 0 
L 684 0 
L 684 794 
z
" id="DejaVuSans-2e" transform="scale(0.015625)"/>
       </defs>
       <use xlink:href="#DejaVuSans-30"/>
       <use x="63.623047" xlink:href="#DejaVuSans-2e"/>
       <use x="95.410156" xlink:href="#DejaVuSans-30"/>
      </g>
     </g>
    </g>
    <g id="ytick_2">
     <g id="line2d_15">
      <path clip-path="url(#p6abac5f1cc)" d="M 172.8 251.986698 
L 1244.16 251.986698 
" style="fill:none;stroke:#b0b0b0;stroke-linecap:square;stroke-width:0.8;"/>
     </g>
     <g id="line2d_16">
      <g>
       <use style="stroke:#000000;stroke-width:0.8;" x="172.8" xlink:href="#m9e9e978055" y="251.986698"/>
      </g>
     </g>
     <g id="text_8">
      <!-- 0.5 -->
      <g transform="translate(149.896875 255.785916)scale(0.1 -0.1)">
       <defs>
        <path d="M 691 4666 
L 3169 4666 
L 3169 4134 
L 1269 4134 
L 1269 2991 
Q 1406 3038 1543 3061 
Q 1681 3084 1819 3084 
Q 2600 3084 3056 2656 
Q 3513 2228 3513 1497 
Q 3513 744 3044 326 
Q 2575 -91 1722 -91 
Q 1428 -91 1123 -41 
Q 819 9 494 109 
L 494 744 
Q 775 591 1075 516 
Q 1375 441 1709 441 
Q 2250 441 2565 725 
Q 2881 1009 2881 1497 
Q 2881 1984 2565 2268 
Q 2250 2553 1709 2553 
Q 1456 2553 1204 2497 
Q 953 2441 691 2322 
L 691 4666 
z
" id="DejaVuSans-35" transform="scale(0.015625)"/>
       </defs>
       <use xlink:href="#DejaVuSans-30"/>
       <use x="63.623047" xlink:href="#DejaVuSans-2e"/>
       <use x="95.410156" xlink:href="#DejaVuSans-35"/>
      </g>
     </g>
    </g>
    <g id="ytick_3">
     <g id="line2d_17">
      <path clip-path="url(#p6abac5f1cc)" d="M 172.8 227.277306 
L 1244.16 227.277306 
" style="fill:none;stroke:#b0b0b0;stroke-linecap:square;stroke-width:0.8;"/>
     </g>
     <g id="line2d_18">
      <g>
       <use style="stroke:#000000;stroke-width:0.8;" x="172.8" xlink:href="#m9e9e978055" y="227.277306"/>
      </g>
     </g>
     <g id="text_9">
      <!-- 1.0 -->
      <g transform="translate(149.896875 231.076525)scale(0.1 -0.1)">
       <use xlink:href="#DejaVuSans-31"/>
       <use x="63.623047" xlink:href="#DejaVuSans-2e"/>
       <use x="95.410156" xlink:href="#DejaVuSans-30"/>
      </g>
     </g>
    </g>
    <g id="ytick_4">
     <g id="line2d_19">
      <path clip-path="url(#p6abac5f1cc)" d="M 172.8 202.567914 
L 1244.16 202.567914 
" style="fill:none;stroke:#b0b0b0;stroke-linecap:square;stroke-width:0.8;"/>
     </g>
     <g id="line2d_20">
      <g>
       <use style="stroke:#000000;stroke-width:0.8;" x="172.8" xlink:href="#m9e9e978055" y="202.567914"/>
      </g>
     </g>
     <g id="text_10">
      <!-- 1.5 -->
      <g transform="translate(149.896875 206.367133)scale(0.1 -0.1)">
       <use xlink:href="#DejaVuSans-31"/>
       <use x="63.623047" xlink:href="#DejaVuSans-2e"/>
       <use x="95.410156" xlink:href="#DejaVuSans-35"/>
      </g>
     </g>
    </g>
    <g id="ytick_5">
     <g id="line2d_21">
      <path clip-path="url(#p6abac5f1cc)" d="M 172.8 177.858523 
L 1244.16 177.858523 
" style="fill:none;stroke:#b0b0b0;stroke-linecap:square;stroke-width:0.8;"/>
     </g>
     <g id="line2d_22">
      <g>
       <use style="stroke:#000000;stroke-width:0.8;" x="172.8" xlink:href="#m9e9e978055" y="177.858523"/>
      </g>
     </g>
     <g id="text_11">
      <!-- 2.0 -->
      <g transform="translate(149.896875 181.657742)scale(0.1 -0.1)">
       <use xlink:href="#DejaVuSans-32"/>
       <use x="63.623047" xlink:href="#DejaVuSans-2e"/>
       <use x="95.410156" xlink:href="#DejaVuSans-30"/>
      </g>
     </g>
    </g>
    <g id="ytick_6">
     <g id="line2d_23">
      <path clip-path="url(#p6abac5f1cc)" d="M 172.8 153.149131 
L 1244.16 153.149131 
" style="fill:none;stroke:#b0b0b0;stroke-linecap:square;stroke-width:0.8;"/>
     </g>
     <g id="line2d_24">
      <g>
       <use style="stroke:#000000;stroke-width:0.8;" x="172.8" xlink:href="#m9e9e978055" y="153.149131"/>
      </g>
     </g>
     <g id="text_12">
      <!-- 2.5 -->
      <g transform="translate(149.896875 156.94835)scale(0.1 -0.1)">
       <use xlink:href="#DejaVuSans-32"/>
       <use x="63.623047" xlink:href="#DejaVuSans-2e"/>
       <use x="95.410156" xlink:href="#DejaVuSans-35"/>
      </g>
     </g>
    </g>
    <g id="ytick_7">
     <g id="line2d_25">
      <path clip-path="url(#p6abac5f1cc)" d="M 172.8 128.43974 
L 1244.16 128.43974 
" style="fill:none;stroke:#b0b0b0;stroke-linecap:square;stroke-width:0.8;"/>
     </g>
     <g id="line2d_26">
      <g>
       <use style="stroke:#000000;stroke-width:0.8;" x="172.8" xlink:href="#m9e9e978055" y="128.43974"/>
      </g>
     </g>
     <g id="text_13">
      <!-- 3.0 -->
      <g transform="translate(149.896875 132.238958)scale(0.1 -0.1)">
       <defs>
        <path d="M 2597 2516 
Q 3050 2419 3304 2112 
Q 3559 1806 3559 1356 
Q 3559 666 3084 287 
Q 2609 -91 1734 -91 
Q 1441 -91 1130 -33 
Q 819 25 488 141 
L 488 750 
Q 750 597 1062 519 
Q 1375 441 1716 441 
Q 2309 441 2620 675 
Q 2931 909 2931 1356 
Q 2931 1769 2642 2001 
Q 2353 2234 1838 2234 
L 1294 2234 
L 1294 2753 
L 1863 2753 
Q 2328 2753 2575 2939 
Q 2822 3125 2822 3475 
Q 2822 3834 2567 4026 
Q 2313 4219 1838 4219 
Q 1578 4219 1281 4162 
Q 984 4106 628 3988 
L 628 4550 
Q 988 4650 1302 4700 
Q 1616 4750 1894 4750 
Q 2613 4750 3031 4423 
Q 3450 4097 3450 3541 
Q 3450 3153 3228 2886 
Q 3006 2619 2597 2516 
z
" id="DejaVuSans-33" transform="scale(0.015625)"/>
       </defs>
       <use xlink:href="#DejaVuSans-33"/>
       <use x="63.623047" xlink:href="#DejaVuSans-2e"/>
       <use x="95.410156" xlink:href="#DejaVuSans-30"/>
      </g>
     </g>
    </g>
    <g id="ytick_8">
     <g id="line2d_27">
      <path clip-path="url(#p6abac5f1cc)" d="M 172.8 103.730348 
L 1244.16 103.730348 
" style="fill:none;stroke:#b0b0b0;stroke-linecap:square;stroke-width:0.8;"/>
     </g>
     <g id="line2d_28">
      <g>
       <use style="stroke:#000000;stroke-width:0.8;" x="172.8" xlink:href="#m9e9e978055" y="103.730348"/>
      </g>
     </g>
     <g id="text_14">
      <!-- 3.5 -->
      <g transform="translate(149.896875 107.529567)scale(0.1 -0.1)">
       <use xlink:href="#DejaVuSans-33"/>
       <use x="63.623047" xlink:href="#DejaVuSans-2e"/>
       <use x="95.410156" xlink:href="#DejaVuSans-35"/>
      </g>
     </g>
    </g>
    <g id="text_15">
     <!-- Angular-rate [rad/s] -->
     <g transform="translate(143.817187 234.288087)rotate(-90)scale(0.1 -0.1)">
      <defs>
       <path d="M 2188 4044 
L 1331 1722 
L 3047 1722 
L 2188 4044 
z
M 1831 4666 
L 2547 4666 
L 4325 0 
L 3669 0 
L 3244 1197 
L 1141 1197 
L 716 0 
L 50 0 
L 1831 4666 
z
" id="DejaVuSans-41" transform="scale(0.015625)"/>
       <path d="M 3513 2113 
L 3513 0 
L 2938 0 
L 2938 2094 
Q 2938 2591 2744 2837 
Q 2550 3084 2163 3084 
Q 1697 3084 1428 2787 
Q 1159 2491 1159 1978 
L 1159 0 
L 581 0 
L 581 3500 
L 1159 3500 
L 1159 2956 
Q 1366 3272 1645 3428 
Q 1925 3584 2291 3584 
Q 2894 3584 3203 3211 
Q 3513 2838 3513 2113 
z
" id="DejaVuSans-6e" transform="scale(0.015625)"/>
       <path d="M 2906 1791 
Q 2906 2416 2648 2759 
Q 2391 3103 1925 3103 
Q 1463 3103 1205 2759 
Q 947 2416 947 1791 
Q 947 1169 1205 825 
Q 1463 481 1925 481 
Q 2391 481 2648 825 
Q 2906 1169 2906 1791 
z
M 3481 434 
Q 3481 -459 3084 -895 
Q 2688 -1331 1869 -1331 
Q 1566 -1331 1297 -1286 
Q 1028 -1241 775 -1147 
L 775 -588 
Q 1028 -725 1275 -790 
Q 1522 -856 1778 -856 
Q 2344 -856 2625 -561 
Q 2906 -266 2906 331 
L 2906 616 
Q 2728 306 2450 153 
Q 2172 0 1784 0 
Q 1141 0 747 490 
Q 353 981 353 1791 
Q 353 2603 747 3093 
Q 1141 3584 1784 3584 
Q 2172 3584 2450 3431 
Q 2728 3278 2906 2969 
L 2906 3500 
L 3481 3500 
L 3481 434 
z
" id="DejaVuSans-67" transform="scale(0.015625)"/>
       <path d="M 544 1381 
L 544 3500 
L 1119 3500 
L 1119 1403 
Q 1119 906 1312 657 
Q 1506 409 1894 409 
Q 2359 409 2629 706 
Q 2900 1003 2900 1516 
L 2900 3500 
L 3475 3500 
L 3475 0 
L 2900 0 
L 2900 538 
Q 2691 219 2414 64 
Q 2138 -91 1772 -91 
Q 1169 -91 856 284 
Q 544 659 544 1381 
z
M 1991 3584 
L 1991 3584 
z
" id="DejaVuSans-75" transform="scale(0.015625)"/>
       <path d="M 603 4863 
L 1178 4863 
L 1178 0 
L 603 0 
L 603 4863 
z
" id="DejaVuSans-6c" transform="scale(0.015625)"/>
       <path d="M 2194 1759 
Q 1497 1759 1228 1600 
Q 959 1441 959 1056 
Q 959 750 1161 570 
Q 1363 391 1709 391 
Q 2188 391 2477 730 
Q 2766 1069 2766 1631 
L 2766 1759 
L 2194 1759 
z
M 3341 1997 
L 3341 0 
L 2766 0 
L 2766 531 
Q 2569 213 2275 61 
Q 1981 -91 1556 -91 
Q 1019 -91 701 211 
Q 384 513 384 1019 
Q 384 1609 779 1909 
Q 1175 2209 1959 2209 
L 2766 2209 
L 2766 2266 
Q 2766 2663 2505 2880 
Q 2244 3097 1772 3097 
Q 1472 3097 1187 3025 
Q 903 2953 641 2809 
L 641 3341 
Q 956 3463 1253 3523 
Q 1550 3584 1831 3584 
Q 2591 3584 2966 3190 
Q 3341 2797 3341 1997 
z
" id="DejaVuSans-61" transform="scale(0.015625)"/>
       <path d="M 2631 2963 
Q 2534 3019 2420 3045 
Q 2306 3072 2169 3072 
Q 1681 3072 1420 2755 
Q 1159 2438 1159 1844 
L 1159 0 
L 581 0 
L 581 3500 
L 1159 3500 
L 1159 2956 
Q 1341 3275 1631 3429 
Q 1922 3584 2338 3584 
Q 2397 3584 2469 3576 
Q 2541 3569 2628 3553 
L 2631 2963 
z
" id="DejaVuSans-72" transform="scale(0.015625)"/>
       <path d="M 313 2009 
L 1997 2009 
L 1997 1497 
L 313 1497 
L 313 2009 
z
" id="DejaVuSans-2d" transform="scale(0.015625)"/>
       <path d="M 1172 4494 
L 1172 3500 
L 2356 3500 
L 2356 3053 
L 1172 3053 
L 1172 1153 
Q 1172 725 1289 603 
Q 1406 481 1766 481 
L 2356 481 
L 2356 0 
L 1766 0 
Q 1100 0 847 248 
Q 594 497 594 1153 
L 594 3053 
L 172 3053 
L 172 3500 
L 594 3500 
L 594 4494 
L 1172 4494 
z
" id="DejaVuSans-74" transform="scale(0.015625)"/>
       <path d="M 3597 1894 
L 3597 1613 
L 953 1613 
Q 991 1019 1311 708 
Q 1631 397 2203 397 
Q 2534 397 2845 478 
Q 3156 559 3463 722 
L 3463 178 
Q 3153 47 2828 -22 
Q 2503 -91 2169 -91 
Q 1331 -91 842 396 
Q 353 884 353 1716 
Q 353 2575 817 3079 
Q 1281 3584 2069 3584 
Q 2775 3584 3186 3129 
Q 3597 2675 3597 1894 
z
M 3022 2063 
Q 3016 2534 2758 2815 
Q 2500 3097 2075 3097 
Q 1594 3097 1305 2825 
Q 1016 2553 972 2059 
L 3022 2063 
z
" id="DejaVuSans-65" transform="scale(0.015625)"/>
       <path id="DejaVuSans-20" transform="scale(0.015625)"/>
       <path d="M 550 4863 
L 1875 4863 
L 1875 4416 
L 1125 4416 
L 1125 -397 
L 1875 -397 
L 1875 -844 
L 550 -844 
L 550 4863 
z
" id="DejaVuSans-5b" transform="scale(0.015625)"/>
       <path d="M 2906 2969 
L 2906 4863 
L 3481 4863 
L 3481 0 
L 2906 0 
L 2906 525 
Q 2725 213 2448 61 
Q 2172 -91 1784 -91 
Q 1150 -91 751 415 
Q 353 922 353 1747 
Q 353 2572 751 3078 
Q 1150 3584 1784 3584 
Q 2172 3584 2448 3432 
Q 2725 3281 2906 2969 
z
M 947 1747 
Q 947 1113 1208 752 
Q 1469 391 1925 391 
Q 2381 391 2643 752 
Q 2906 1113 2906 1747 
Q 2906 2381 2643 2742 
Q 2381 3103 1925 3103 
Q 1469 3103 1208 2742 
Q 947 2381 947 1747 
z
" id="DejaVuSans-64" transform="scale(0.015625)"/>
       <path d="M 1625 4666 
L 2156 4666 
L 531 -594 
L 0 -594 
L 1625 4666 
z
" id="DejaVuSans-2f" transform="scale(0.015625)"/>
       <path d="M 2834 3397 
L 2834 2853 
Q 2591 2978 2328 3040 
Q 2066 3103 1784 3103 
Q 1356 3103 1142 2972 
Q 928 2841 928 2578 
Q 928 2378 1081 2264 
Q 1234 2150 1697 2047 
L 1894 2003 
Q 2506 1872 2764 1633 
Q 3022 1394 3022 966 
Q 3022 478 2636 193 
Q 2250 -91 1575 -91 
Q 1294 -91 989 -36 
Q 684 19 347 128 
L 347 722 
Q 666 556 975 473 
Q 1284 391 1588 391 
Q 1994 391 2212 530 
Q 2431 669 2431 922 
Q 2431 1156 2273 1281 
Q 2116 1406 1581 1522 
L 1381 1569 
Q 847 1681 609 1914 
Q 372 2147 372 2553 
Q 372 3047 722 3315 
Q 1072 3584 1716 3584 
Q 2034 3584 2315 3537 
Q 2597 3491 2834 3397 
z
" id="DejaVuSans-73" transform="scale(0.015625)"/>
       <path d="M 1947 4863 
L 1947 -844 
L 622 -844 
L 622 -397 
L 1369 -397 
L 1369 4416 
L 622 4416 
L 622 4863 
L 1947 4863 
z
" id="DejaVuSans-5d" transform="scale(0.015625)"/>
      </defs>
      <use xlink:href="#DejaVuSans-41"/>
      <use x="68.408203" xlink:href="#DejaVuSans-6e"/>
      <use x="131.787109" xlink:href="#DejaVuSans-67"/>
      <use x="195.263672" xlink:href="#DejaVuSans-75"/>
      <use x="258.642578" xlink:href="#DejaVuSans-6c"/>
      <use x="286.425781" xlink:href="#DejaVuSans-61"/>
      <use x="347.705078" xlink:href="#DejaVuSans-72"/>
      <use x="382.443359" xlink:href="#DejaVuSans-2d"/>
      <use x="418.527344" xlink:href="#DejaVuSans-72"/>
      <use x="459.640625" xlink:href="#DejaVuSans-61"/>
      <use x="520.919922" xlink:href="#DejaVuSans-74"/>
      <use x="560.128906" xlink:href="#DejaVuSans-65"/>
      <use x="621.652344" xlink:href="#DejaVuSans-20"/>
      <use x="653.439453" xlink:href="#DejaVuSans-5b"/>
      <use x="692.453125" xlink:href="#DejaVuSans-72"/>
      <use x="733.566406" xlink:href="#DejaVuSans-61"/>
      <use x="794.845703" xlink:href="#DejaVuSans-64"/>
      <use x="858.322266" xlink:href="#DejaVuSans-2f"/>
      <use x="892.013672" xlink:href="#DejaVuSans-73"/>
      <use x="944.113281" xlink:href="#DejaVuSans-5d"/>
     </g>
    </g>
   </g>
   <g id="line2d_29">
    <path clip-path="url(#p6abac5f1cc)" d="M 221.498182 121.442403 
L 1195.461818 121.442403 
" style="fill:none;stroke:#d62728;stroke-dasharray:5.55,2.4;stroke-dashoffset:0;stroke-width:1.5;"/>
   </g>
   <g id="line2d_30">
    <path clip-path="url(#p6abac5f1cc)" d="M 221.498182 276.696089 
L 223.446109 276.144235 
L 225.394036 274.651443 
L 227.341964 272.425534 
L 229.289891 269.633469 
L 231.237818 266.409302 
L 233.185745 262.860578 
L 237.0816 255.117045 
L 242.925382 242.729478 
L 250.717091 226.148875 
L 256.560873 214.240777 
L 262.404655 202.997981 
L 266.300509 195.908531 
L 270.196364 189.151037 
L 274.092218 182.723889 
L 277.988073 176.621308 
L 281.883927 170.83497 
L 285.779782 165.355053 
L 289.675636 160.170915 
L 293.571491 155.271526 
L 297.467345 150.64575 
L 301.3632 146.282518 
L 305.259055 142.170941 
L 309.154909 138.30038 
L 313.050764 134.660484 
L 316.946618 131.24121 
L 320.842473 128.032843 
L 324.738327 125.025991 
L 328.634182 122.211587 
L 334.477964 118.33178 
L 340.321745 114.83719 
L 346.165527 111.701169 
L 352.009309 108.898548 
L 357.853091 106.405577 
L 363.696873 104.199861 
L 369.540655 102.260297 
L 375.384436 100.567014 
L 381.228218 99.101318 
L 387.072 97.84563 
L 392.915782 96.783434 
L 398.759564 95.899225 
L 406.551273 94.97214 
L 414.342982 94.303741 
L 422.134691 93.864731 
L 429.9264 93.628313 
L 439.666036 93.580613 
L 449.405673 93.768289 
L 461.093236 94.250596 
L 472.7808 94.958994 
L 486.416291 96.00507 
L 503.947636 97.59636 
L 527.322764 99.969773 
L 595.500218 107.029423 
L 620.823273 109.357432 
L 644.1984 111.288552 
L 667.573527 112.999131 
L 690.948655 114.491253 
L 716.271709 115.873564 
L 741.594764 117.032098 
L 768.865745 118.056806 
L 798.084655 118.932743 
L 831.199418 119.69392 
L 868.210036 120.312059 
L 911.064436 120.796354 
L 963.658473 121.154268 
L 1031.835927 121.380588 
L 1137.024 121.48046 
L 1195.461818 121.484754 
L 1195.461818 121.484754 
" style="fill:none;stroke:#1f77b4;stroke-linecap:square;stroke-width:1.5;"/>
   </g>
   <g id="patch_3">
    <path d="M 172.8 285.852436 
L 172.8 84.4128 
" style="fill:none;stroke:#000000;stroke-linecap:square;stroke-linejoin:miter;stroke-width:0.8;"/>
   </g>
   <g id="patch_4">
    <path d="M 1244.16 285.852436 
L 1244.16 84.4128 
" style="fill:none;stroke:#000000;stroke-linecap:square;stroke-linejoin:miter;stroke-width:0.8;"/>
   </g>
   <g id="patch_5">
    <path d="M 172.8 285.852436 
L 1244.16 285.852436 
" style="fill:none;stroke:#000000;stroke-linecap:square;stroke-linejoin:miter;stroke-width:0.8;"/>
   </g>
   <g id="patch_6">
    <path d="M 172.8 84.4128 
L 1244.16 84.4128 
" style="fill:none;stroke:#000000;stroke-linecap:square;stroke-linejoin:miter;stroke-width:0.8;"/>
   </g>
   <g id="text_16">
    <!--  -->
    <g transform="translate(1254.8736 86.462757)scale(0.08 -0.08)"/>
    <!-- rise time: 0.80 s -->
    <g transform="translate(1254.8736 95.421007)scale(0.08 -0.08)">
     <defs>
      <path d="M 603 3500 
L 1178 3500 
L 1178 0 
L 603 0 
L 603 3500 
z
M 603 4863 
L 1178 4863 
L 1178 4134 
L 603 4134 
L 603 4863 
z
" id="DejaVuSans-69" transform="scale(0.015625)"/>
      <path d="M 3328 2828 
Q 3544 3216 3844 3400 
Q 4144 3584 4550 3584 
Q 5097 3584 5394 3201 
Q 5691 2819 5691 2113 
L 5691 0 
L 5113 0 
L 5113 2094 
Q 5113 2597 4934 2840 
Q 4756 3084 4391 3084 
Q 3944 3084 3684 2787 
Q 3425 2491 3425 1978 
L 3425 0 
L 2847 0 
L 2847 2094 
Q 2847 2600 2669 2842 
Q 2491 3084 2119 3084 
Q 1678 3084 1418 2786 
Q 1159 2488 1159 1978 
L 1159 0 
L 581 0 
L 581 3500 
L 1159 3500 
L 1159 2956 
Q 1356 3278 1631 3431 
Q 1906 3584 2284 3584 
Q 2666 3584 2933 3390 
Q 3200 3197 3328 2828 
z
" id="DejaVuSans-6d" transform="scale(0.015625)"/>
      <path d="M 750 794 
L 1409 794 
L 1409 0 
L 750 0 
L 750 794 
z
M 750 3309 
L 1409 3309 
L 1409 2516 
L 750 2516 
L 750 3309 
z
" id="DejaVuSans-3a" transform="scale(0.015625)"/>
     </defs>
     <use xlink:href="#DejaVuSans-72"/>
     <use x="41.113281" xlink:href="#DejaVuSans-69"/>
     <use x="68.896484" xlink:href="#DejaVuSans-73"/>
     <use x="120.996094" xlink:href="#DejaVuSans-65"/>
     <use x="182.519531" xlink:href="#DejaVuSans-20"/>
     <use x="214.306641" xlink:href="#DejaVuSans-74"/>
     <use x="253.515625" xlink:href="#DejaVuSans-69"/>
     <use x="281.298828" xlink:href="#DejaVuSans-6d"/>
     <use x="378.710938" xlink:href="#DejaVuSans-65"/>
     <use x="440.234375" xlink:href="#DejaVuSans-3a"/>
     <use x="473.925781" xlink:href="#DejaVuSans-20"/>
     <use x="505.712891" xlink:href="#DejaVuSans-30"/>
     <use x="569.335938" xlink:href="#DejaVuSans-2e"/>
     <use x="601.123047" xlink:href="#DejaVuSans-38"/>
     <use x="664.746094" xlink:href="#DejaVuSans-30"/>
     <use x="728.369141" xlink:href="#DejaVuSans-20"/>
     <use x="760.15625" xlink:href="#DejaVuSans-73"/>
    </g>
    <!-- peak: 3.71 -->
    <g transform="translate(1254.8736 104.379257)scale(0.08 -0.08)">
     <defs>
      <path d="M 1159 525 
L 1159 -1331 
L 581 -1331 
L 581 3500 
L 1159 3500 
L 1159 2969 
Q 1341 3281 1617 3432 
Q 1894 3584 2278 3584 
Q 2916 3584 3314 3078 
Q 3713 2572 3713 1747 
Q 3713 922 3314 415 
Q 2916 -91 2278 -91 
Q 1894 -91 1617 61 
Q 1341 213 1159 525 
z
M 3116 1747 
Q 3116 2381 2855 2742 
Q 2594 3103 2138 3103 
Q 1681 3103 1420 2742 
Q 1159 2381 1159 1747 
Q 1159 1113 1420 752 
Q 1681 391 2138 391 
Q 2594 391 2855 752 
Q 3116 1113 3116 1747 
z
" id="DejaVuSans-70" transform="scale(0.015625)"/>
      <path d="M 581 4863 
L 1159 4863 
L 1159 1991 
L 2875 3500 
L 3609 3500 
L 1753 1863 
L 3688 0 
L 2938 0 
L 1159 1709 
L 1159 0 
L 581 0 
L 581 4863 
z
" id="DejaVuSans-6b" transform="scale(0.015625)"/>
      <path d="M 525 4666 
L 3525 4666 
L 3525 4397 
L 1831 0 
L 1172 0 
L 2766 4134 
L 525 4134 
L 525 4666 
z
" id="DejaVuSans-37" transform="scale(0.015625)"/>
     </defs>
     <use xlink:href="#DejaVuSans-70"/>
     <use x="63.476562" xlink:href="#DejaVuSans-65"/>
     <use x="125" xlink:href="#DejaVuSans-61"/>
     <use x="186.279297" xlink:href="#DejaVuSans-6b"/>
     <use x="244.189453" xlink:href="#DejaVuSans-3a"/>
     <use x="277.880859" xlink:href="#DejaVuSans-20"/>
     <use x="309.667969" xlink:href="#DejaVuSans-33"/>
     <use x="373.291016" xlink:href="#DejaVuSans-2e"/>
     <use x="405.078125" xlink:href="#DejaVuSans-37"/>
     <use x="468.701172" xlink:href="#DejaVuSans-31"/>
    </g>
    <!-- overshoot: 18.0 -->
    <g transform="translate(1254.8736 113.337507)scale(0.08 -0.08)">
     <defs>
      <path d="M 1959 3097 
Q 1497 3097 1228 2736 
Q 959 2375 959 1747 
Q 959 1119 1226 758 
Q 1494 397 1959 397 
Q 2419 397 2687 759 
Q 2956 1122 2956 1747 
Q 2956 2369 2687 2733 
Q 2419 3097 1959 3097 
z
M 1959 3584 
Q 2709 3584 3137 3096 
Q 3566 2609 3566 1747 
Q 3566 888 3137 398 
Q 2709 -91 1959 -91 
Q 1206 -91 779 398 
Q 353 888 353 1747 
Q 353 2609 779 3096 
Q 1206 3584 1959 3584 
z
" id="DejaVuSans-6f" transform="scale(0.015625)"/>
      <path d="M 191 3500 
L 800 3500 
L 1894 563 
L 2988 3500 
L 3597 3500 
L 2284 0 
L 1503 0 
L 191 3500 
z
" id="DejaVuSans-76" transform="scale(0.015625)"/>
      <path d="M 3513 2113 
L 3513 0 
L 2938 0 
L 2938 2094 
Q 2938 2591 2744 2837 
Q 2550 3084 2163 3084 
Q 1697 3084 1428 2787 
Q 1159 2491 1159 1978 
L 1159 0 
L 581 0 
L 581 4863 
L 1159 4863 
L 1159 2956 
Q 1366 3272 1645 3428 
Q 1925 3584 2291 3584 
Q 2894 3584 3203 3211 
Q 3513 2838 3513 2113 
z
" id="DejaVuSans-68" transform="scale(0.015625)"/>
     </defs>
     <use xlink:href="#DejaVuSans-6f"/>
     <use x="61.181641" xlink:href="#DejaVuSans-76"/>
     <use x="120.361328" xlink:href="#DejaVuSans-65"/>
     <use x="181.884766" xlink:href="#DejaVuSans-72"/>
     <use x="222.998047" xlink:href="#DejaVuSans-73"/>
     <use x="275.097656" xlink:href="#DejaVuSans-68"/>
     <use x="338.476562" xlink:href="#DejaVuSans-6f"/>
     <use x="399.658203" xlink:href="#DejaVuSans-6f"/>
     <use x="460.839844" xlink:href="#DejaVuSans-74"/>
     <use x="500.048828" xlink:href="#DejaVuSans-3a"/>
     <use x="533.740234" xlink:href="#DejaVuSans-20"/>
     <use x="565.527344" xlink:href="#DejaVuSans-31"/>
     <use x="629.150391" xlink:href="#DejaVuSans-38"/>
     <use x="692.773438" xlink:href="#DejaVuSans-2e"/>
     <use x="724.560547" xlink:href="#DejaVuSans-30"/>
    </g>
    <!-- $\max(|\int x|)$: 1.517 -->
    <g transform="translate(1254.8736 125.369257)scale(0.08 -0.08)">
     <defs>
      <path d="M 3513 3500 
L 2247 1797 
L 3578 0 
L 2900 0 
L 1881 1375 
L 863 0 
L 184 0 
L 1544 1831 
L 300 3500 
L 978 3500 
L 1906 2253 
L 2834 3500 
L 3513 3500 
z
" id="DejaVuSans-78" transform="scale(0.015625)"/>
      <path d="M 1984 4856 
Q 1566 4138 1362 3434 
Q 1159 2731 1159 2009 
Q 1159 1288 1364 580 
Q 1569 -128 1984 -844 
L 1484 -844 
Q 1016 -109 783 600 
Q 550 1309 550 2009 
Q 550 2706 781 3412 
Q 1013 4119 1484 4856 
L 1984 4856 
z
" id="DejaVuSans-28" transform="scale(0.015625)"/>
      <path d="M 1344 4891 
L 1344 -1509 
L 813 -1509 
L 813 4891 
L 1344 4891 
z
" id="DejaVuSans-7c" transform="scale(0.015625)"/>
      <path d="M 2134 5525 
Q 2172 6263 2528 6556 
Q 2884 6850 3218 6850 
Q 3553 6850 3833 6575 
Q 4113 6300 4200 5678 
L 3544 5613 
Q 3469 6188 3219 6188 
Q 2906 6188 2869 5413 
L 2581 -597 
Q 2547 -1334 2187 -1628 
Q 1828 -1922 1497 -1922 
Q 1163 -1922 883 -1647 
Q 603 -1372 516 -750 
L 1172 -684 
Q 1247 -1259 1497 -1259 
Q 1809 -1259 1847 -488 
L 2134 5525 
z
" id="DejaVuSansDisplay-222b" transform="scale(0.015625)"/>
      <path d="M 3841 3500 
L 2234 1784 
L 3219 0 
L 2559 0 
L 1819 1388 
L 531 0 
L -166 0 
L 1556 1844 
L 641 3500 
L 1300 3500 
L 1972 2234 
L 3144 3500 
L 3841 3500 
z
" id="DejaVuSans-Oblique-78" transform="scale(0.015625)"/>
      <path d="M 513 4856 
L 1013 4856 
Q 1481 4119 1714 3412 
Q 1947 2706 1947 2009 
Q 1947 1309 1714 600 
Q 1481 -109 1013 -844 
L 513 -844 
Q 928 -128 1133 580 
Q 1338 1288 1338 2009 
Q 1338 2731 1133 3434 
Q 928 4138 513 4856 
z
" id="DejaVuSans-29" transform="scale(0.015625)"/>
     </defs>
     <use transform="translate(0 0.96875)" xlink:href="#DejaVuSans-6d"/>
     <use transform="translate(97.412109 0.96875)" xlink:href="#DejaVuSans-61"/>
     <use transform="translate(158.691406 0.96875)" xlink:href="#DejaVuSans-78"/>
     <use transform="translate(217.871094 0.96875)" xlink:href="#DejaVuSans-28"/>
     <use transform="translate(256.884766 0.96875)" xlink:href="#DejaVuSans-7c"/>
     <use transform="translate(290.576172 0.96875)" xlink:href="#DejaVuSansDisplay-222b"/>
     <use transform="translate(364.208984 0.96875)" xlink:href="#DejaVuSans-Oblique-78"/>
     <use transform="translate(423.388672 0.96875)" xlink:href="#DejaVuSans-7c"/>
     <use transform="translate(457.080078 0.96875)" xlink:href="#DejaVuSans-29"/>
     <use transform="translate(496.09375 0.96875)" xlink:href="#DejaVuSans-3a"/>
     <use transform="translate(529.785156 0.96875)" xlink:href="#DejaVuSans-20"/>
     <use transform="translate(561.572266 0.96875)" xlink:href="#DejaVuSans-31"/>
     <use transform="translate(625.195312 0.96875)" xlink:href="#DejaVuSans-2e"/>
     <use transform="translate(656.982422 0.96875)" xlink:href="#DejaVuSans-35"/>
     <use transform="translate(720.605469 0.96875)" xlink:href="#DejaVuSans-31"/>
     <use transform="translate(784.228516 0.96875)" xlink:href="#DejaVuSans-37"/>
    </g>
    <!--  -->
    <g transform="translate(1254.8736 135.143757)scale(0.08 -0.08)"/>
   </g>
   <g id="text_17">
    <!-- Step in yaw-rate ($\dot\psi$) -->
    <g transform="translate(648.48 78.4128)scale(0.12 -0.12)">
     <defs>
      <path d="M 3425 4513 
L 3425 3897 
Q 3066 4069 2747 4153 
Q 2428 4238 2131 4238 
Q 1616 4238 1336 4038 
Q 1056 3838 1056 3469 
Q 1056 3159 1242 3001 
Q 1428 2844 1947 2747 
L 2328 2669 
Q 3034 2534 3370 2195 
Q 3706 1856 3706 1288 
Q 3706 609 3251 259 
Q 2797 -91 1919 -91 
Q 1588 -91 1214 -16 
Q 841 59 441 206 
L 441 856 
Q 825 641 1194 531 
Q 1563 422 1919 422 
Q 2459 422 2753 634 
Q 3047 847 3047 1241 
Q 3047 1584 2836 1778 
Q 2625 1972 2144 2069 
L 1759 2144 
Q 1053 2284 737 2584 
Q 422 2884 422 3419 
Q 422 4038 858 4394 
Q 1294 4750 2059 4750 
Q 2388 4750 2728 4690 
Q 3069 4631 3425 4513 
z
" id="DejaVuSans-53" transform="scale(0.015625)"/>
      <path d="M 2059 -325 
Q 1816 -950 1584 -1140 
Q 1353 -1331 966 -1331 
L 506 -1331 
L 506 -850 
L 844 -850 
Q 1081 -850 1212 -737 
Q 1344 -625 1503 -206 
L 1606 56 
L 191 3500 
L 800 3500 
L 1894 763 
L 2988 3500 
L 3597 3500 
L 2059 -325 
z
" id="DejaVuSans-79" transform="scale(0.015625)"/>
      <path d="M 269 3500 
L 844 3500 
L 1563 769 
L 2278 3500 
L 2956 3500 
L 3675 769 
L 4391 3500 
L 4966 3500 
L 4050 0 
L 3372 0 
L 2619 2869 
L 1863 0 
L 1184 0 
L 269 3500 
z
" id="DejaVuSans-77" transform="scale(0.015625)"/>
      <path d="M -1894 4863 
L -1319 4863 
L -1319 4134 
L -1894 4134 
L -1894 4863 
z
M -1600 3584 
L -1600 3584 
z
" id="DejaVuSans-307" transform="scale(0.015625)"/>
      <path d="M 1591 -78 
Q 891 38 616 341 
Q 278 713 425 1472 
L 819 3500 
L 1400 3500 
L 1009 1494 
Q 900 922 1119 684 
Q 1313 478 1691 434 
L 2284 3500 
L 2856 3500 
L 2263 438 
Q 2681 481 2928 688 
Q 3247 950 3353 1497 
L 3741 3500 
L 4322 3500 
L 3928 1475 
Q 3775 688 3300 344 
Q 2872 34 2163 -75 
L 1919 -1331 
L 1347 -1331 
L 1591 -78 
z
" id="DejaVuSans-Oblique-3c8" transform="scale(0.015625)"/>
     </defs>
     <use transform="translate(0 0.828125)" xlink:href="#DejaVuSans-53"/>
     <use transform="translate(63.476562 0.828125)" xlink:href="#DejaVuSans-74"/>
     <use transform="translate(102.685547 0.828125)" xlink:href="#DejaVuSans-65"/>
     <use transform="translate(164.208984 0.828125)" xlink:href="#DejaVuSans-70"/>
     <use transform="translate(227.685547 0.828125)" xlink:href="#DejaVuSans-20"/>
     <use transform="translate(259.472656 0.828125)" xlink:href="#DejaVuSans-69"/>
     <use transform="translate(287.255859 0.828125)" xlink:href="#DejaVuSans-6e"/>
     <use transform="translate(350.634766 0.828125)" xlink:href="#DejaVuSans-20"/>
     <use transform="translate(382.421875 0.828125)" xlink:href="#DejaVuSans-79"/>
     <use transform="translate(441.601562 0.828125)" xlink:href="#DejaVuSans-61"/>
     <use transform="translate(502.880859 0.828125)" xlink:href="#DejaVuSans-77"/>
     <use transform="translate(584.667969 0.828125)" xlink:href="#DejaVuSans-2d"/>
     <use transform="translate(620.751953 0.828125)" xlink:href="#DejaVuSans-72"/>
     <use transform="translate(661.865234 0.828125)" xlink:href="#DejaVuSans-61"/>
     <use transform="translate(723.144531 0.828125)" xlink:href="#DejaVuSans-74"/>
     <use transform="translate(762.353516 0.828125)" xlink:href="#DejaVuSans-65"/>
     <use transform="translate(823.876953 0.828125)" xlink:href="#DejaVuSans-20"/>
     <use transform="translate(855.664062 0.828125)" xlink:href="#DejaVuSans-28"/>
     <use transform="translate(959.064453 12.015625)" xlink:href="#DejaVuSans-307"/>
     <use transform="translate(894.677734 0.828125)" xlink:href="#DejaVuSans-Oblique-3c8"/>
     <use transform="translate(960.644531 0.828125)" xlink:href="#DejaVuSans-29"/>
    </g>
   </g>
   <g id="legend_1">
    <g id="patch_7">
     <path d="M 1196.06 280.852436 
L 1237.16 280.852436 
Q 1239.16 280.852436 1239.16 278.852436 
L 1239.16 250.496186 
Q 1239.16 248.496186 1237.16 248.496186 
L 1196.06 248.496186 
Q 1194.06 248.496186 1194.06 250.496186 
L 1194.06 278.852436 
Q 1194.06 280.852436 1196.06 280.852436 
z
" style="fill:#ffffff;opacity:0.8;stroke:#cccccc;stroke-linejoin:miter;"/>
    </g>
    <g id="line2d_31">
     <path d="M 1198.06 256.594624 
L 1218.06 256.594624 
" style="fill:none;stroke:#d62728;stroke-dasharray:5.55,2.4;stroke-dashoffset:0;stroke-width:1.5;"/>
    </g>
    <g id="line2d_32"/>
    <g id="text_18">
     <!-- $x_r$ -->
     <g transform="translate(1226.06 260.094624)scale(0.1 -0.1)">
      <defs>
       <path d="M 2853 2969 
Q 2766 3016 2653 3041 
Q 2541 3066 2413 3066 
Q 1953 3066 1609 2717 
Q 1266 2369 1153 1784 
L 800 0 
L 225 0 
L 909 3500 
L 1484 3500 
L 1375 2956 
Q 1603 3259 1920 3421 
Q 2238 3584 2597 3584 
Q 2691 3584 2781 3573 
Q 2872 3563 2963 3538 
L 2853 2969 
z
" id="DejaVuSans-Oblique-72" transform="scale(0.015625)"/>
      </defs>
      <use transform="translate(0 0.3125)" xlink:href="#DejaVuSans-Oblique-78"/>
      <use transform="translate(59.179688 -16.09375)scale(0.7)" xlink:href="#DejaVuSans-Oblique-72"/>
     </g>
    </g>
    <g id="line2d_33">
     <path d="M 1198.06 271.272749 
L 1218.06 271.272749 
" style="fill:none;stroke:#1f77b4;stroke-linecap:square;stroke-width:1.5;"/>
    </g>
    <g id="line2d_34"/>
    <g id="text_19">
     <!-- $x$ -->
     <g transform="translate(1226.06 274.772749)scale(0.1 -0.1)">
      <use transform="translate(0 0.3125)" xlink:href="#DejaVuSans-Oblique-78"/>
     </g>
    </g>
   </g>
  </g>
  <g id="axes_2">
   <g id="patch_8">
    <path d="M 172.8 527.58 
L 1244.16 527.58 
L 1244.16 326.140364 
L 172.8 326.140364 
z
" style="fill:#ffffff;"/>
   </g>
   <g id="matplotlib.axis_3">
    <g id="xtick_7">
     <g id="line2d_35">
      <path clip-path="url(#p1ee085f7bc)" d="M 221.498182 527.58 
L 221.498182 326.140364 
" style="fill:none;stroke:#b0b0b0;stroke-linecap:square;stroke-width:0.8;"/>
     </g>
     <g id="line2d_36">
      <g>
       <use style="stroke:#000000;stroke-width:0.8;" x="221.498182" xlink:href="#mf00799923b" y="527.58"/>
      </g>
     </g>
     <g id="text_20">
      <!-- 0 -->
      <g transform="translate(218.316932 542.178437)scale(0.1 -0.1)">
       <use xlink:href="#DejaVuSans-30"/>
      </g>
     </g>
    </g>
    <g id="xtick_8">
     <g id="line2d_37">
      <path clip-path="url(#p1ee085f7bc)" d="M 416.290909 527.58 
L 416.290909 326.140364 
" style="fill:none;stroke:#b0b0b0;stroke-linecap:square;stroke-width:0.8;"/>
     </g>
     <g id="line2d_38">
      <g>
       <use style="stroke:#000000;stroke-width:0.8;" x="416.290909" xlink:href="#mf00799923b" y="527.58"/>
      </g>
     </g>
     <g id="text_21">
      <!-- 2 -->
      <g transform="translate(413.109659 542.178437)scale(0.1 -0.1)">
       <use xlink:href="#DejaVuSans-32"/>
      </g>
     </g>
    </g>
    <g id="xtick_9">
     <g id="line2d_39">
      <path clip-path="url(#p1ee085f7bc)" d="M 611.083636 527.58 
L 611.083636 326.140364 
" style="fill:none;stroke:#b0b0b0;stroke-linecap:square;stroke-width:0.8;"/>
     </g>
     <g id="line2d_40">
      <g>
       <use style="stroke:#000000;stroke-width:0.8;" x="611.083636" xlink:href="#mf00799923b" y="527.58"/>
      </g>
     </g>
     <g id="text_22">
      <!-- 4 -->
      <g transform="translate(607.902386 542.178437)scale(0.1 -0.1)">
       <use xlink:href="#DejaVuSans-34"/>
      </g>
     </g>
    </g>
    <g id="xtick_10">
     <g id="line2d_41">
      <path clip-path="url(#p1ee085f7bc)" d="M 805.876364 527.58 
L 805.876364 326.140364 
" style="fill:none;stroke:#b0b0b0;stroke-linecap:square;stroke-width:0.8;"/>
     </g>
     <g id="line2d_42">
      <g>
       <use style="stroke:#000000;stroke-width:0.8;" x="805.876364" xlink:href="#mf00799923b" y="527.58"/>
      </g>
     </g>
     <g id="text_23">
      <!-- 6 -->
      <g transform="translate(802.695114 542.178437)scale(0.1 -0.1)">
       <use xlink:href="#DejaVuSans-36"/>
      </g>
     </g>
    </g>
    <g id="xtick_11">
     <g id="line2d_43">
      <path clip-path="url(#p1ee085f7bc)" d="M 1000.669091 527.58 
L 1000.669091 326.140364 
" style="fill:none;stroke:#b0b0b0;stroke-linecap:square;stroke-width:0.8;"/>
     </g>
     <g id="line2d_44">
      <g>
       <use style="stroke:#000000;stroke-width:0.8;" x="1000.669091" xlink:href="#mf00799923b" y="527.58"/>
      </g>
     </g>
     <g id="text_24">
      <!-- 8 -->
      <g transform="translate(997.487841 542.178437)scale(0.1 -0.1)">
       <use xlink:href="#DejaVuSans-38"/>
      </g>
     </g>
    </g>
    <g id="xtick_12">
     <g id="line2d_45">
      <path clip-path="url(#p1ee085f7bc)" d="M 1195.461818 527.58 
L 1195.461818 326.140364 
" style="fill:none;stroke:#b0b0b0;stroke-linecap:square;stroke-width:0.8;"/>
     </g>
     <g id="line2d_46">
      <g>
       <use style="stroke:#000000;stroke-width:0.8;" x="1195.461818" xlink:href="#mf00799923b" y="527.58"/>
      </g>
     </g>
     <g id="text_25">
      <!-- 10 -->
      <g transform="translate(1189.099318 542.178437)scale(0.1 -0.1)">
       <use xlink:href="#DejaVuSans-31"/>
       <use x="63.623047" xlink:href="#DejaVuSans-30"/>
      </g>
     </g>
    </g>
    <g id="text_26">
     <!-- Time [s] -->
     <g transform="translate(688.151094 555.856562)scale(0.1 -0.1)">
      <defs>
       <path d="M -19 4666 
L 3928 4666 
L 3928 4134 
L 2272 4134 
L 2272 0 
L 1638 0 
L 1638 4134 
L -19 4134 
L -19 4666 
z
" id="DejaVuSans-54" transform="scale(0.015625)"/>
      </defs>
      <use xlink:href="#DejaVuSans-54"/>
      <use x="57.958984" xlink:href="#DejaVuSans-69"/>
      <use x="85.742188" xlink:href="#DejaVuSans-6d"/>
      <use x="183.154297" xlink:href="#DejaVuSans-65"/>
      <use x="244.677734" xlink:href="#DejaVuSans-20"/>
      <use x="276.464844" xlink:href="#DejaVuSans-5b"/>
      <use x="315.478516" xlink:href="#DejaVuSans-73"/>
      <use x="367.578125" xlink:href="#DejaVuSans-5d"/>
     </g>
    </g>
   </g>
   <g id="matplotlib.axis_4">
    <g id="ytick_9">
     <g id="line2d_47">
      <path clip-path="url(#p1ee085f7bc)" d="M 172.8 510.833802 
L 1244.16 510.833802 
" style="fill:none;stroke:#b0b0b0;stroke-linecap:square;stroke-width:0.8;"/>
     </g>
     <g id="line2d_48">
      <g>
       <use style="stroke:#000000;stroke-width:0.8;" x="172.8" xlink:href="#m9e9e978055" y="510.833802"/>
      </g>
     </g>
     <g id="text_27">
      <!-- 0.00 -->
      <g transform="translate(143.534375 514.63302)scale(0.1 -0.1)">
       <use xlink:href="#DejaVuSans-30"/>
       <use x="63.623047" xlink:href="#DejaVuSans-2e"/>
       <use x="95.410156" xlink:href="#DejaVuSans-30"/>
       <use x="159.033203" xlink:href="#DejaVuSans-30"/>
      </g>
     </g>
    </g>
    <g id="ytick_10">
     <g id="line2d_49">
      <path clip-path="url(#p1ee085f7bc)" d="M 172.8 483.083218 
L 1244.16 483.083218 
" style="fill:none;stroke:#b0b0b0;stroke-linecap:square;stroke-width:0.8;"/>
     </g>
     <g id="line2d_50">
      <g>
       <use style="stroke:#000000;stroke-width:0.8;" x="172.8" xlink:href="#m9e9e978055" y="483.083218"/>
      </g>
     </g>
     <g id="text_28">
      <!-- 0.02 -->
      <g transform="translate(143.534375 486.882437)scale(0.1 -0.1)">
       <use xlink:href="#DejaVuSans-30"/>
       <use x="63.623047" xlink:href="#DejaVuSans-2e"/>
       <use x="95.410156" xlink:href="#DejaVuSans-30"/>
       <use x="159.033203" xlink:href="#DejaVuSans-32"/>
      </g>
     </g>
    </g>
    <g id="ytick_11">
     <g id="line2d_51">
      <path clip-path="url(#p1ee085f7bc)" d="M 172.8 455.332634 
L 1244.16 455.332634 
" style="fill:none;stroke:#b0b0b0;stroke-linecap:square;stroke-width:0.8;"/>
     </g>
     <g id="line2d_52">
      <g>
       <use style="stroke:#000000;stroke-width:0.8;" x="172.8" xlink:href="#m9e9e978055" y="455.332634"/>
      </g>
     </g>
     <g id="text_29">
      <!-- 0.04 -->
      <g transform="translate(143.534375 459.131853)scale(0.1 -0.1)">
       <use xlink:href="#DejaVuSans-30"/>
       <use x="63.623047" xlink:href="#DejaVuSans-2e"/>
       <use x="95.410156" xlink:href="#DejaVuSans-30"/>
       <use x="159.033203" xlink:href="#DejaVuSans-34"/>
      </g>
     </g>
    </g>
    <g id="ytick_12">
     <g id="line2d_53">
      <path clip-path="url(#p1ee085f7bc)" d="M 172.8 427.582051 
L 1244.16 427.582051 
" style="fill:none;stroke:#b0b0b0;stroke-linecap:square;stroke-width:0.8;"/>
     </g>
     <g id="line2d_54">
      <g>
       <use style="stroke:#000000;stroke-width:0.8;" x="172.8" xlink:href="#m9e9e978055" y="427.582051"/>
      </g>
     </g>
     <g id="text_30">
      <!-- 0.06 -->
      <g transform="translate(143.534375 431.38127)scale(0.1 -0.1)">
       <use xlink:href="#DejaVuSans-30"/>
       <use x="63.623047" xlink:href="#DejaVuSans-2e"/>
       <use x="95.410156" xlink:href="#DejaVuSans-30"/>
       <use x="159.033203" xlink:href="#DejaVuSans-36"/>
      </g>
     </g>
    </g>
    <g id="ytick_13">
     <g id="line2d_55">
      <path clip-path="url(#p1ee085f7bc)" d="M 172.8 399.831467 
L 1244.16 399.831467 
" style="fill:none;stroke:#b0b0b0;stroke-linecap:square;stroke-width:0.8;"/>
     </g>
     <g id="line2d_56">
      <g>
       <use style="stroke:#000000;stroke-width:0.8;" x="172.8" xlink:href="#m9e9e978055" y="399.831467"/>
      </g>
     </g>
     <g id="text_31">
      <!-- 0.08 -->
      <g transform="translate(143.534375 403.630686)scale(0.1 -0.1)">
       <use xlink:href="#DejaVuSans-30"/>
       <use x="63.623047" xlink:href="#DejaVuSans-2e"/>
       <use x="95.410156" xlink:href="#DejaVuSans-30"/>
       <use x="159.033203" xlink:href="#DejaVuSans-38"/>
      </g>
     </g>
    </g>
    <g id="ytick_14">
     <g id="line2d_57">
      <path clip-path="url(#p1ee085f7bc)" d="M 172.8 372.080884 
L 1244.16 372.080884 
" style="fill:none;stroke:#b0b0b0;stroke-linecap:square;stroke-width:0.8;"/>
     </g>
     <g id="line2d_58">
      <g>
       <use style="stroke:#000000;stroke-width:0.8;" x="172.8" xlink:href="#m9e9e978055" y="372.080884"/>
      </g>
     </g>
     <g id="text_32">
      <!-- 0.10 -->
      <g transform="translate(143.534375 375.880103)scale(0.1 -0.1)">
       <use xlink:href="#DejaVuSans-30"/>
       <use x="63.623047" xlink:href="#DejaVuSans-2e"/>
       <use x="95.410156" xlink:href="#DejaVuSans-31"/>
       <use x="159.033203" xlink:href="#DejaVuSans-30"/>
      </g>
     </g>
    </g>
    <g id="ytick_15">
     <g id="line2d_59">
      <path clip-path="url(#p1ee085f7bc)" d="M 172.8 344.3303 
L 1244.16 344.3303 
" style="fill:none;stroke:#b0b0b0;stroke-linecap:square;stroke-width:0.8;"/>
     </g>
     <g id="line2d_60">
      <g>
       <use style="stroke:#000000;stroke-width:0.8;" x="172.8" xlink:href="#m9e9e978055" y="344.3303"/>
      </g>
     </g>
     <g id="text_33">
      <!-- 0.12 -->
      <g transform="translate(143.534375 348.129519)scale(0.1 -0.1)">
       <use xlink:href="#DejaVuSans-30"/>
       <use x="63.623047" xlink:href="#DejaVuSans-2e"/>
       <use x="95.410156" xlink:href="#DejaVuSans-31"/>
       <use x="159.033203" xlink:href="#DejaVuSans-32"/>
      </g>
     </g>
    </g>
    <g id="text_34">
     <!-- Ctrl input [Nm] -->
     <g transform="translate(137.454687 464.307838)rotate(-90)scale(0.1 -0.1)">
      <defs>
       <path d="M 4122 4306 
L 4122 3641 
Q 3803 3938 3442 4084 
Q 3081 4231 2675 4231 
Q 1875 4231 1450 3742 
Q 1025 3253 1025 2328 
Q 1025 1406 1450 917 
Q 1875 428 2675 428 
Q 3081 428 3442 575 
Q 3803 722 4122 1019 
L 4122 359 
Q 3791 134 3420 21 
Q 3050 -91 2638 -91 
Q 1578 -91 968 557 
Q 359 1206 359 2328 
Q 359 3453 968 4101 
Q 1578 4750 2638 4750 
Q 3056 4750 3426 4639 
Q 3797 4528 4122 4306 
z
" id="DejaVuSans-43" transform="scale(0.015625)"/>
       <path d="M 628 4666 
L 1478 4666 
L 3547 763 
L 3547 4666 
L 4159 4666 
L 4159 0 
L 3309 0 
L 1241 3903 
L 1241 0 
L 628 0 
L 628 4666 
z
" id="DejaVuSans-4e" transform="scale(0.015625)"/>
      </defs>
      <use xlink:href="#DejaVuSans-43"/>
      <use x="69.824219" xlink:href="#DejaVuSans-74"/>
      <use x="109.033203" xlink:href="#DejaVuSans-72"/>
      <use x="150.146484" xlink:href="#DejaVuSans-6c"/>
      <use x="177.929688" xlink:href="#DejaVuSans-20"/>
      <use x="209.716797" xlink:href="#DejaVuSans-69"/>
      <use x="237.5" xlink:href="#DejaVuSans-6e"/>
      <use x="300.878906" xlink:href="#DejaVuSans-70"/>
      <use x="364.355469" xlink:href="#DejaVuSans-75"/>
      <use x="427.734375" xlink:href="#DejaVuSans-74"/>
      <use x="466.943359" xlink:href="#DejaVuSans-20"/>
      <use x="498.730469" xlink:href="#DejaVuSans-5b"/>
      <use x="537.744141" xlink:href="#DejaVuSans-4e"/>
      <use x="612.548828" xlink:href="#DejaVuSans-6d"/>
      <use x="709.960938" xlink:href="#DejaVuSans-5d"/>
     </g>
    </g>
   </g>
   <g id="line2d_61">
    <path clip-path="url(#p1ee085f7bc)" d="M 221.498182 336.471743 
L 223.446109 335.350005 
L 225.394036 335.296711 
L 227.341964 336.087822 
L 229.289891 337.543087 
L 231.237818 339.517533 
L 233.185745 341.894603 
L 235.133673 344.580637 
L 239.029527 350.593589 
L 242.925382 357.116164 
L 260.456727 387.21974 
L 266.300509 396.6131 
L 272.144291 405.519264 
L 277.988073 413.922663 
L 283.831855 421.827762 
L 289.675636 429.248999 
L 295.519418 436.205537 
L 301.3632 442.71853 
L 307.206982 448.809705 
L 313.050764 454.500634 
L 318.894545 459.81237 
L 324.738327 464.765259 
L 330.582109 469.378869 
L 336.425891 473.671952 
L 342.269673 477.66245 
L 348.113455 481.367499 
L 353.957236 484.803454 
L 359.801018 487.985908 
L 365.6448 490.92972 
L 371.488582 493.649034 
L 377.332364 496.157312 
L 383.176145 498.467353 
L 389.019927 500.591321 
L 396.811636 503.153715 
L 404.603345 505.431555 
L 412.395055 507.448852 
L 420.186764 509.227958 
L 427.978473 510.789652 
L 435.770182 512.153232 
L 445.509818 513.606256 
L 455.249455 514.809702 
L 464.989091 515.792697 
L 476.676655 516.718264 
L 488.364218 517.405055 
L 501.999709 517.952387 
L 515.6352 518.273546 
L 531.218618 518.418341 
L 548.749964 518.361829 
L 570.177164 518.064864 
L 597.448145 517.45561 
L 644.1984 516.149244 
L 710.427927 514.339052 
L 755.230255 513.340763 
L 800.032582 512.560946 
L 848.730764 511.93956 
L 903.272727 511.470099 
L 969.502255 511.13103 
L 1057.158982 510.919163 
L 1195.461818 510.828249 
L 1195.461818 510.828249 
" style="fill:none;stroke:#2ca02c;stroke-linecap:square;stroke-width:1.5;"/>
   </g>
   <g id="patch_9">
    <path d="M 172.8 527.58 
L 172.8 326.140364 
" style="fill:none;stroke:#000000;stroke-linecap:square;stroke-linejoin:miter;stroke-width:0.8;"/>
   </g>
   <g id="patch_10">
    <path d="M 1244.16 527.58 
L 1244.16 326.140364 
" style="fill:none;stroke:#000000;stroke-linecap:square;stroke-linejoin:miter;stroke-width:0.8;"/>
   </g>
   <g id="patch_11">
    <path d="M 172.8 527.58 
L 1244.16 527.58 
" style="fill:none;stroke:#000000;stroke-linecap:square;stroke-linejoin:miter;stroke-width:0.8;"/>
   </g>
   <g id="patch_12">
    <path d="M 172.8 326.140364 
L 1244.16 326.140364 
" style="fill:none;stroke:#000000;stroke-linecap:square;stroke-linejoin:miter;stroke-width:0.8;"/>
   </g>
   <g id="legend_2">
    <g id="patch_13">
     <path d="M 1198.76 348.818489 
L 1237.16 348.818489 
Q 1239.16 348.818489 1239.16 346.818489 
L 1239.16 333.140364 
Q 1239.16 331.140364 1237.16 331.140364 
L 1198.76 331.140364 
Q 1196.76 331.140364 1196.76 333.140364 
L 1196.76 346.818489 
Q 1196.76 348.818489 1198.76 348.818489 
z
" style="fill:#ffffff;opacity:0.8;stroke:#cccccc;stroke-linejoin:miter;"/>
    </g>
    <g id="line2d_62">
     <path d="M 1200.76 339.238801 
L 1220.76 339.238801 
" style="fill:none;stroke:#2ca02c;stroke-linecap:square;stroke-width:1.5;"/>
    </g>
    <g id="line2d_63"/>
    <g id="text_35">
     <!-- $u$ -->
     <g transform="translate(1228.76 342.738801)scale(0.1 -0.1)">
      <defs>
       <path d="M 428 1388 
L 838 3500 
L 1416 3500 
L 1006 1409 
Q 975 1256 961 1147 
Q 947 1038 947 966 
Q 947 700 1109 554 
Q 1272 409 1569 409 
Q 2031 409 2368 721 
Q 2706 1034 2809 1563 
L 3194 3500 
L 3769 3500 
L 3091 0 
L 2516 0 
L 2631 550 
Q 2388 244 2052 76 
Q 1716 -91 1338 -91 
Q 878 -91 622 161 
Q 366 413 366 863 
Q 366 956 381 1097 
Q 397 1238 428 1388 
z
" id="DejaVuSans-Oblique-75" transform="scale(0.015625)"/>
      </defs>
      <use transform="translate(0 0.3125)" xlink:href="#DejaVuSans-Oblique-75"/>
     </g>
    </g>
   </g>
  </g>
  <g id="axes_3">
   <g id="patch_14">
    <path d="M 276.48 576.8208 
L 1105.92 576.8208 
L 1105.92 569.7864 
L 276.48 569.7864 
z
" style="fill:#ffffff;"/>
   </g>
   <g id="patch_15">
    <path clip-path="url(#pb6d12d25cc)" d="M 276.48 576.8208 
L 276.48 569.7864 
L 442.368 569.7864 
L 442.368 576.8208 
z
" style="fill:#1f77b4;"/>
   </g>
   <g id="matplotlib.axis_5"/>
   <g id="matplotlib.axis_6"/>
   <g id="line2d_64">
    <path clip-path="url(#pb6d12d25cc)" d="M 442.368 576.8208 
L 442.368 569.7864 
" style="fill:none;stroke:#ff0000;stroke-linecap:square;"/>
   </g>
   <g id="patch_16">
    <path d="M 276.48 576.8208 
L 276.48 569.7864 
" style="fill:none;stroke:#000000;stroke-linecap:square;stroke-linejoin:miter;stroke-width:0.8;"/>
   </g>
   <g id="patch_17">
    <path d="M 1105.92 576.8208 
L 1105.92 569.7864 
" style="fill:none;stroke:#000000;stroke-linecap:square;stroke-linejoin:miter;stroke-width:0.8;"/>
   </g>
   <g id="patch_18">
    <path d="M 276.48 576.8208 
L 1105.92 576.8208 
" style="fill:none;stroke:#000000;stroke-linecap:square;stroke-linejoin:miter;stroke-width:0.8;"/>
   </g>
   <g id="patch_19">
    <path d="M 276.48 569.7864 
L 1105.92 569.7864 
" style="fill:none;stroke:#000000;stroke-linecap:square;stroke-linejoin:miter;stroke-width:0.8;"/>
   </g>
   <g id="text_36">
    <!-- L_1 -->
    <g transform="translate(242.956825 575.78485)scale(0.1 -0.1)">
     <defs>
      <path d="M 628 4666 
L 1259 4666 
L 1259 531 
L 3531 531 
L 3531 0 
L 628 0 
L 628 4666 
z
" id="DejaVuSans-4c" transform="scale(0.015625)"/>
      <path d="M 3263 -1063 
L 3263 -1509 
L -63 -1509 
L -63 -1063 
L 3263 -1063 
z
" id="DejaVuSans-5f" transform="scale(0.015625)"/>
     </defs>
     <use xlink:href="#DejaVuSans-4c"/>
     <use x="55.712891" xlink:href="#DejaVuSans-5f"/>
     <use x="105.712891" xlink:href="#DejaVuSans-31"/>
    </g>
   </g>
   <g id="text_37">
    <!-- $\mathdefault{0.02}$ -->
    <g transform="translate(1122.5088 576.062975)scale(0.1 -0.1)">
     <use transform="translate(0 0.78125)" xlink:href="#DejaVuSans-30"/>
     <use transform="translate(63.623047 0.78125)" xlink:href="#DejaVuSans-2e"/>
     <use transform="translate(95.410156 0.78125)" xlink:href="#DejaVuSans-30"/>
     <use transform="translate(159.033203 0.78125)" xlink:href="#DejaVuSans-32"/>
    </g>
   </g>
  </g>
  <g id="axes_4">
   <g id="patch_20">
    <path d="M 276.48 597.924 
L 1105.92 597.924 
L 1105.92 590.8896 
L 276.48 590.8896 
z
" style="fill:#ffffff;"/>
   </g>
   <g id="patch_21">
    <path clip-path="url(#p5e72f39822)" d="M 276.48 597.924 
L 276.48 590.8896 
L 608.256 590.8896 
L 608.256 597.924 
z
" style="fill:#1f77b4;"/>
   </g>
   <g id="matplotlib.axis_7"/>
   <g id="matplotlib.axis_8"/>
   <g id="line2d_65">
    <path clip-path="url(#p5e72f39822)" d="M 608.256 597.924 
L 608.256 590.8896 
" style="fill:none;stroke:#ff0000;stroke-linecap:square;"/>
   </g>
   <g id="patch_22">
    <path d="M 276.48 597.924 
L 276.48 590.8896 
" style="fill:none;stroke:#000000;stroke-linecap:square;stroke-linejoin:miter;stroke-width:0.8;"/>
   </g>
   <g id="patch_23">
    <path d="M 1105.92 597.924 
L 1105.92 590.8896 
" style="fill:none;stroke:#000000;stroke-linecap:square;stroke-linejoin:miter;stroke-width:0.8;"/>
   </g>
   <g id="patch_24">
    <path d="M 276.48 597.924 
L 1105.92 597.924 
" style="fill:none;stroke:#000000;stroke-linecap:square;stroke-linejoin:miter;stroke-width:0.8;"/>
   </g>
   <g id="patch_25">
    <path d="M 276.48 590.8896 
L 1105.92 590.8896 
" style="fill:none;stroke:#000000;stroke-linecap:square;stroke-linejoin:miter;stroke-width:0.8;"/>
   </g>
   <g id="text_38">
    <!-- L_2 -->
    <g transform="translate(242.956825 596.938831)scale(0.1 -0.1)">
     <use xlink:href="#DejaVuSans-4c"/>
     <use x="55.712891" xlink:href="#DejaVuSans-5f"/>
     <use x="105.712891" xlink:href="#DejaVuSans-32"/>
    </g>
   </g>
   <g id="text_39">
    <!-- $\mathdefault{0.04}$ -->
    <g transform="translate(1122.5088 597.166175)scale(0.1 -0.1)">
     <use transform="translate(0 0.78125)" xlink:href="#DejaVuSans-30"/>
     <use transform="translate(63.623047 0.78125)" xlink:href="#DejaVuSans-2e"/>
     <use transform="translate(95.410156 0.78125)" xlink:href="#DejaVuSans-30"/>
     <use transform="translate(159.033203 0.78125)" xlink:href="#DejaVuSans-34"/>
    </g>
   </g>
  </g>
  <g id="axes_5">
   <g id="patch_26">
    <path d="M 276.48 619.0272 
L 1105.92 619.0272 
L 1105.92 611.9928 
L 276.48 611.9928 
z
" style="fill:#ffffff;"/>
   </g>
   <g id="patch_27">
    <path clip-path="url(#pe96b6cdc36)" d="M 276.48 619.0272 
L 276.48 611.9928 
L 276.48 611.9928 
z
" style="fill:#1f77b4;"/>
   </g>
   <g id="matplotlib.axis_9"/>
   <g id="matplotlib.axis_10"/>
   <g id="line2d_66">
    <path clip-path="url(#pe96b6cdc36)" d="M 276.48 619.0272 
L 276.48 611.9928 
" style="fill:none;stroke:#ff0000;stroke-linecap:square;"/>
   </g>
   <g id="patch_28">
    <path d="M 276.48 619.0272 
L 276.48 611.9928 
" style="fill:none;stroke:#000000;stroke-linecap:square;stroke-linejoin:miter;stroke-width:0.8;"/>
   </g>
   <g id="patch_29">
    <path d="M 1105.92 619.0272 
L 1105.92 611.9928 
" style="fill:none;stroke:#000000;stroke-linecap:square;stroke-linejoin:miter;stroke-width:0.8;"/>
   </g>
   <g id="patch_30">
    <path d="M 276.48 619.0272 
L 1105.92 619.0272 
" style="fill:none;stroke:#000000;stroke-linecap:square;stroke-linejoin:miter;stroke-width:0.8;"/>
   </g>
   <g id="patch_31">
    <path d="M 276.48 611.9928 
L 1105.92 611.9928 
" style="fill:none;stroke:#000000;stroke-linecap:square;stroke-linejoin:miter;stroke-width:0.8;"/>
   </g>
   <g id="text_40">
    <!-- L_3 -->
    <g transform="translate(242.956825 618.042031)scale(0.1 -0.1)">
     <use xlink:href="#DejaVuSans-4c"/>
     <use x="55.712891" xlink:href="#DejaVuSans-5f"/>
     <use x="105.712891" xlink:href="#DejaVuSans-33"/>
    </g>
   </g>
   <g id="text_41">
    <!-- $\mathdefault{0.0}$ -->
    <g transform="translate(1122.5088 618.269375)scale(0.1 -0.1)">
     <use transform="translate(0 0.78125)" xlink:href="#DejaVuSans-30"/>
     <use transform="translate(63.623047 0.78125)" xlink:href="#DejaVuSans-2e"/>
     <use transform="translate(95.410156 0.78125)" xlink:href="#DejaVuSans-30"/>
    </g>
   </g>
  </g>
 </g>
 <defs>
  <clipPath id="p6abac5f1cc">
   <rect height="201.439636" width="1071.36" x="172.8" y="84.4128"/>
  </clipPath>
  <clipPath id="p1ee085f7bc">
   <rect height="201.439636" width="1071.36" x="172.8" y="326.140364"/>
  </clipPath>
  <clipPath id="pb6d12d25cc">
   <rect height="7.0344" width="829.44" x="276.48" y="569.7864"/>
  </clipPath>
  <clipPath id="p5e72f39822">
   <rect height="7.0344" width="829.44" x="276.48" y="590.8896"/>
  </clipPath>
  <clipPath id="pe96b6cdc36">
   <rect height="7.0344" width="829.44" x="276.48" y="611.9928"/>
  </clipPath>
 </defs>
</svg>
